<mxfile host="app.diagrams.net" agent="Mozilla/5.0 (Windows NT 10.0; Win64; x64) AppleWebKit/537.36 (KHTML, like Gecko) Chrome/131.0.0.0 Safari/537.36 Edg/131.0.0.0" version="24.9.2">
  <diagram name="Page-1" id="fCXqBcOIvFdSVEsdeiMk">
    <mxGraphModel dx="4165" dy="1958" grid="1" gridSize="10" guides="0" tooltips="1" connect="1" arrows="1" fold="1" page="1" pageScale="1" pageWidth="827" pageHeight="1169" math="0" shadow="0">
      <root>
        <mxCell id="0" />
        <mxCell id="1" parent="0" />
        <mxCell id="t8eUcsItaZwYu466m45F-11" value="Diagram kontekstowy" style="text;html=1;align=center;verticalAlign=middle;resizable=0;points=[];autosize=1;strokeColor=none;fillColor=none;fontSize=22;" parent="1" vertex="1">
          <mxGeometry x="724.5" y="43" width="230" height="30" as="geometry" />
        </mxCell>
        <mxCell id="t8eUcsItaZwYu466m45F-12" value="Restauracja" style="rounded=0;whiteSpace=wrap;html=1;" parent="1" vertex="1">
          <mxGeometry x="780.5" y="85" width="120" height="60" as="geometry" />
        </mxCell>
        <mxCell id="t8eUcsItaZwYu466m45F-13" value="Administrator" style="rounded=0;whiteSpace=wrap;html=1;" parent="1" vertex="1">
          <mxGeometry x="1050" y="239" width="120" height="60" as="geometry" />
        </mxCell>
        <mxCell id="t8eUcsItaZwYu466m45F-14" value="Klient" style="rounded=0;whiteSpace=wrap;html=1;" parent="1" vertex="1">
          <mxGeometry x="501" y="239" width="120" height="60" as="geometry" />
        </mxCell>
        <mxCell id="t8eUcsItaZwYu466m45F-15" value="" style="endArrow=classic;startArrow=classic;html=1;rounded=0;exitX=1;exitY=0.5;exitDx=0;exitDy=0;" parent="1" source="t8eUcsItaZwYu466m45F-14" target="t8eUcsItaZwYu466m45F-16" edge="1">
          <mxGeometry width="50" height="50" relative="1" as="geometry">
            <mxPoint x="633" y="385" as="sourcePoint" />
            <mxPoint x="599" y="335" as="targetPoint" />
          </mxGeometry>
        </mxCell>
        <mxCell id="t8eUcsItaZwYu466m45F-16" value="0.Zamawianie&lt;div&gt;w Uber&lt;/div&gt;&lt;div&gt;Eats&lt;/div&gt;" style="ellipse;whiteSpace=wrap;html=1;aspect=fixed;" parent="1" vertex="1">
          <mxGeometry x="797.5" y="227" width="84.5" height="84.5" as="geometry" />
        </mxCell>
        <mxCell id="t8eUcsItaZwYu466m45F-17" value="" style="endArrow=classic;startArrow=classic;html=1;rounded=0;exitX=1;exitY=0.5;exitDx=0;exitDy=0;entryX=0;entryY=0.5;entryDx=0;entryDy=0;" parent="1" source="t8eUcsItaZwYu466m45F-16" target="t8eUcsItaZwYu466m45F-13" edge="1">
          <mxGeometry width="50" height="50" relative="1" as="geometry">
            <mxPoint x="633" y="281" as="sourcePoint" />
            <mxPoint x="812" y="281" as="targetPoint" />
          </mxGeometry>
        </mxCell>
        <mxCell id="t8eUcsItaZwYu466m45F-18" value="" style="endArrow=classic;startArrow=classic;html=1;rounded=0;exitX=0.5;exitY=1;exitDx=0;exitDy=0;" parent="1" source="t8eUcsItaZwYu466m45F-12" target="t8eUcsItaZwYu466m45F-16" edge="1">
          <mxGeometry width="50" height="50" relative="1" as="geometry">
            <mxPoint x="645" y="293" as="sourcePoint" />
            <mxPoint x="824" y="293" as="targetPoint" />
          </mxGeometry>
        </mxCell>
        <mxCell id="t8eUcsItaZwYu466m45F-19" value="&lt;font style=&quot;font-size: 14px;&quot;&gt;decyzje&lt;/font&gt;" style="text;html=1;align=center;verticalAlign=middle;whiteSpace=wrap;rounded=0;" parent="1" vertex="1">
          <mxGeometry x="839.5" y="173" width="60" height="30" as="geometry" />
        </mxCell>
        <mxCell id="t8eUcsItaZwYu466m45F-20" value="&lt;font style=&quot;font-size: 14px;&quot;&gt;kontakt&lt;/font&gt;" style="text;html=1;align=center;verticalAlign=middle;whiteSpace=wrap;rounded=0;" parent="1" vertex="1">
          <mxGeometry x="681" y="239" width="60" height="30" as="geometry" />
        </mxCell>
        <mxCell id="t8eUcsItaZwYu466m45F-21" value="&lt;font style=&quot;font-size: 14px;&quot;&gt;nadzór&lt;/font&gt;" style="text;html=1;align=center;verticalAlign=middle;whiteSpace=wrap;rounded=0;" parent="1" vertex="1">
          <mxGeometry x="933" y="239" width="60" height="30" as="geometry" />
        </mxCell>
        <mxCell id="t8eUcsItaZwYu466m45F-22" value="" style="endArrow=none;html=1;rounded=0;" parent="1" edge="1">
          <mxGeometry width="50" height="50" relative="1" as="geometry">
            <mxPoint x="496" y="613.73" as="sourcePoint" />
            <mxPoint x="592" y="613.73" as="targetPoint" />
          </mxGeometry>
        </mxCell>
        <mxCell id="t8eUcsItaZwYu466m45F-23" value="" style="endArrow=none;html=1;rounded=0;" parent="1" edge="1">
          <mxGeometry width="50" height="50" relative="1" as="geometry">
            <mxPoint x="496" y="623.56" as="sourcePoint" />
            <mxPoint x="592" y="623.73" as="targetPoint" />
          </mxGeometry>
        </mxCell>
        <mxCell id="t8eUcsItaZwYu466m45F-24" value="" style="endArrow=none;html=1;rounded=0;" parent="1" edge="1">
          <mxGeometry width="50" height="50" relative="1" as="geometry">
            <mxPoint x="496" y="653.5" as="sourcePoint" />
            <mxPoint x="592" y="653.5" as="targetPoint" />
          </mxGeometry>
        </mxCell>
        <mxCell id="t8eUcsItaZwYu466m45F-25" value="" style="endArrow=none;html=1;rounded=0;" parent="1" edge="1">
          <mxGeometry width="50" height="50" relative="1" as="geometry">
            <mxPoint x="496" y="663.3299999999999" as="sourcePoint" />
            <mxPoint x="592" y="663.5" as="targetPoint" />
          </mxGeometry>
        </mxCell>
        <mxCell id="t8eUcsItaZwYu466m45F-26" value="&lt;span style=&quot;color: rgb(0, 0, 0); font-family: Helvetica; font-size: 12px; font-style: normal; font-variant-ligatures: normal; font-variant-caps: normal; font-weight: 400; letter-spacing: normal; orphans: 2; text-align: center; text-indent: 0px; text-transform: none; widows: 2; word-spacing: 0px; -webkit-text-stroke-width: 0px; white-space: normal; background-color: rgb(251, 251, 251); text-decoration-thickness: initial; text-decoration-style: initial; text-decoration-color: initial; display: inline !important; float: none;&quot;&gt;Komentarze&lt;/span&gt;" style="text;whiteSpace=wrap;html=1;" parent="1" vertex="1">
          <mxGeometry x="508" y="625" width="72" height="24" as="geometry" />
        </mxCell>
        <mxCell id="t8eUcsItaZwYu466m45F-27" value="6.Dodawanie&lt;div&gt;komentarzy&lt;/div&gt;" style="ellipse;whiteSpace=wrap;html=1;aspect=fixed;" parent="1" vertex="1">
          <mxGeometry x="504" y="707" width="80" height="80" as="geometry" />
        </mxCell>
        <mxCell id="t8eUcsItaZwYu466m45F-28" value="4.Składanie&lt;div&gt;zamówień&lt;/div&gt;" style="ellipse;whiteSpace=wrap;html=1;aspect=fixed;" parent="1" vertex="1">
          <mxGeometry x="748" y="827" width="80" height="80" as="geometry" />
        </mxCell>
        <mxCell id="t8eUcsItaZwYu466m45F-29" value="5.Obsługa zamówień" style="ellipse;whiteSpace=wrap;html=1;aspect=fixed;" parent="1" vertex="1">
          <mxGeometry x="1029" y="940" width="80" height="80" as="geometry" />
        </mxCell>
        <mxCell id="t8eUcsItaZwYu466m45F-30" value="1.Logowanie" style="ellipse;whiteSpace=wrap;html=1;aspect=fixed;" parent="1" vertex="1">
          <mxGeometry x="504" y="1091" width="80" height="80" as="geometry" />
        </mxCell>
        <mxCell id="t8eUcsItaZwYu466m45F-31" value="2.Zarządzanie&lt;div&gt;kontami&lt;/div&gt;&lt;div&gt;użytkowników&lt;/div&gt;" style="ellipse;whiteSpace=wrap;html=1;aspect=fixed;" parent="1" vertex="1">
          <mxGeometry x="1216" y="1200" width="86" height="86" as="geometry" />
        </mxCell>
        <mxCell id="t8eUcsItaZwYu466m45F-32" value="Klient" style="rounded=0;whiteSpace=wrap;html=1;" parent="1" vertex="1">
          <mxGeometry x="484" y="945" width="120" height="60" as="geometry" />
        </mxCell>
        <mxCell id="t8eUcsItaZwYu466m45F-33" value="Restauracja" style="rounded=0;whiteSpace=wrap;html=1;" parent="1" vertex="1">
          <mxGeometry x="1009" y="1100" width="120" height="60" as="geometry" />
        </mxCell>
        <mxCell id="t8eUcsItaZwYu466m45F-34" value="Administrator" style="rounded=0;whiteSpace=wrap;html=1;" parent="1" vertex="1">
          <mxGeometry x="1199" y="1077" width="120" height="60" as="geometry" />
        </mxCell>
        <mxCell id="t8eUcsItaZwYu466m45F-35" value="" style="endArrow=none;html=1;rounded=0;" parent="1" edge="1">
          <mxGeometry width="50" height="50" relative="1" as="geometry">
            <mxPoint x="1101" y="841.6099999999999" as="sourcePoint" />
            <mxPoint x="1197" y="841.6099999999999" as="targetPoint" />
          </mxGeometry>
        </mxCell>
        <mxCell id="t8eUcsItaZwYu466m45F-36" value="" style="endArrow=none;html=1;rounded=0;" parent="1" edge="1">
          <mxGeometry width="50" height="50" relative="1" as="geometry">
            <mxPoint x="1101" y="851.4399999999998" as="sourcePoint" />
            <mxPoint x="1197" y="851.6099999999999" as="targetPoint" />
          </mxGeometry>
        </mxCell>
        <mxCell id="t8eUcsItaZwYu466m45F-37" value="" style="endArrow=none;html=1;rounded=0;" parent="1" edge="1">
          <mxGeometry width="50" height="50" relative="1" as="geometry">
            <mxPoint x="1101" y="881.3799999999999" as="sourcePoint" />
            <mxPoint x="1197" y="881.3799999999999" as="targetPoint" />
          </mxGeometry>
        </mxCell>
        <mxCell id="t8eUcsItaZwYu466m45F-38" value="" style="endArrow=none;html=1;rounded=0;" parent="1" edge="1">
          <mxGeometry width="50" height="50" relative="1" as="geometry">
            <mxPoint x="1101" y="891.21" as="sourcePoint" />
            <mxPoint x="1197" y="891.3799999999999" as="targetPoint" />
          </mxGeometry>
        </mxCell>
        <mxCell id="t8eUcsItaZwYu466m45F-39" value="" style="endArrow=none;html=1;rounded=0;" parent="1" edge="1">
          <mxGeometry width="50" height="50" relative="1" as="geometry">
            <mxPoint x="496" y="1218.2200000000003" as="sourcePoint" />
            <mxPoint x="592" y="1218.2200000000003" as="targetPoint" />
          </mxGeometry>
        </mxCell>
        <mxCell id="t8eUcsItaZwYu466m45F-40" value="" style="endArrow=none;html=1;rounded=0;" parent="1" edge="1">
          <mxGeometry width="50" height="50" relative="1" as="geometry">
            <mxPoint x="496" y="1228.0500000000002" as="sourcePoint" />
            <mxPoint x="592" y="1228.2200000000003" as="targetPoint" />
          </mxGeometry>
        </mxCell>
        <mxCell id="t8eUcsItaZwYu466m45F-41" value="" style="endArrow=none;html=1;rounded=0;" parent="1" edge="1">
          <mxGeometry width="50" height="50" relative="1" as="geometry">
            <mxPoint x="496" y="1257.9899999999998" as="sourcePoint" />
            <mxPoint x="592" y="1257.9899999999998" as="targetPoint" />
          </mxGeometry>
        </mxCell>
        <mxCell id="t8eUcsItaZwYu466m45F-42" value="" style="endArrow=none;html=1;rounded=0;" parent="1" edge="1">
          <mxGeometry width="50" height="50" relative="1" as="geometry">
            <mxPoint x="496" y="1267.8200000000002" as="sourcePoint" />
            <mxPoint x="592" y="1267.9899999999998" as="targetPoint" />
          </mxGeometry>
        </mxCell>
        <mxCell id="t8eUcsItaZwYu466m45F-43" value="" style="endArrow=none;html=1;rounded=0;" parent="1" edge="1">
          <mxGeometry width="50" height="50" relative="1" as="geometry">
            <mxPoint x="1094.25" y="674.6100000000001" as="sourcePoint" />
            <mxPoint x="1190.25" y="674.6100000000001" as="targetPoint" />
          </mxGeometry>
        </mxCell>
        <mxCell id="t8eUcsItaZwYu466m45F-44" value="" style="endArrow=none;html=1;rounded=0;" parent="1" edge="1">
          <mxGeometry width="50" height="50" relative="1" as="geometry">
            <mxPoint x="1094.25" y="684.44" as="sourcePoint" />
            <mxPoint x="1190.25" y="684.6100000000001" as="targetPoint" />
          </mxGeometry>
        </mxCell>
        <mxCell id="t8eUcsItaZwYu466m45F-45" value="" style="endArrow=none;html=1;rounded=0;" parent="1" edge="1">
          <mxGeometry width="50" height="50" relative="1" as="geometry">
            <mxPoint x="1094.25" y="714.3800000000001" as="sourcePoint" />
            <mxPoint x="1190.25" y="714.3800000000001" as="targetPoint" />
          </mxGeometry>
        </mxCell>
        <mxCell id="t8eUcsItaZwYu466m45F-46" value="" style="endArrow=none;html=1;rounded=0;" parent="1" edge="1">
          <mxGeometry width="50" height="50" relative="1" as="geometry">
            <mxPoint x="1094.25" y="724.21" as="sourcePoint" />
            <mxPoint x="1190.25" y="724.3800000000001" as="targetPoint" />
          </mxGeometry>
        </mxCell>
        <mxCell id="t8eUcsItaZwYu466m45F-47" value="" style="endArrow=none;html=1;rounded=0;" parent="1" edge="1">
          <mxGeometry width="50" height="50" relative="1" as="geometry">
            <mxPoint x="890" y="837.5" as="sourcePoint" />
            <mxPoint x="986" y="837.5" as="targetPoint" />
          </mxGeometry>
        </mxCell>
        <mxCell id="t8eUcsItaZwYu466m45F-48" value="" style="endArrow=none;html=1;rounded=0;" parent="1" edge="1">
          <mxGeometry width="50" height="50" relative="1" as="geometry">
            <mxPoint x="890" y="847.3299999999999" as="sourcePoint" />
            <mxPoint x="986" y="847.5" as="targetPoint" />
          </mxGeometry>
        </mxCell>
        <mxCell id="t8eUcsItaZwYu466m45F-49" value="" style="endArrow=none;html=1;rounded=0;" parent="1" edge="1">
          <mxGeometry width="50" height="50" relative="1" as="geometry">
            <mxPoint x="890" y="877.27" as="sourcePoint" />
            <mxPoint x="986" y="877.27" as="targetPoint" />
          </mxGeometry>
        </mxCell>
        <mxCell id="t8eUcsItaZwYu466m45F-50" value="" style="endArrow=none;html=1;rounded=0;" parent="1" edge="1">
          <mxGeometry width="50" height="50" relative="1" as="geometry">
            <mxPoint x="890" y="887.0999999999999" as="sourcePoint" />
            <mxPoint x="986" y="887.27" as="targetPoint" />
          </mxGeometry>
        </mxCell>
        <mxCell id="t8eUcsItaZwYu466m45F-51" value="&lt;span style=&quot;color: rgb(0, 0, 0); font-family: Helvetica; font-size: 12px; font-style: normal; font-variant-ligatures: normal; font-variant-caps: normal; font-weight: 400; letter-spacing: normal; orphans: 2; text-align: center; text-indent: 0px; text-transform: none; widows: 2; word-spacing: 0px; -webkit-text-stroke-width: 0px; white-space: normal; background-color: rgb(251, 251, 251); text-decoration-thickness: initial; text-decoration-style: initial; text-decoration-color: initial; display: inline !important; float: none;&quot;&gt;Zamówienia&amp;nbsp;&lt;/span&gt;" style="text;whiteSpace=wrap;html=1;" parent="1" vertex="1">
          <mxGeometry x="901" y="848.77" width="68" height="36" as="geometry" />
        </mxCell>
        <mxCell id="t8eUcsItaZwYu466m45F-52" value="&lt;span style=&quot;color: rgb(0, 0, 0); font-family: Helvetica; font-size: 12px; font-style: normal; font-variant-ligatures: normal; font-variant-caps: normal; font-weight: 400; letter-spacing: normal; orphans: 2; text-align: center; text-indent: 0px; text-transform: none; widows: 2; word-spacing: 0px; -webkit-text-stroke-width: 0px; white-space: normal; background-color: rgb(251, 251, 251); text-decoration-thickness: initial; text-decoration-style: initial; text-decoration-color: initial; display: inline !important; float: none;&quot;&gt;Potrawy&lt;/span&gt;" style="text;whiteSpace=wrap;html=1;" parent="1" vertex="1">
          <mxGeometry x="1113" y="853.6100000000001" width="84" height="36" as="geometry" />
        </mxCell>
        <mxCell id="t8eUcsItaZwYu466m45F-53" value="&lt;span style=&quot;color: rgb(0, 0, 0); font-family: Helvetica; font-size: 12px; font-style: normal; font-variant-ligatures: normal; font-variant-caps: normal; font-weight: 400; letter-spacing: normal; orphans: 2; text-align: center; text-indent: 0px; text-transform: none; widows: 2; word-spacing: 0px; -webkit-text-stroke-width: 0px; white-space: normal; background-color: rgb(251, 251, 251); text-decoration-thickness: initial; text-decoration-style: initial; text-decoration-color: initial; display: inline !important; float: none;&quot;&gt;Użytkownicy&lt;/span&gt;" style="text;whiteSpace=wrap;html=1;" parent="1" vertex="1">
          <mxGeometry x="508" y="1228" width="72" height="21" as="geometry" />
        </mxCell>
        <mxCell id="t8eUcsItaZwYu466m45F-54" value="&lt;span style=&quot;color: rgb(0, 0, 0); font-family: Helvetica; font-size: 12px; font-style: normal; font-variant-ligatures: normal; font-variant-caps: normal; font-weight: 400; letter-spacing: normal; orphans: 2; text-align: center; text-indent: 0px; text-transform: none; widows: 2; word-spacing: 0px; -webkit-text-stroke-width: 0px; white-space: normal; background-color: rgb(251, 251, 251); text-decoration-thickness: initial; text-decoration-style: initial; text-decoration-color: initial; display: inline !important; float: none;&quot;&gt;Restauracje&lt;/span&gt;" style="text;whiteSpace=wrap;html=1;" parent="1" vertex="1">
          <mxGeometry x="1107.75" y="686.8800000000001" width="66.25" height="36" as="geometry" />
        </mxCell>
        <mxCell id="t8eUcsItaZwYu466m45F-55" value="" style="endArrow=none;html=1;rounded=0;" parent="1" edge="1">
          <mxGeometry width="50" height="50" relative="1" as="geometry">
            <mxPoint x="584" y="841.49" as="sourcePoint" />
            <mxPoint x="680" y="841.49" as="targetPoint" />
          </mxGeometry>
        </mxCell>
        <mxCell id="t8eUcsItaZwYu466m45F-56" value="" style="endArrow=none;html=1;rounded=0;" parent="1" edge="1">
          <mxGeometry width="50" height="50" relative="1" as="geometry">
            <mxPoint x="584" y="851.3200000000002" as="sourcePoint" />
            <mxPoint x="680" y="851.49" as="targetPoint" />
          </mxGeometry>
        </mxCell>
        <mxCell id="t8eUcsItaZwYu466m45F-57" value="" style="endArrow=none;html=1;rounded=0;" parent="1" edge="1">
          <mxGeometry width="50" height="50" relative="1" as="geometry">
            <mxPoint x="584" y="881.26" as="sourcePoint" />
            <mxPoint x="680" y="881.26" as="targetPoint" />
          </mxGeometry>
        </mxCell>
        <mxCell id="t8eUcsItaZwYu466m45F-58" value="" style="endArrow=none;html=1;rounded=0;" parent="1" edge="1">
          <mxGeometry width="50" height="50" relative="1" as="geometry">
            <mxPoint x="584" y="891.0900000000001" as="sourcePoint" />
            <mxPoint x="680" y="891.26" as="targetPoint" />
          </mxGeometry>
        </mxCell>
        <mxCell id="t8eUcsItaZwYu466m45F-59" value="&lt;span style=&quot;color: rgb(0, 0, 0); font-family: Helvetica; font-size: 12px; font-style: normal; font-variant-ligatures: normal; font-variant-caps: normal; font-weight: 400; letter-spacing: normal; orphans: 2; text-align: center; text-indent: 0px; text-transform: none; widows: 2; word-spacing: 0px; -webkit-text-stroke-width: 0px; white-space: normal; background-color: rgb(251, 251, 251); text-decoration-thickness: initial; text-decoration-style: initial; text-decoration-color: initial; display: inline !important; float: none;&quot;&gt;Koszyk&lt;/span&gt;" style="text;whiteSpace=wrap;html=1;" parent="1" vertex="1">
          <mxGeometry x="608" y="855.1199999999999" width="36" height="36" as="geometry" />
        </mxCell>
        <mxCell id="t8eUcsItaZwYu466m45F-60" value="3.Zarządzanie restauracją" style="ellipse;whiteSpace=wrap;html=1;aspect=fixed;" parent="1" vertex="1">
          <mxGeometry x="1219" y="945" width="80" height="80" as="geometry" />
        </mxCell>
        <mxCell id="t8eUcsItaZwYu466m45F-61" value="" style="endArrow=classic;html=1;rounded=0;exitX=0.5;exitY=0;exitDx=0;exitDy=0;" parent="1" edge="1">
          <mxGeometry width="50" height="50" relative="1" as="geometry">
            <mxPoint x="544" y="711" as="sourcePoint" />
            <mxPoint x="544" y="663" as="targetPoint" />
          </mxGeometry>
        </mxCell>
        <mxCell id="t8eUcsItaZwYu466m45F-62" value="" style="endArrow=classic;html=1;rounded=0;exitX=0.5;exitY=0;exitDx=0;exitDy=0;entryX=0.5;entryY=1;entryDx=0;entryDy=0;" parent="1" source="t8eUcsItaZwYu466m45F-32" target="t8eUcsItaZwYu466m45F-27" edge="1">
          <mxGeometry width="50" height="50" relative="1" as="geometry">
            <mxPoint x="1048" y="1057" as="sourcePoint" />
            <mxPoint x="1098" y="1007" as="targetPoint" />
          </mxGeometry>
        </mxCell>
        <mxCell id="t8eUcsItaZwYu466m45F-63" value="" style="endArrow=classic;html=1;rounded=0;exitX=0;exitY=0.5;exitDx=0;exitDy=0;entryX=0;entryY=0.5;entryDx=0;entryDy=0;" parent="1" source="t8eUcsItaZwYu466m45F-32" target="t8eUcsItaZwYu466m45F-30" edge="1">
          <mxGeometry width="50" height="50" relative="1" as="geometry">
            <mxPoint x="1048" y="1057" as="sourcePoint" />
            <mxPoint x="1098" y="1007" as="targetPoint" />
            <Array as="points">
              <mxPoint x="444" y="975" />
              <mxPoint x="444" y="1131" />
            </Array>
          </mxGeometry>
        </mxCell>
        <mxCell id="t8eUcsItaZwYu466m45F-64" value="" style="endArrow=classic;html=1;rounded=0;exitX=0;exitY=0.5;exitDx=0;exitDy=0;entryX=1;entryY=0.5;entryDx=0;entryDy=0;" parent="1" source="t8eUcsItaZwYu466m45F-33" target="t8eUcsItaZwYu466m45F-30" edge="1">
          <mxGeometry width="50" height="50" relative="1" as="geometry">
            <mxPoint x="1156" y="1057" as="sourcePoint" />
            <mxPoint x="1206" y="1007" as="targetPoint" />
            <Array as="points" />
          </mxGeometry>
        </mxCell>
        <mxCell id="t8eUcsItaZwYu466m45F-65" value="" style="endArrow=classic;html=1;rounded=0;entryX=0.5;entryY=1;entryDx=0;entryDy=0;" parent="1" target="t8eUcsItaZwYu466m45F-30" edge="1">
          <mxGeometry width="50" height="50" relative="1" as="geometry">
            <mxPoint x="544" y="1215" as="sourcePoint" />
            <mxPoint x="1206" y="1167" as="targetPoint" />
          </mxGeometry>
        </mxCell>
        <mxCell id="t8eUcsItaZwYu466m45F-66" value="" style="endArrow=classic;startArrow=classic;html=1;rounded=0;entryX=0;entryY=0.5;entryDx=0;entryDy=0;" parent="1" target="t8eUcsItaZwYu466m45F-28" edge="1">
          <mxGeometry width="50" height="50" relative="1" as="geometry">
            <mxPoint x="676" y="867" as="sourcePoint" />
            <mxPoint x="1230" y="1019" as="targetPoint" />
          </mxGeometry>
        </mxCell>
        <mxCell id="t8eUcsItaZwYu466m45F-67" value="" style="endArrow=classic;startArrow=classic;html=1;rounded=0;exitX=1;exitY=0.5;exitDx=0;exitDy=0;" parent="1" source="t8eUcsItaZwYu466m45F-32" edge="1">
          <mxGeometry width="50" height="50" relative="1" as="geometry">
            <mxPoint x="1180" y="1069" as="sourcePoint" />
            <mxPoint x="784" y="911" as="targetPoint" />
            <Array as="points">
              <mxPoint x="784" y="975" />
            </Array>
          </mxGeometry>
        </mxCell>
        <mxCell id="t8eUcsItaZwYu466m45F-68" value="" style="endArrow=classic;startArrow=classic;html=1;rounded=0;exitX=1;exitY=0.5;exitDx=0;exitDy=0;" parent="1" source="t8eUcsItaZwYu466m45F-28" edge="1">
          <mxGeometry width="50" height="50" relative="1" as="geometry">
            <mxPoint x="1180" y="1069" as="sourcePoint" />
            <mxPoint x="892" y="866" as="targetPoint" />
          </mxGeometry>
        </mxCell>
        <mxCell id="t8eUcsItaZwYu466m45F-69" value="" style="endArrow=classic;startArrow=classic;html=1;rounded=0;exitX=0.5;exitY=0;exitDx=0;exitDy=0;entryX=0.5;entryY=1;entryDx=0;entryDy=0;" parent="1" source="t8eUcsItaZwYu466m45F-33" target="t8eUcsItaZwYu466m45F-29" edge="1">
          <mxGeometry width="50" height="50" relative="1" as="geometry">
            <mxPoint x="1246" y="1171.5" as="sourcePoint" />
            <mxPoint x="1296" y="1121.5" as="targetPoint" />
          </mxGeometry>
        </mxCell>
        <mxCell id="t8eUcsItaZwYu466m45F-70" value="" style="endArrow=classic;startArrow=classic;html=1;rounded=0;entryX=0.5;entryY=0;entryDx=0;entryDy=0;" parent="1" target="t8eUcsItaZwYu466m45F-29" edge="1">
          <mxGeometry width="50" height="50" relative="1" as="geometry">
            <mxPoint x="989" y="860" as="sourcePoint" />
            <mxPoint x="1465" y="911.5" as="targetPoint" />
            <Array as="points">
              <mxPoint x="1069" y="860" />
            </Array>
          </mxGeometry>
        </mxCell>
        <mxCell id="t8eUcsItaZwYu466m45F-71" value="" style="endArrow=classic;html=1;rounded=0;entryX=0.5;entryY=0;entryDx=0;entryDy=0;" parent="1" target="t8eUcsItaZwYu466m45F-28" edge="1">
          <mxGeometry width="50" height="50" relative="1" as="geometry">
            <mxPoint x="1095" y="698" as="sourcePoint" />
            <mxPoint x="1326" y="911" as="targetPoint" />
            <Array as="points">
              <mxPoint x="788" y="698" />
            </Array>
          </mxGeometry>
        </mxCell>
        <mxCell id="t8eUcsItaZwYu466m45F-72" value="" style="endArrow=classic;html=1;rounded=0;" parent="1" edge="1">
          <mxGeometry width="50" height="50" relative="1" as="geometry">
            <mxPoint x="1149" y="839" as="sourcePoint" />
            <mxPoint x="796" y="791" as="targetPoint" />
            <Array as="points">
              <mxPoint x="1149" y="791" />
              <mxPoint x="1000" y="791" />
            </Array>
          </mxGeometry>
        </mxCell>
        <mxCell id="t8eUcsItaZwYu466m45F-73" value="" style="endArrow=classic;html=1;rounded=0;entryX=1;entryY=0.5;entryDx=0;entryDy=0;" parent="1" target="t8eUcsItaZwYu466m45F-27" edge="1">
          <mxGeometry width="50" height="50" relative="1" as="geometry">
            <mxPoint x="1139" y="671" as="sourcePoint" />
            <mxPoint x="1350" y="911" as="targetPoint" />
            <Array as="points">
              <mxPoint x="1139" y="623" />
              <mxPoint x="676" y="623" />
              <mxPoint x="676" y="747" />
            </Array>
          </mxGeometry>
        </mxCell>
        <mxCell id="t8eUcsItaZwYu466m45F-74" value="" style="endArrow=classic;html=1;rounded=0;exitX=1;exitY=0.25;exitDx=0;exitDy=0;" parent="1" source="t8eUcsItaZwYu466m45F-52" edge="1">
          <mxGeometry width="50" height="50" relative="1" as="geometry">
            <mxPoint x="1072" y="839" as="sourcePoint" />
            <mxPoint x="868" y="623" as="targetPoint" />
            <Array as="points">
              <mxPoint x="1192" y="863" />
              <mxPoint x="1259" y="863" />
              <mxPoint x="1259" y="575" />
              <mxPoint x="868" y="575" />
            </Array>
          </mxGeometry>
        </mxCell>
        <mxCell id="t8eUcsItaZwYu466m45F-75" value="" style="endArrow=classic;html=1;rounded=0;exitX=1;exitY=0.5;exitDx=0;exitDy=0;" parent="1" source="t8eUcsItaZwYu466m45F-60" edge="1">
          <mxGeometry width="50" height="50" relative="1" as="geometry">
            <mxPoint x="1414" y="901" as="sourcePoint" />
            <mxPoint x="1189" y="695" as="targetPoint" />
            <Array as="points">
              <mxPoint x="1318" y="985" />
              <mxPoint x="1318" y="695" />
            </Array>
          </mxGeometry>
        </mxCell>
        <mxCell id="t8eUcsItaZwYu466m45F-76" value="" style="endArrow=classic;html=1;rounded=0;exitX=0.5;exitY=0;exitDx=0;exitDy=0;entryX=0.5;entryY=1;entryDx=0;entryDy=0;" parent="1" source="t8eUcsItaZwYu466m45F-34" target="t8eUcsItaZwYu466m45F-60" edge="1">
          <mxGeometry width="50" height="50" relative="1" as="geometry">
            <mxPoint x="1907" y="901" as="sourcePoint" />
            <mxPoint x="1957" y="851" as="targetPoint" />
          </mxGeometry>
        </mxCell>
        <mxCell id="t8eUcsItaZwYu466m45F-77" value="" style="endArrow=classic;html=1;rounded=0;entryX=0.5;entryY=0;entryDx=0;entryDy=0;exitX=0.5;exitY=1;exitDx=0;exitDy=0;" parent="1" source="t8eUcsItaZwYu466m45F-34" target="t8eUcsItaZwYu466m45F-31" edge="1">
          <mxGeometry width="50" height="50" relative="1" as="geometry">
            <mxPoint x="1259" y="1127" as="sourcePoint" />
            <mxPoint x="1621" y="1199" as="targetPoint" />
          </mxGeometry>
        </mxCell>
        <mxCell id="t8eUcsItaZwYu466m45F-78" value="" style="endArrow=classic;html=1;rounded=0;entryX=0;entryY=0.5;entryDx=0;entryDy=0;" parent="1" target="t8eUcsItaZwYu466m45F-31" edge="1">
          <mxGeometry width="50" height="50" relative="1" as="geometry">
            <mxPoint x="592" y="1243" as="sourcePoint" />
            <mxPoint x="1072" y="1232" as="targetPoint" />
          </mxGeometry>
        </mxCell>
        <mxCell id="t8eUcsItaZwYu466m45F-79" value="" style="endArrow=classic;html=1;rounded=0;exitX=0.5;exitY=1;exitDx=0;exitDy=0;" parent="1" source="t8eUcsItaZwYu466m45F-31" edge="1">
          <mxGeometry width="50" height="50" relative="1" as="geometry">
            <mxPoint x="1262.0000000000005" y="1284.0000000000005" as="sourcePoint" />
            <mxPoint x="549" y="1270" as="targetPoint" />
            <Array as="points">
              <mxPoint x="1259" y="1306" />
              <mxPoint x="549" y="1306" />
            </Array>
          </mxGeometry>
        </mxCell>
        <mxCell id="t8eUcsItaZwYu466m45F-80" value="" style="endArrow=classic;startArrow=classic;html=1;rounded=0;exitX=0;exitY=0.5;exitDx=0;exitDy=0;entryX=0.5;entryY=1;entryDx=0;entryDy=0;" parent="1" source="t8eUcsItaZwYu466m45F-60" target="t8eUcsItaZwYu466m45F-52" edge="1">
          <mxGeometry width="50" height="50" relative="1" as="geometry">
            <mxPoint x="1594" y="937" as="sourcePoint" />
            <mxPoint x="1644" y="887" as="targetPoint" />
            <Array as="points">
              <mxPoint x="1155" y="985" />
            </Array>
          </mxGeometry>
        </mxCell>
        <mxCell id="t8eUcsItaZwYu466m45F-81" value="Dane restauracji" style="text;html=1;align=center;verticalAlign=middle;whiteSpace=wrap;rounded=0;" parent="1" vertex="1">
          <mxGeometry x="828" y="620" width="96" height="30" as="geometry" />
        </mxCell>
        <mxCell id="t8eUcsItaZwYu466m45F-82" value="Dane restauracji" style="text;html=1;align=center;verticalAlign=middle;whiteSpace=wrap;rounded=0;" parent="1" vertex="1">
          <mxGeometry x="915" y="693" width="96" height="30" as="geometry" />
        </mxCell>
        <mxCell id="t8eUcsItaZwYu466m45F-83" value="Dane potrawy" style="text;html=1;align=center;verticalAlign=middle;whiteSpace=wrap;rounded=0;" parent="1" vertex="1">
          <mxGeometry x="892" y="763" width="96" height="30" as="geometry" />
        </mxCell>
        <mxCell id="t8eUcsItaZwYu466m45F-84" value="Dane&amp;nbsp;&lt;span style=&quot;background-color: initial;&quot;&gt;zamównienia&lt;/span&gt;" style="text;html=1;align=center;verticalAlign=middle;whiteSpace=wrap;rounded=0;" parent="1" vertex="1">
          <mxGeometry x="1008" y="833" width="72" height="30" as="geometry" />
        </mxCell>
        <mxCell id="t8eUcsItaZwYu466m45F-85" value="Dane&amp;nbsp;&lt;span style=&quot;background-color: initial;&quot;&gt;restauracji&lt;/span&gt;" style="text;html=1;align=center;verticalAlign=middle;whiteSpace=wrap;rounded=0;" parent="1" vertex="1">
          <mxGeometry x="1077" y="1048" width="85" height="30" as="geometry" />
        </mxCell>
        <mxCell id="t8eUcsItaZwYu466m45F-86" value="Zamówienie&lt;div&gt;klienta&lt;/div&gt;" style="text;html=1;align=center;verticalAlign=middle;whiteSpace=wrap;rounded=0;" parent="1" vertex="1">
          <mxGeometry x="688" y="832" width="60" height="30" as="geometry" />
        </mxCell>
        <mxCell id="t8eUcsItaZwYu466m45F-87" value="Dane&lt;div&gt;użytkownika&lt;/div&gt;" style="text;html=1;align=center;verticalAlign=middle;whiteSpace=wrap;rounded=0;" parent="1" vertex="1">
          <mxGeometry x="475" y="858.1199999999999" width="60" height="30" as="geometry" />
        </mxCell>
        <mxCell id="t8eUcsItaZwYu466m45F-88" value="Dane zamówienia" style="text;html=1;align=center;verticalAlign=middle;whiteSpace=wrap;rounded=0;" parent="1" vertex="1">
          <mxGeometry x="652" y="947" width="108" height="30" as="geometry" />
        </mxCell>
        <mxCell id="t8eUcsItaZwYu466m45F-89" value="Dane&lt;div&gt;użytkownika&lt;/div&gt;" style="text;html=1;align=center;verticalAlign=middle;whiteSpace=wrap;rounded=0;" parent="1" vertex="1">
          <mxGeometry x="462" y="1180" width="70" height="30" as="geometry" />
        </mxCell>
        <mxCell id="t8eUcsItaZwYu466m45F-90" value="Dane użytkownika" style="text;html=1;align=center;verticalAlign=middle;whiteSpace=wrap;rounded=0;" parent="1" vertex="1">
          <mxGeometry x="787" y="1216" width="132" height="30" as="geometry" />
        </mxCell>
        <mxCell id="t8eUcsItaZwYu466m45F-91" value="Dane użytkownika" style="text;html=1;align=center;verticalAlign=middle;whiteSpace=wrap;rounded=0;" parent="1" vertex="1">
          <mxGeometry x="787" y="1279" width="132" height="30" as="geometry" />
        </mxCell>
        <mxCell id="t8eUcsItaZwYu466m45F-92" value="Dane&lt;div&gt;użytkowników&lt;/div&gt;" style="text;html=1;align=center;verticalAlign=middle;whiteSpace=wrap;rounded=0;" parent="1" vertex="1">
          <mxGeometry x="1256" y="1151" width="100" height="30" as="geometry" />
        </mxCell>
        <mxCell id="t8eUcsItaZwYu466m45F-93" value="Dane restauracji" style="text;html=1;align=center;verticalAlign=middle;whiteSpace=wrap;rounded=0;" parent="1" vertex="1">
          <mxGeometry x="1009" y="548" width="132" height="30" as="geometry" />
        </mxCell>
        <mxCell id="t8eUcsItaZwYu466m45F-94" value="Dane&lt;div&gt;restauracji&lt;/div&gt;" style="text;html=1;align=center;verticalAlign=middle;whiteSpace=wrap;rounded=0;" parent="1" vertex="1">
          <mxGeometry x="1324" y="830" width="53" height="30" as="geometry" />
        </mxCell>
        <mxCell id="t8eUcsItaZwYu466m45F-95" value="Dane potrawy" style="text;html=1;align=center;verticalAlign=middle;whiteSpace=wrap;rounded=0;" parent="1" vertex="1">
          <mxGeometry x="1149" y="920" width="96" height="30" as="geometry" />
        </mxCell>
        <mxCell id="t8eUcsItaZwYu466m45F-96" value="Dane&lt;div&gt;użytkownika&lt;/div&gt;" style="text;html=1;align=center;verticalAlign=middle;whiteSpace=wrap;rounded=0;" parent="1" vertex="1">
          <mxGeometry x="445" y="1038" width="78" height="30" as="geometry" />
        </mxCell>
        <mxCell id="t8eUcsItaZwYu466m45F-97" value="Dane&amp;nbsp;&lt;span style=&quot;background-color: initial;&quot;&gt;restauracji&lt;/span&gt;" style="text;html=1;align=center;verticalAlign=middle;whiteSpace=wrap;rounded=0;" parent="1" vertex="1">
          <mxGeometry x="767" y="1104" width="85" height="30" as="geometry" />
        </mxCell>
        <mxCell id="t8eUcsItaZwYu466m45F-105" value="Klient" style="rounded=0;whiteSpace=wrap;html=1;" parent="1" vertex="1">
          <mxGeometry x="807" y="1460" width="120" height="60" as="geometry" />
        </mxCell>
        <mxCell id="t8eUcsItaZwYu466m45F-106" value="1.2 Zalogowanie się do konta" style="ellipse;whiteSpace=wrap;html=1;aspect=fixed;" parent="1" vertex="1">
          <mxGeometry x="947" y="1590" width="80" height="80" as="geometry" />
        </mxCell>
        <mxCell id="t8eUcsItaZwYu466m45F-107" value="1.1 Założenie konta" style="ellipse;whiteSpace=wrap;html=1;aspect=fixed;" parent="1" vertex="1">
          <mxGeometry x="827" y="1590" width="80" height="80" as="geometry" />
        </mxCell>
        <mxCell id="t8eUcsItaZwYu466m45F-108" value="1.4 Aktywacja konta" style="ellipse;whiteSpace=wrap;html=1;aspect=fixed;" parent="1" vertex="1">
          <mxGeometry x="604" y="1590" width="80" height="80" as="geometry" />
        </mxCell>
        <mxCell id="t8eUcsItaZwYu466m45F-109" value="1.3 Wysyłanie wiadomości aktywacyjnej" style="ellipse;whiteSpace=wrap;html=1;aspect=fixed;" parent="1" vertex="1">
          <mxGeometry x="1075" y="1590" width="80" height="80" as="geometry" />
        </mxCell>
        <mxCell id="t8eUcsItaZwYu466m45F-110" value="" style="endArrow=none;html=1;rounded=0;" parent="1" edge="1">
          <mxGeometry width="50" height="50" relative="1" as="geometry">
            <mxPoint x="728" y="1745" as="sourcePoint" />
            <mxPoint x="824" y="1745" as="targetPoint" />
          </mxGeometry>
        </mxCell>
        <mxCell id="t8eUcsItaZwYu466m45F-111" value="" style="endArrow=none;html=1;rounded=0;" parent="1" edge="1">
          <mxGeometry width="50" height="50" relative="1" as="geometry">
            <mxPoint x="728" y="1754.83" as="sourcePoint" />
            <mxPoint x="824" y="1755" as="targetPoint" />
          </mxGeometry>
        </mxCell>
        <mxCell id="t8eUcsItaZwYu466m45F-112" value="" style="endArrow=none;html=1;rounded=0;" parent="1" edge="1">
          <mxGeometry width="50" height="50" relative="1" as="geometry">
            <mxPoint x="728" y="1784.77" as="sourcePoint" />
            <mxPoint x="824" y="1784.77" as="targetPoint" />
          </mxGeometry>
        </mxCell>
        <mxCell id="t8eUcsItaZwYu466m45F-113" value="" style="endArrow=none;html=1;rounded=0;" parent="1" edge="1">
          <mxGeometry width="50" height="50" relative="1" as="geometry">
            <mxPoint x="728" y="1794.6000000000004" as="sourcePoint" />
            <mxPoint x="824" y="1794.77" as="targetPoint" />
          </mxGeometry>
        </mxCell>
        <mxCell id="t8eUcsItaZwYu466m45F-114" value="&lt;span style=&quot;color: rgb(0, 0, 0); font-family: Helvetica; font-size: 12px; font-style: normal; font-variant-ligatures: normal; font-variant-caps: normal; font-weight: 400; letter-spacing: normal; orphans: 2; text-align: center; text-indent: 0px; text-transform: none; widows: 2; word-spacing: 0px; -webkit-text-stroke-width: 0px; white-space: normal; background-color: rgb(251, 251, 251); text-decoration-thickness: initial; text-decoration-style: initial; text-decoration-color: initial; display: inline !important; float: none;&quot;&gt;Użytkownicy&lt;/span&gt;" style="text;whiteSpace=wrap;html=1;" parent="1" vertex="1">
          <mxGeometry x="740" y="1754.7799999999997" width="72" height="21" as="geometry" />
        </mxCell>
        <mxCell id="t8eUcsItaZwYu466m45F-115" value="" style="endArrow=classic;html=1;rounded=0;entryX=0.5;entryY=1;entryDx=0;entryDy=0;" parent="1" target="t8eUcsItaZwYu466m45F-108" edge="1">
          <mxGeometry width="50" height="50" relative="1" as="geometry">
            <mxPoint x="729" y="1770" as="sourcePoint" />
            <mxPoint x="879" y="1550" as="targetPoint" />
            <Array as="points">
              <mxPoint x="644" y="1770" />
            </Array>
          </mxGeometry>
        </mxCell>
        <mxCell id="t8eUcsItaZwYu466m45F-116" value="" style="endArrow=classic;html=1;rounded=0;exitX=1;exitY=0.5;exitDx=0;exitDy=0;" parent="1" source="t8eUcsItaZwYu466m45F-108" edge="1">
          <mxGeometry width="50" height="50" relative="1" as="geometry">
            <mxPoint x="829" y="1600" as="sourcePoint" />
            <mxPoint x="759" y="1740" as="targetPoint" />
            <Array as="points">
              <mxPoint x="759" y="1630" />
            </Array>
          </mxGeometry>
        </mxCell>
        <mxCell id="t8eUcsItaZwYu466m45F-117" value="" style="endArrow=classic;html=1;rounded=0;exitX=0;exitY=0.5;exitDx=0;exitDy=0;" parent="1" source="t8eUcsItaZwYu466m45F-107" edge="1">
          <mxGeometry width="50" height="50" relative="1" as="geometry">
            <mxPoint x="829" y="1600" as="sourcePoint" />
            <mxPoint x="799" y="1740" as="targetPoint" />
            <Array as="points">
              <mxPoint x="799" y="1630" />
            </Array>
          </mxGeometry>
        </mxCell>
        <mxCell id="t8eUcsItaZwYu466m45F-118" value="" style="endArrow=classic;html=1;rounded=0;exitX=0.5;exitY=1;exitDx=0;exitDy=0;" parent="1" source="t8eUcsItaZwYu466m45F-106" edge="1">
          <mxGeometry width="50" height="50" relative="1" as="geometry">
            <mxPoint x="829" y="1600" as="sourcePoint" />
            <mxPoint x="829" y="1770" as="targetPoint" />
            <Array as="points">
              <mxPoint x="987" y="1770" />
            </Array>
          </mxGeometry>
        </mxCell>
        <mxCell id="t8eUcsItaZwYu466m45F-119" value="" style="endArrow=classic;html=1;rounded=0;exitX=0.5;exitY=1;exitDx=0;exitDy=0;" parent="1" source="t8eUcsItaZwYu466m45F-109" edge="1">
          <mxGeometry width="50" height="50" relative="1" as="geometry">
            <mxPoint x="829" y="1600" as="sourcePoint" />
            <mxPoint x="769" y="1800" as="targetPoint" />
            <Array as="points">
              <mxPoint x="1115" y="1840" />
              <mxPoint x="769" y="1840" />
            </Array>
          </mxGeometry>
        </mxCell>
        <mxCell id="t8eUcsItaZwYu466m45F-120" value="" style="endArrow=classic;html=1;rounded=0;exitX=0;exitY=0.5;exitDx=0;exitDy=0;entryX=0.5;entryY=0;entryDx=0;entryDy=0;" parent="1" source="t8eUcsItaZwYu466m45F-105" target="t8eUcsItaZwYu466m45F-108" edge="1">
          <mxGeometry width="50" height="50" relative="1" as="geometry">
            <mxPoint x="829" y="1600" as="sourcePoint" />
            <mxPoint x="879" y="1550" as="targetPoint" />
            <Array as="points">
              <mxPoint x="644" y="1490" />
            </Array>
          </mxGeometry>
        </mxCell>
        <mxCell id="t8eUcsItaZwYu466m45F-121" value="" style="endArrow=classic;html=1;rounded=0;exitX=0.5;exitY=1;exitDx=0;exitDy=0;entryX=0.5;entryY=0;entryDx=0;entryDy=0;" parent="1" source="t8eUcsItaZwYu466m45F-105" target="t8eUcsItaZwYu466m45F-107" edge="1">
          <mxGeometry width="50" height="50" relative="1" as="geometry">
            <mxPoint x="829" y="1600" as="sourcePoint" />
            <mxPoint x="879" y="1550" as="targetPoint" />
          </mxGeometry>
        </mxCell>
        <mxCell id="t8eUcsItaZwYu466m45F-123" value="" style="endArrow=classic;html=1;rounded=0;exitX=1;exitY=0.5;exitDx=0;exitDy=0;entryX=0.5;entryY=0;entryDx=0;entryDy=0;" parent="1" source="t8eUcsItaZwYu466m45F-105" target="t8eUcsItaZwYu466m45F-106" edge="1">
          <mxGeometry width="50" height="50" relative="1" as="geometry">
            <mxPoint x="829" y="1600" as="sourcePoint" />
            <mxPoint x="879" y="1550" as="targetPoint" />
            <Array as="points">
              <mxPoint x="989" y="1490" />
            </Array>
          </mxGeometry>
        </mxCell>
        <mxCell id="t8eUcsItaZwYu466m45F-124" value="" style="endArrow=classic;html=1;rounded=0;exitX=0.5;exitY=0;exitDx=0;exitDy=0;entryX=0.5;entryY=0;entryDx=0;entryDy=0;" parent="1" source="t8eUcsItaZwYu466m45F-109" target="t8eUcsItaZwYu466m45F-105" edge="1">
          <mxGeometry width="50" height="50" relative="1" as="geometry">
            <mxPoint x="829" y="1600" as="sourcePoint" />
            <mxPoint x="879" y="1550" as="targetPoint" />
            <Array as="points">
              <mxPoint x="1115" y="1430" />
              <mxPoint x="867" y="1430" />
            </Array>
          </mxGeometry>
        </mxCell>
        <mxCell id="t8eUcsItaZwYu466m45F-125" value="Użytkownik" style="text;html=1;align=center;verticalAlign=middle;whiteSpace=wrap;rounded=0;" parent="1" vertex="1">
          <mxGeometry x="923" y="1814" width="60" height="30" as="geometry" />
        </mxCell>
        <mxCell id="t8eUcsItaZwYu466m45F-126" value="Użytkownik" style="text;html=1;align=center;verticalAlign=middle;whiteSpace=wrap;rounded=0;" parent="1" vertex="1">
          <mxGeometry x="880" y="1742" width="60" height="30" as="geometry" />
        </mxCell>
        <mxCell id="t8eUcsItaZwYu466m45F-127" value="Użytkownik" style="text;html=1;align=center;verticalAlign=middle;whiteSpace=wrap;rounded=0;" parent="1" vertex="1">
          <mxGeometry x="804" y="1674" width="60" height="30" as="geometry" />
        </mxCell>
        <mxCell id="t8eUcsItaZwYu466m45F-128" value="Użytkownik" style="text;html=1;align=center;verticalAlign=middle;whiteSpace=wrap;rounded=0;" parent="1" vertex="1">
          <mxGeometry x="648" y="1709" width="60" height="30" as="geometry" />
        </mxCell>
        <mxCell id="t8eUcsItaZwYu466m45F-129" value="id_użytkownika" style="text;html=1;align=center;verticalAlign=middle;whiteSpace=wrap;rounded=0;" parent="1" vertex="1">
          <mxGeometry x="712" y="1460" width="60" height="30" as="geometry" />
        </mxCell>
        <mxCell id="t8eUcsItaZwYu466m45F-131" value="id_użytkownika" style="text;html=1;align=center;verticalAlign=middle;whiteSpace=wrap;rounded=0;" parent="1" vertex="1">
          <mxGeometry x="986" y="1403" width="60" height="30" as="geometry" />
        </mxCell>
        <mxCell id="t8eUcsItaZwYu466m45F-132" value="id_użytkownika" style="text;html=1;align=center;verticalAlign=middle;whiteSpace=wrap;rounded=0;" parent="1" vertex="1">
          <mxGeometry x="1004.5" y="1510" width="60" height="30" as="geometry" />
        </mxCell>
        <mxCell id="t8eUcsItaZwYu466m45F-133" value="id_użytkownika" style="text;html=1;align=center;verticalAlign=middle;whiteSpace=wrap;rounded=0;" parent="1" vertex="1">
          <mxGeometry x="698" y="1603" width="60" height="30" as="geometry" />
        </mxCell>
        <mxCell id="t8eUcsItaZwYu466m45F-135" value="Administrator" style="rounded=0;whiteSpace=wrap;html=1;" parent="1" vertex="1">
          <mxGeometry x="794.5" y="2001" width="120" height="60" as="geometry" />
        </mxCell>
        <mxCell id="t8eUcsItaZwYu466m45F-136" value="2.1 Dodaj użytkownika" style="ellipse;whiteSpace=wrap;html=1;aspect=fixed;" parent="1" vertex="1">
          <mxGeometry x="716" y="2147" width="80" height="80" as="geometry" />
        </mxCell>
        <mxCell id="t8eUcsItaZwYu466m45F-137" value="2.2 Usuń użytkownika" style="ellipse;whiteSpace=wrap;html=1;aspect=fixed;" parent="1" vertex="1">
          <mxGeometry x="530" y="2147" width="80" height="80" as="geometry" />
        </mxCell>
        <mxCell id="t8eUcsItaZwYu466m45F-138" value="2.3 Dodaj restauracje" style="ellipse;whiteSpace=wrap;html=1;aspect=fixed;" parent="1" vertex="1">
          <mxGeometry x="918" y="2147" width="80" height="80" as="geometry" />
        </mxCell>
        <mxCell id="t8eUcsItaZwYu466m45F-139" value="2.4 Usuń restauracje" style="ellipse;whiteSpace=wrap;html=1;aspect=fixed;" parent="1" vertex="1">
          <mxGeometry x="1110" y="2147" width="80" height="80" as="geometry" />
        </mxCell>
        <mxCell id="t8eUcsItaZwYu466m45F-140" value="" style="endArrow=none;html=1;rounded=0;" parent="1" edge="1">
          <mxGeometry width="50" height="50" relative="1" as="geometry">
            <mxPoint x="614.5" y="2295" as="sourcePoint" />
            <mxPoint x="710.5" y="2295" as="targetPoint" />
          </mxGeometry>
        </mxCell>
        <mxCell id="t8eUcsItaZwYu466m45F-141" value="" style="endArrow=none;html=1;rounded=0;" parent="1" edge="1">
          <mxGeometry width="50" height="50" relative="1" as="geometry">
            <mxPoint x="614.5" y="2304.83" as="sourcePoint" />
            <mxPoint x="710.5" y="2305" as="targetPoint" />
          </mxGeometry>
        </mxCell>
        <mxCell id="t8eUcsItaZwYu466m45F-142" value="" style="endArrow=none;html=1;rounded=0;" parent="1" edge="1">
          <mxGeometry width="50" height="50" relative="1" as="geometry">
            <mxPoint x="614.5" y="2334.77" as="sourcePoint" />
            <mxPoint x="710.5" y="2334.77" as="targetPoint" />
          </mxGeometry>
        </mxCell>
        <mxCell id="t8eUcsItaZwYu466m45F-143" value="" style="endArrow=none;html=1;rounded=0;" parent="1" edge="1">
          <mxGeometry width="50" height="50" relative="1" as="geometry">
            <mxPoint x="614.5" y="2344.6000000000004" as="sourcePoint" />
            <mxPoint x="710.5" y="2344.77" as="targetPoint" />
          </mxGeometry>
        </mxCell>
        <mxCell id="t8eUcsItaZwYu466m45F-144" value="&lt;span style=&quot;color: rgb(0, 0, 0); font-family: Helvetica; font-size: 12px; font-style: normal; font-variant-ligatures: normal; font-variant-caps: normal; font-weight: 400; letter-spacing: normal; orphans: 2; text-align: center; text-indent: 0px; text-transform: none; widows: 2; word-spacing: 0px; -webkit-text-stroke-width: 0px; white-space: normal; background-color: rgb(251, 251, 251); text-decoration-thickness: initial; text-decoration-style: initial; text-decoration-color: initial; display: inline !important; float: none;&quot;&gt;Użytkownicy&lt;/span&gt;" style="text;whiteSpace=wrap;html=1;" parent="1" vertex="1">
          <mxGeometry x="626.5" y="2304.7799999999997" width="72" height="21" as="geometry" />
        </mxCell>
        <mxCell id="t8eUcsItaZwYu466m45F-145" value="" style="endArrow=none;html=1;rounded=0;" parent="1" edge="1">
          <mxGeometry width="50" height="50" relative="1" as="geometry">
            <mxPoint x="1002" y="2290.03" as="sourcePoint" />
            <mxPoint x="1098" y="2290.03" as="targetPoint" />
          </mxGeometry>
        </mxCell>
        <mxCell id="t8eUcsItaZwYu466m45F-146" value="" style="endArrow=none;html=1;rounded=0;" parent="1" edge="1">
          <mxGeometry width="50" height="50" relative="1" as="geometry">
            <mxPoint x="1002" y="2299.86" as="sourcePoint" />
            <mxPoint x="1098" y="2300.03" as="targetPoint" />
          </mxGeometry>
        </mxCell>
        <mxCell id="t8eUcsItaZwYu466m45F-147" value="" style="endArrow=none;html=1;rounded=0;" parent="1" edge="1">
          <mxGeometry width="50" height="50" relative="1" as="geometry">
            <mxPoint x="1002" y="2329.8" as="sourcePoint" />
            <mxPoint x="1098" y="2329.8" as="targetPoint" />
          </mxGeometry>
        </mxCell>
        <mxCell id="t8eUcsItaZwYu466m45F-148" value="" style="endArrow=none;html=1;rounded=0;" parent="1" edge="1">
          <mxGeometry width="50" height="50" relative="1" as="geometry">
            <mxPoint x="1002" y="2339.63" as="sourcePoint" />
            <mxPoint x="1098" y="2339.8" as="targetPoint" />
          </mxGeometry>
        </mxCell>
        <mxCell id="t8eUcsItaZwYu466m45F-149" value="&lt;span style=&quot;color: rgb(0, 0, 0); font-family: Helvetica; font-size: 12px; font-style: normal; font-variant-ligatures: normal; font-variant-caps: normal; font-weight: 400; letter-spacing: normal; orphans: 2; text-align: center; text-indent: 0px; text-transform: none; widows: 2; word-spacing: 0px; -webkit-text-stroke-width: 0px; white-space: normal; background-color: rgb(251, 251, 251); text-decoration-thickness: initial; text-decoration-style: initial; text-decoration-color: initial; display: inline !important; float: none;&quot;&gt;Restauracje&lt;/span&gt;" style="text;whiteSpace=wrap;html=1;" parent="1" vertex="1">
          <mxGeometry x="1015.5" y="2302.3" width="66.25" height="36" as="geometry" />
        </mxCell>
        <mxCell id="t8eUcsItaZwYu466m45F-151" value="" style="endArrow=classic;html=1;rounded=0;exitX=0.5;exitY=1;exitDx=0;exitDy=0;" parent="1" source="t8eUcsItaZwYu466m45F-139" edge="1">
          <mxGeometry width="50" height="50" relative="1" as="geometry">
            <mxPoint x="789" y="2347" as="sourcePoint" />
            <mxPoint x="1099" y="2317" as="targetPoint" />
            <Array as="points">
              <mxPoint x="1149" y="2317" />
            </Array>
          </mxGeometry>
        </mxCell>
        <mxCell id="t8eUcsItaZwYu466m45F-152" value="" style="endArrow=classic;html=1;rounded=0;exitX=0.5;exitY=1;exitDx=0;exitDy=0;" parent="1" source="t8eUcsItaZwYu466m45F-138" edge="1">
          <mxGeometry width="50" height="50" relative="1" as="geometry">
            <mxPoint x="789" y="2347" as="sourcePoint" />
            <mxPoint x="999" y="2317" as="targetPoint" />
            <Array as="points">
              <mxPoint x="957" y="2317" />
            </Array>
          </mxGeometry>
        </mxCell>
        <mxCell id="t8eUcsItaZwYu466m45F-153" value="" style="endArrow=classic;html=1;rounded=0;exitX=0.5;exitY=1;exitDx=0;exitDy=0;" parent="1" source="t8eUcsItaZwYu466m45F-136" edge="1">
          <mxGeometry width="50" height="50" relative="1" as="geometry">
            <mxPoint x="829" y="2337" as="sourcePoint" />
            <mxPoint x="709" y="2317" as="targetPoint" />
            <Array as="points">
              <mxPoint x="756" y="2317" />
            </Array>
          </mxGeometry>
        </mxCell>
        <mxCell id="t8eUcsItaZwYu466m45F-154" value="" style="endArrow=classic;html=1;rounded=0;exitX=0.5;exitY=1;exitDx=0;exitDy=0;" parent="1" source="t8eUcsItaZwYu466m45F-137" edge="1">
          <mxGeometry width="50" height="50" relative="1" as="geometry">
            <mxPoint x="829" y="2337" as="sourcePoint" />
            <mxPoint x="609" y="2317" as="targetPoint" />
            <Array as="points">
              <mxPoint x="569" y="2317" />
            </Array>
          </mxGeometry>
        </mxCell>
        <mxCell id="t8eUcsItaZwYu466m45F-157" value="" style="endArrow=classic;html=1;rounded=0;entryX=0.5;entryY=1;entryDx=0;entryDy=0;" parent="1" target="t8eUcsItaZwYu466m45F-135" edge="1">
          <mxGeometry width="50" height="50" relative="1" as="geometry">
            <mxPoint x="855" y="2111" as="sourcePoint" />
            <mxPoint x="879" y="2111" as="targetPoint" />
          </mxGeometry>
        </mxCell>
        <mxCell id="t8eUcsItaZwYu466m45F-158" value="" style="endArrow=classic;html=1;rounded=0;exitX=1;exitY=0.5;exitDx=0;exitDy=0;entryX=0.5;entryY=0;entryDx=0;entryDy=0;" parent="1" source="t8eUcsItaZwYu466m45F-135" target="t8eUcsItaZwYu466m45F-139" edge="1">
          <mxGeometry width="50" height="50" relative="1" as="geometry">
            <mxPoint x="829" y="2161" as="sourcePoint" />
            <mxPoint x="879" y="2111" as="targetPoint" />
            <Array as="points">
              <mxPoint x="1149" y="2031" />
            </Array>
          </mxGeometry>
        </mxCell>
        <mxCell id="t8eUcsItaZwYu466m45F-159" value="" style="endArrow=classic;html=1;rounded=0;exitX=0;exitY=0.5;exitDx=0;exitDy=0;entryX=0.5;entryY=0;entryDx=0;entryDy=0;" parent="1" source="t8eUcsItaZwYu466m45F-135" target="t8eUcsItaZwYu466m45F-137" edge="1">
          <mxGeometry width="50" height="50" relative="1" as="geometry">
            <mxPoint x="829" y="2161" as="sourcePoint" />
            <mxPoint x="879" y="2111" as="targetPoint" />
            <Array as="points">
              <mxPoint x="570" y="2031" />
            </Array>
          </mxGeometry>
        </mxCell>
        <mxCell id="t8eUcsItaZwYu466m45F-160" value="" style="endArrow=classic;startArrow=classic;html=1;rounded=0;exitX=0.5;exitY=0;exitDx=0;exitDy=0;entryX=0.5;entryY=0;entryDx=0;entryDy=0;" parent="1" source="t8eUcsItaZwYu466m45F-136" target="t8eUcsItaZwYu466m45F-138" edge="1">
          <mxGeometry width="50" height="50" relative="1" as="geometry">
            <mxPoint x="829" y="2161" as="sourcePoint" />
            <mxPoint x="879" y="2111" as="targetPoint" />
            <Array as="points">
              <mxPoint x="756" y="2111" />
              <mxPoint x="958" y="2111" />
            </Array>
          </mxGeometry>
        </mxCell>
        <mxCell id="oRTvZJj7xICdUWiJBsy2-1" value="Restauracja" style="rounded=0;whiteSpace=wrap;html=1;" parent="1" vertex="1">
          <mxGeometry x="794.5" y="3580" width="120" height="60" as="geometry" />
        </mxCell>
        <mxCell id="oRTvZJj7xICdUWiJBsy2-2" value="5.3 Wydanie zamówienia do dostareczenia" style="ellipse;whiteSpace=wrap;html=1;aspect=fixed;" parent="1" vertex="1">
          <mxGeometry x="1049" y="3740" width="90" height="90" as="geometry" />
        </mxCell>
        <mxCell id="oRTvZJj7xICdUWiJBsy2-3" value="5.2 Kompletowanie zamówienia" style="ellipse;whiteSpace=wrap;html=1;aspect=fixed;" parent="1" vertex="1">
          <mxGeometry x="809.5" y="3740" width="90" height="90" as="geometry" />
        </mxCell>
        <mxCell id="oRTvZJj7xICdUWiJBsy2-4" value="5.1 Wyświetl listę zamówień" style="ellipse;whiteSpace=wrap;html=1;aspect=fixed;" parent="1" vertex="1">
          <mxGeometry x="593" y="3735" width="85" height="85" as="geometry" />
        </mxCell>
        <mxCell id="oRTvZJj7xICdUWiJBsy2-13" value="" style="endArrow=none;html=1;rounded=0;" parent="1" edge="1">
          <mxGeometry width="50" height="50" relative="1" as="geometry">
            <mxPoint x="587" y="3910" as="sourcePoint" />
            <mxPoint x="683" y="3910" as="targetPoint" />
          </mxGeometry>
        </mxCell>
        <mxCell id="oRTvZJj7xICdUWiJBsy2-14" value="" style="endArrow=none;html=1;rounded=0;" parent="1" edge="1">
          <mxGeometry width="50" height="50" relative="1" as="geometry">
            <mxPoint x="587" y="3919.83" as="sourcePoint" />
            <mxPoint x="683" y="3920" as="targetPoint" />
          </mxGeometry>
        </mxCell>
        <mxCell id="oRTvZJj7xICdUWiJBsy2-15" value="" style="endArrow=none;html=1;rounded=0;" parent="1" edge="1">
          <mxGeometry width="50" height="50" relative="1" as="geometry">
            <mxPoint x="587" y="3949.7700000000004" as="sourcePoint" />
            <mxPoint x="683" y="3949.7700000000004" as="targetPoint" />
          </mxGeometry>
        </mxCell>
        <mxCell id="oRTvZJj7xICdUWiJBsy2-16" value="" style="endArrow=none;html=1;rounded=0;" parent="1" edge="1">
          <mxGeometry width="50" height="50" relative="1" as="geometry">
            <mxPoint x="587" y="3959.6000000000004" as="sourcePoint" />
            <mxPoint x="683" y="3959.7700000000004" as="targetPoint" />
          </mxGeometry>
        </mxCell>
        <mxCell id="oRTvZJj7xICdUWiJBsy2-17" value="&lt;span style=&quot;color: rgb(0, 0, 0); font-family: Helvetica; font-size: 12px; font-style: normal; font-variant-ligatures: normal; font-variant-caps: normal; font-weight: 400; letter-spacing: normal; orphans: 2; text-align: center; text-indent: 0px; text-transform: none; widows: 2; word-spacing: 0px; -webkit-text-stroke-width: 0px; white-space: normal; background-color: rgb(251, 251, 251); text-decoration-thickness: initial; text-decoration-style: initial; text-decoration-color: initial; display: inline !important; float: none;&quot;&gt;Zamówienia&amp;nbsp;&lt;/span&gt;" style="text;whiteSpace=wrap;html=1;" parent="1" vertex="1">
          <mxGeometry x="598" y="3921.2700000000004" width="67" height="36" as="geometry" />
        </mxCell>
        <mxCell id="oRTvZJj7xICdUWiJBsy2-18" value="id_użytkownika" style="text;html=1;align=center;verticalAlign=middle;whiteSpace=wrap;rounded=0;" parent="1" vertex="1">
          <mxGeometry x="649" y="2003" width="60" height="30" as="geometry" />
        </mxCell>
        <mxCell id="oRTvZJj7xICdUWiJBsy2-19" value="id_użytkownika" style="text;html=1;align=center;verticalAlign=middle;whiteSpace=wrap;rounded=0;" parent="1" vertex="1">
          <mxGeometry x="587" y="2251" width="60" height="30" as="geometry" />
        </mxCell>
        <mxCell id="oRTvZJj7xICdUWiJBsy2-20" value="id_restauracji" style="text;html=1;align=center;verticalAlign=middle;whiteSpace=wrap;rounded=0;" parent="1" vertex="1">
          <mxGeometry x="1014.6300000000001" y="2004" width="60" height="30" as="geometry" />
        </mxCell>
        <mxCell id="oRTvZJj7xICdUWiJBsy2-21" value="id_restauracji" style="text;html=1;align=center;verticalAlign=middle;whiteSpace=wrap;rounded=0;" parent="1" vertex="1">
          <mxGeometry x="1081.75" y="2252" width="60" height="30" as="geometry" />
        </mxCell>
        <mxCell id="oRTvZJj7xICdUWiJBsy2-22" value="Dane użytkownika" style="text;html=1;align=center;verticalAlign=middle;whiteSpace=wrap;rounded=0;" parent="1" vertex="1">
          <mxGeometry x="749" y="2085" width="100" height="30" as="geometry" />
        </mxCell>
        <mxCell id="oRTvZJj7xICdUWiJBsy2-23" value="Dane restauracji" style="text;html=1;align=center;verticalAlign=middle;whiteSpace=wrap;rounded=0;" parent="1" vertex="1">
          <mxGeometry x="847" y="2085" width="120" height="30" as="geometry" />
        </mxCell>
        <mxCell id="oRTvZJj7xICdUWiJBsy2-24" value="Restauracja" style="text;html=1;align=center;verticalAlign=middle;whiteSpace=wrap;rounded=0;" parent="1" vertex="1">
          <mxGeometry x="964.5" y="2252" width="60" height="30" as="geometry" />
        </mxCell>
        <mxCell id="oRTvZJj7xICdUWiJBsy2-25" value="Użytkownik" style="text;html=1;align=center;verticalAlign=middle;whiteSpace=wrap;rounded=0;" parent="1" vertex="1">
          <mxGeometry x="689" y="2251" width="60" height="30" as="geometry" />
        </mxCell>
        <mxCell id="oRTvZJj7xICdUWiJBsy2-27" value="" style="endArrow=classic;html=1;rounded=0;entryX=0;entryY=0.5;entryDx=0;entryDy=0;" parent="1" target="oRTvZJj7xICdUWiJBsy2-3" edge="1">
          <mxGeometry width="50" height="50" relative="1" as="geometry">
            <mxPoint x="685" y="3930" as="sourcePoint" />
            <mxPoint x="915" y="3750" as="targetPoint" />
            <Array as="points">
              <mxPoint x="760" y="3930" />
              <mxPoint x="760" y="3785" />
            </Array>
          </mxGeometry>
        </mxCell>
        <mxCell id="oRTvZJj7xICdUWiJBsy2-29" value="" style="endArrow=classic;html=1;rounded=0;entryX=0.5;entryY=1;entryDx=0;entryDy=0;" parent="1" target="oRTvZJj7xICdUWiJBsy2-4" edge="1">
          <mxGeometry width="50" height="50" relative="1" as="geometry">
            <mxPoint x="635" y="3910" as="sourcePoint" />
            <mxPoint x="915" y="3750" as="targetPoint" />
          </mxGeometry>
        </mxCell>
        <mxCell id="oRTvZJj7xICdUWiJBsy2-30" value="" style="endArrow=classic;html=1;rounded=0;exitX=0;exitY=0.5;exitDx=0;exitDy=0;entryX=0.5;entryY=0;entryDx=0;entryDy=0;" parent="1" source="oRTvZJj7xICdUWiJBsy2-1" target="oRTvZJj7xICdUWiJBsy2-4" edge="1">
          <mxGeometry width="50" height="50" relative="1" as="geometry">
            <mxPoint x="865" y="3800" as="sourcePoint" />
            <mxPoint x="915" y="3750" as="targetPoint" />
            <Array as="points">
              <mxPoint x="635" y="3610" />
            </Array>
          </mxGeometry>
        </mxCell>
        <mxCell id="oRTvZJj7xICdUWiJBsy2-31" value="" style="endArrow=classic;html=1;rounded=0;exitX=0.5;exitY=1;exitDx=0;exitDy=0;entryX=0.5;entryY=0;entryDx=0;entryDy=0;" parent="1" source="oRTvZJj7xICdUWiJBsy2-1" target="oRTvZJj7xICdUWiJBsy2-3" edge="1">
          <mxGeometry width="50" height="50" relative="1" as="geometry">
            <mxPoint x="865" y="3800" as="sourcePoint" />
            <mxPoint x="915" y="3750" as="targetPoint" />
          </mxGeometry>
        </mxCell>
        <mxCell id="oRTvZJj7xICdUWiJBsy2-32" value="" style="endArrow=classic;html=1;rounded=0;exitX=1;exitY=0.5;exitDx=0;exitDy=0;entryX=0.5;entryY=0;entryDx=0;entryDy=0;" parent="1" source="oRTvZJj7xICdUWiJBsy2-1" target="oRTvZJj7xICdUWiJBsy2-2" edge="1">
          <mxGeometry width="50" height="50" relative="1" as="geometry">
            <mxPoint x="865" y="3800" as="sourcePoint" />
            <mxPoint x="915" y="3750" as="targetPoint" />
            <Array as="points">
              <mxPoint x="1094" y="3610" />
            </Array>
          </mxGeometry>
        </mxCell>
        <mxCell id="oRTvZJj7xICdUWiJBsy2-33" value="Zamówienia" style="text;html=1;align=center;verticalAlign=middle;whiteSpace=wrap;rounded=0;" parent="1" vertex="1">
          <mxGeometry x="570" y="3855" width="60" height="30" as="geometry" />
        </mxCell>
        <mxCell id="oRTvZJj7xICdUWiJBsy2-34" value="Zamówienie" style="text;html=1;align=center;verticalAlign=middle;whiteSpace=wrap;rounded=0;" parent="1" vertex="1">
          <mxGeometry x="692" y="3842" width="60" height="30" as="geometry" />
        </mxCell>
        <mxCell id="oRTvZJj7xICdUWiJBsy2-35" value="Zamówienie" style="text;html=1;align=center;verticalAlign=middle;whiteSpace=wrap;rounded=0;" parent="1" vertex="1">
          <mxGeometry x="1034" y="3835" width="60" height="30" as="geometry" />
        </mxCell>
        <mxCell id="oRTvZJj7xICdUWiJBsy2-36" value="id_zamówienia" style="text;html=1;align=center;verticalAlign=middle;whiteSpace=wrap;rounded=0;" parent="1" vertex="1">
          <mxGeometry x="783" y="3680" width="60" height="30" as="geometry" />
        </mxCell>
        <mxCell id="oRTvZJj7xICdUWiJBsy2-37" value="id_zamówienia&lt;div&gt;stan_zamówienia&lt;/div&gt;" style="text;html=1;align=center;verticalAlign=middle;whiteSpace=wrap;rounded=0;" parent="1" vertex="1">
          <mxGeometry x="960.5" y="3620" width="60" height="30" as="geometry" />
        </mxCell>
        <mxCell id="oRTvZJj7xICdUWiJBsy2-38" value="id_restauracji" style="text;html=1;align=center;verticalAlign=middle;whiteSpace=wrap;rounded=0;" parent="1" vertex="1">
          <mxGeometry x="685" y="3610" width="60" height="30" as="geometry" />
        </mxCell>
        <mxCell id="XR5SNI3g1OD4vw3caPpb-2" value="Restauracja" style="rounded=0;whiteSpace=wrap;html=1;" parent="1" vertex="1">
          <mxGeometry x="741" y="2500" width="120" height="60" as="geometry" />
        </mxCell>
        <mxCell id="XR5SNI3g1OD4vw3caPpb-3" value="Administrator" style="rounded=0;whiteSpace=wrap;html=1;" parent="1" vertex="1">
          <mxGeometry x="1150" y="2500" width="120" height="60" as="geometry" />
        </mxCell>
        <mxCell id="XR5SNI3g1OD4vw3caPpb-4" value="3.4 Edycja potrawy" style="ellipse;whiteSpace=wrap;html=1;aspect=fixed;" parent="1" vertex="1">
          <mxGeometry x="831.5" y="2660" width="80" height="80" as="geometry" />
        </mxCell>
        <mxCell id="XR5SNI3g1OD4vw3caPpb-5" value="3.1 Edycja informacji o restauracji" style="ellipse;whiteSpace=wrap;html=1;aspect=fixed;" parent="1" vertex="1">
          <mxGeometry x="975" y="2660" width="80" height="80" as="geometry" />
        </mxCell>
        <mxCell id="XR5SNI3g1OD4vw3caPpb-6" value="3.3 Usuwanie potrawy" style="ellipse;whiteSpace=wrap;html=1;aspect=fixed;" parent="1" vertex="1">
          <mxGeometry x="661" y="2660" width="80" height="80" as="geometry" />
        </mxCell>
        <mxCell id="XR5SNI3g1OD4vw3caPpb-7" value="3.2 Dodawanie potrawy" style="ellipse;whiteSpace=wrap;html=1;aspect=fixed;" parent="1" vertex="1">
          <mxGeometry x="490" y="2660" width="80" height="80" as="geometry" />
        </mxCell>
        <mxCell id="XR5SNI3g1OD4vw3caPpb-8" value="" style="endArrow=none;html=1;rounded=0;" parent="1" edge="1">
          <mxGeometry width="50" height="50" relative="1" as="geometry">
            <mxPoint x="593" y="2854.9699999999993" as="sourcePoint" />
            <mxPoint x="689" y="2854.9699999999993" as="targetPoint" />
          </mxGeometry>
        </mxCell>
        <mxCell id="XR5SNI3g1OD4vw3caPpb-9" value="" style="endArrow=none;html=1;rounded=0;" parent="1" edge="1">
          <mxGeometry width="50" height="50" relative="1" as="geometry">
            <mxPoint x="593" y="2864.7999999999993" as="sourcePoint" />
            <mxPoint x="689" y="2864.9699999999993" as="targetPoint" />
          </mxGeometry>
        </mxCell>
        <mxCell id="XR5SNI3g1OD4vw3caPpb-10" value="" style="endArrow=none;html=1;rounded=0;" parent="1" edge="1">
          <mxGeometry width="50" height="50" relative="1" as="geometry">
            <mxPoint x="593" y="2894.74" as="sourcePoint" />
            <mxPoint x="689" y="2894.74" as="targetPoint" />
          </mxGeometry>
        </mxCell>
        <mxCell id="XR5SNI3g1OD4vw3caPpb-11" value="" style="endArrow=none;html=1;rounded=0;" parent="1" edge="1">
          <mxGeometry width="50" height="50" relative="1" as="geometry">
            <mxPoint x="593" y="2904.5699999999997" as="sourcePoint" />
            <mxPoint x="689" y="2904.74" as="targetPoint" />
          </mxGeometry>
        </mxCell>
        <mxCell id="XR5SNI3g1OD4vw3caPpb-12" value="&lt;span style=&quot;color: rgb(0, 0, 0); font-family: Helvetica; font-size: 12px; font-style: normal; font-variant-ligatures: normal; font-variant-caps: normal; font-weight: 400; letter-spacing: normal; orphans: 2; text-align: center; text-indent: 0px; text-transform: none; widows: 2; word-spacing: 0px; -webkit-text-stroke-width: 0px; white-space: normal; background-color: rgb(251, 251, 251); text-decoration-thickness: initial; text-decoration-style: initial; text-decoration-color: initial; display: inline !important; float: none;&quot;&gt;Potrawy&lt;/span&gt;" style="text;whiteSpace=wrap;html=1;" parent="1" vertex="1">
          <mxGeometry x="605" y="2866.9699999999993" width="61" height="36" as="geometry" />
        </mxCell>
        <mxCell id="XR5SNI3g1OD4vw3caPpb-13" value="" style="endArrow=none;html=1;rounded=0;" parent="1" edge="1">
          <mxGeometry width="50" height="50" relative="1" as="geometry">
            <mxPoint x="969" y="2850" as="sourcePoint" />
            <mxPoint x="1065" y="2850" as="targetPoint" />
          </mxGeometry>
        </mxCell>
        <mxCell id="XR5SNI3g1OD4vw3caPpb-14" value="" style="endArrow=none;html=1;rounded=0;" parent="1" edge="1">
          <mxGeometry width="50" height="50" relative="1" as="geometry">
            <mxPoint x="969" y="2859.83" as="sourcePoint" />
            <mxPoint x="1065" y="2860" as="targetPoint" />
          </mxGeometry>
        </mxCell>
        <mxCell id="XR5SNI3g1OD4vw3caPpb-15" value="" style="endArrow=none;html=1;rounded=0;" parent="1" edge="1">
          <mxGeometry width="50" height="50" relative="1" as="geometry">
            <mxPoint x="969" y="2889.7700000000004" as="sourcePoint" />
            <mxPoint x="1065" y="2889.7700000000004" as="targetPoint" />
          </mxGeometry>
        </mxCell>
        <mxCell id="XR5SNI3g1OD4vw3caPpb-16" value="" style="endArrow=none;html=1;rounded=0;" parent="1" edge="1">
          <mxGeometry width="50" height="50" relative="1" as="geometry">
            <mxPoint x="969" y="2899.6000000000004" as="sourcePoint" />
            <mxPoint x="1065" y="2899.7700000000004" as="targetPoint" />
          </mxGeometry>
        </mxCell>
        <mxCell id="XR5SNI3g1OD4vw3caPpb-17" value="&lt;span style=&quot;color: rgb(0, 0, 0); font-family: Helvetica; font-size: 12px; font-style: normal; font-variant-ligatures: normal; font-variant-caps: normal; font-weight: 400; letter-spacing: normal; orphans: 2; text-align: center; text-indent: 0px; text-transform: none; widows: 2; word-spacing: 0px; -webkit-text-stroke-width: 0px; white-space: normal; background-color: rgb(251, 251, 251); text-decoration-thickness: initial; text-decoration-style: initial; text-decoration-color: initial; display: inline !important; float: none;&quot;&gt;Restauracje&lt;/span&gt;" style="text;whiteSpace=wrap;html=1;" parent="1" vertex="1">
          <mxGeometry x="982.5" y="2862.2700000000004" width="66.25" height="36" as="geometry" />
        </mxCell>
        <mxCell id="XR5SNI3g1OD4vw3caPpb-18" value="" style="endArrow=classic;html=1;rounded=0;exitX=0;exitY=0.5;exitDx=0;exitDy=0;entryX=0.5;entryY=0;entryDx=0;entryDy=0;" parent="1" source="XR5SNI3g1OD4vw3caPpb-2" target="XR5SNI3g1OD4vw3caPpb-7" edge="1">
          <mxGeometry width="50" height="50" relative="1" as="geometry">
            <mxPoint x="956" y="2730" as="sourcePoint" />
            <mxPoint x="1006" y="2680" as="targetPoint" />
            <Array as="points">
              <mxPoint x="530" y="2530" />
            </Array>
          </mxGeometry>
        </mxCell>
        <mxCell id="XR5SNI3g1OD4vw3caPpb-19" value="" style="endArrow=classic;html=1;rounded=0;exitX=0.5;exitY=1;exitDx=0;exitDy=0;" parent="1" source="XR5SNI3g1OD4vw3caPpb-7" edge="1">
          <mxGeometry width="50" height="50" relative="1" as="geometry">
            <mxPoint x="956" y="2700" as="sourcePoint" />
            <mxPoint x="596" y="2880" as="targetPoint" />
            <Array as="points">
              <mxPoint x="530" y="2880" />
            </Array>
          </mxGeometry>
        </mxCell>
        <mxCell id="XR5SNI3g1OD4vw3caPpb-20" value="" style="endArrow=classic;html=1;rounded=0;exitX=0.5;exitY=1;exitDx=0;exitDy=0;" parent="1" source="XR5SNI3g1OD4vw3caPpb-6" edge="1">
          <mxGeometry width="50" height="50" relative="1" as="geometry">
            <mxPoint x="956" y="2700" as="sourcePoint" />
            <mxPoint x="646" y="2850" as="targetPoint" />
            <Array as="points">
              <mxPoint x="701" y="2780" />
              <mxPoint x="646" y="2780" />
            </Array>
          </mxGeometry>
        </mxCell>
        <mxCell id="XR5SNI3g1OD4vw3caPpb-21" value="" style="endArrow=classic;startArrow=classic;html=1;rounded=0;entryX=0.5;entryY=1;entryDx=0;entryDy=0;" parent="1" target="XR5SNI3g1OD4vw3caPpb-4" edge="1">
          <mxGeometry width="50" height="50" relative="1" as="geometry">
            <mxPoint x="686" y="2880" as="sourcePoint" />
            <mxPoint x="1006" y="2650" as="targetPoint" />
            <Array as="points">
              <mxPoint x="872" y="2880" />
            </Array>
          </mxGeometry>
        </mxCell>
        <mxCell id="XR5SNI3g1OD4vw3caPpb-22" value="" style="endArrow=classic;startArrow=classic;html=1;rounded=0;exitX=0.5;exitY=1;exitDx=0;exitDy=0;" parent="1" source="XR5SNI3g1OD4vw3caPpb-5" edge="1">
          <mxGeometry width="50" height="50" relative="1" as="geometry">
            <mxPoint x="926" y="2700" as="sourcePoint" />
            <mxPoint x="1015" y="2850" as="targetPoint" />
          </mxGeometry>
        </mxCell>
        <mxCell id="XR5SNI3g1OD4vw3caPpb-23" value="" style="endArrow=classic;html=1;rounded=0;exitX=0;exitY=0.5;exitDx=0;exitDy=0;entryX=1;entryY=0.5;entryDx=0;entryDy=0;" parent="1" source="XR5SNI3g1OD4vw3caPpb-3" target="XR5SNI3g1OD4vw3caPpb-2" edge="1">
          <mxGeometry width="50" height="50" relative="1" as="geometry">
            <mxPoint x="956" y="2700" as="sourcePoint" />
            <mxPoint x="1006" y="2650" as="targetPoint" />
          </mxGeometry>
        </mxCell>
        <mxCell id="XR5SNI3g1OD4vw3caPpb-24" value="" style="endArrow=classic;html=1;rounded=0;" parent="1" edge="1">
          <mxGeometry width="50" height="50" relative="1" as="geometry">
            <mxPoint x="1016" y="2530" as="sourcePoint" />
            <mxPoint x="1016" y="2660" as="targetPoint" />
          </mxGeometry>
        </mxCell>
        <mxCell id="XR5SNI3g1OD4vw3caPpb-25" value="" style="endArrow=classic;html=1;rounded=0;exitX=0.75;exitY=1;exitDx=0;exitDy=0;entryX=0.5;entryY=0;entryDx=0;entryDy=0;" parent="1" source="XR5SNI3g1OD4vw3caPpb-2" target="XR5SNI3g1OD4vw3caPpb-4" edge="1">
          <mxGeometry width="50" height="50" relative="1" as="geometry">
            <mxPoint x="909" y="2700" as="sourcePoint" />
            <mxPoint x="959" y="2650" as="targetPoint" />
            <Array as="points">
              <mxPoint x="831" y="2610" />
              <mxPoint x="872" y="2610" />
            </Array>
          </mxGeometry>
        </mxCell>
        <mxCell id="XR5SNI3g1OD4vw3caPpb-26" value="" style="endArrow=classic;html=1;rounded=0;exitX=0.5;exitY=0;exitDx=0;exitDy=0;entryX=0.25;entryY=1;entryDx=0;entryDy=0;" parent="1" source="XR5SNI3g1OD4vw3caPpb-6" target="XR5SNI3g1OD4vw3caPpb-2" edge="1">
          <mxGeometry width="50" height="50" relative="1" as="geometry">
            <mxPoint x="909" y="2700" as="sourcePoint" />
            <mxPoint x="959" y="2650" as="targetPoint" />
            <Array as="points">
              <mxPoint x="701" y="2620" />
              <mxPoint x="771" y="2620" />
            </Array>
          </mxGeometry>
        </mxCell>
        <mxCell id="XR5SNI3g1OD4vw3caPpb-27" value="Informacje o potrawie/ odpowiedź" style="text;html=1;align=center;verticalAlign=middle;whiteSpace=wrap;rounded=0;" parent="1" vertex="1">
          <mxGeometry x="534" y="2502" width="200" height="30" as="geometry" />
        </mxCell>
        <mxCell id="XR5SNI3g1OD4vw3caPpb-28" value="Informacje o restauracji/ odpowiedź" style="text;html=1;align=center;verticalAlign=middle;whiteSpace=wrap;rounded=0;" parent="1" vertex="1">
          <mxGeometry x="915.63" y="2503" width="200" height="30" as="geometry" />
        </mxCell>
        <mxCell id="XR5SNI3g1OD4vw3caPpb-29" value="Informacje o potrawie/&lt;div&gt;odpowiedź&lt;/div&gt;" style="text;html=1;align=center;verticalAlign=middle;whiteSpace=wrap;rounded=0;" parent="1" vertex="1">
          <mxGeometry x="835" y="2572" width="121" height="30" as="geometry" />
        </mxCell>
        <mxCell id="XR5SNI3g1OD4vw3caPpb-30" value="id_potrawy/ odpowiedź" style="text;html=1;align=center;verticalAlign=middle;whiteSpace=wrap;rounded=0;" parent="1" vertex="1">
          <mxGeometry x="702" y="2584" width="60" height="30" as="geometry" />
        </mxCell>
        <mxCell id="XR5SNI3g1OD4vw3caPpb-31" value="Restauracje" style="text;html=1;align=center;verticalAlign=middle;whiteSpace=wrap;rounded=0;" parent="1" vertex="1">
          <mxGeometry x="1025.5" y="2780" width="60" height="30" as="geometry" />
        </mxCell>
        <mxCell id="XR5SNI3g1OD4vw3caPpb-32" value="Potrawa" style="text;html=1;align=center;verticalAlign=middle;whiteSpace=wrap;rounded=0;" parent="1" vertex="1">
          <mxGeometry x="756" y="2853" width="60" height="30" as="geometry" />
        </mxCell>
        <mxCell id="XR5SNI3g1OD4vw3caPpb-33" value="id_potrawy" style="text;html=1;align=center;verticalAlign=middle;whiteSpace=wrap;rounded=0;" parent="1" vertex="1">
          <mxGeometry x="637" y="2751" width="60" height="30" as="geometry" />
        </mxCell>
        <mxCell id="XR5SNI3g1OD4vw3caPpb-34" value="Potrawa" style="text;html=1;align=center;verticalAlign=middle;whiteSpace=wrap;rounded=0;" parent="1" vertex="1">
          <mxGeometry x="534" y="2793" width="60" height="30" as="geometry" />
        </mxCell>
        <mxCell id="XR5SNI3g1OD4vw3caPpb-36" value="Klient" style="rounded=0;whiteSpace=wrap;html=1;" parent="1" vertex="1">
          <mxGeometry x="882" y="3040" width="120" height="60" as="geometry" />
        </mxCell>
        <mxCell id="XR5SNI3g1OD4vw3caPpb-37" value="4.1 Dodaj do koszyka" style="ellipse;whiteSpace=wrap;html=1;aspect=fixed;" parent="1" vertex="1">
          <mxGeometry x="749" y="3150" width="80" height="80" as="geometry" />
        </mxCell>
        <mxCell id="XR5SNI3g1OD4vw3caPpb-38" value="4.3 Złóż zamówienie" style="ellipse;whiteSpace=wrap;html=1;aspect=fixed;" parent="1" vertex="1">
          <mxGeometry x="1060.63" y="3150" width="80" height="80" as="geometry" />
        </mxCell>
        <mxCell id="XR5SNI3g1OD4vw3caPpb-39" value="4.2 Usuń z koszyka" style="ellipse;whiteSpace=wrap;html=1;aspect=fixed;" parent="1" vertex="1">
          <mxGeometry x="901" y="3150" width="80" height="80" as="geometry" />
        </mxCell>
        <mxCell id="XR5SNI3g1OD4vw3caPpb-40" value="" style="endArrow=none;html=1;rounded=0;" parent="1" edge="1">
          <mxGeometry width="50" height="50" relative="1" as="geometry">
            <mxPoint x="560" y="3099.3999999999996" as="sourcePoint" />
            <mxPoint x="656" y="3099.3999999999996" as="targetPoint" />
          </mxGeometry>
        </mxCell>
        <mxCell id="XR5SNI3g1OD4vw3caPpb-41" value="" style="endArrow=none;html=1;rounded=0;" parent="1" edge="1">
          <mxGeometry width="50" height="50" relative="1" as="geometry">
            <mxPoint x="560" y="3109.2299999999996" as="sourcePoint" />
            <mxPoint x="656" y="3109.3999999999996" as="targetPoint" />
          </mxGeometry>
        </mxCell>
        <mxCell id="XR5SNI3g1OD4vw3caPpb-42" value="" style="endArrow=none;html=1;rounded=0;" parent="1" edge="1">
          <mxGeometry width="50" height="50" relative="1" as="geometry">
            <mxPoint x="560" y="3139.17" as="sourcePoint" />
            <mxPoint x="656" y="3139.17" as="targetPoint" />
          </mxGeometry>
        </mxCell>
        <mxCell id="XR5SNI3g1OD4vw3caPpb-43" value="" style="endArrow=none;html=1;rounded=0;" parent="1" edge="1">
          <mxGeometry width="50" height="50" relative="1" as="geometry">
            <mxPoint x="560" y="3149" as="sourcePoint" />
            <mxPoint x="656" y="3149.17" as="targetPoint" />
          </mxGeometry>
        </mxCell>
        <mxCell id="XR5SNI3g1OD4vw3caPpb-44" value="&lt;span style=&quot;color: rgb(0, 0, 0); font-family: Helvetica; font-size: 12px; font-style: normal; font-variant-ligatures: normal; font-variant-caps: normal; font-weight: 400; letter-spacing: normal; orphans: 2; text-align: center; text-indent: 0px; text-transform: none; widows: 2; word-spacing: 0px; -webkit-text-stroke-width: 0px; white-space: normal; background-color: rgb(251, 251, 251); text-decoration-thickness: initial; text-decoration-style: initial; text-decoration-color: initial; display: inline !important; float: none;&quot;&gt;Restauracje&lt;/span&gt;" style="text;whiteSpace=wrap;html=1;" parent="1" vertex="1">
          <mxGeometry x="573.5" y="3111.67" width="66.25" height="36" as="geometry" />
        </mxCell>
        <mxCell id="XR5SNI3g1OD4vw3caPpb-45" value="" style="endArrow=none;html=1;rounded=0;" parent="1" edge="1">
          <mxGeometry width="50" height="50" relative="1" as="geometry">
            <mxPoint x="564" y="3234" as="sourcePoint" />
            <mxPoint x="660" y="3234" as="targetPoint" />
          </mxGeometry>
        </mxCell>
        <mxCell id="XR5SNI3g1OD4vw3caPpb-46" value="" style="endArrow=none;html=1;rounded=0;" parent="1" edge="1">
          <mxGeometry width="50" height="50" relative="1" as="geometry">
            <mxPoint x="564" y="3243.83" as="sourcePoint" />
            <mxPoint x="660" y="3244" as="targetPoint" />
          </mxGeometry>
        </mxCell>
        <mxCell id="XR5SNI3g1OD4vw3caPpb-47" value="" style="endArrow=none;html=1;rounded=0;" parent="1" edge="1">
          <mxGeometry width="50" height="50" relative="1" as="geometry">
            <mxPoint x="564" y="3273.7699999999995" as="sourcePoint" />
            <mxPoint x="660" y="3273.7699999999995" as="targetPoint" />
          </mxGeometry>
        </mxCell>
        <mxCell id="XR5SNI3g1OD4vw3caPpb-48" value="" style="endArrow=none;html=1;rounded=0;" parent="1" edge="1">
          <mxGeometry width="50" height="50" relative="1" as="geometry">
            <mxPoint x="564" y="3283.6000000000004" as="sourcePoint" />
            <mxPoint x="660" y="3283.7699999999995" as="targetPoint" />
          </mxGeometry>
        </mxCell>
        <mxCell id="XR5SNI3g1OD4vw3caPpb-49" value="&lt;span style=&quot;color: rgb(0, 0, 0); font-family: Helvetica; font-size: 12px; font-style: normal; font-variant-ligatures: normal; font-variant-caps: normal; font-weight: 400; letter-spacing: normal; orphans: 2; text-align: center; text-indent: 0px; text-transform: none; widows: 2; word-spacing: 0px; -webkit-text-stroke-width: 0px; white-space: normal; background-color: rgb(251, 251, 251); text-decoration-thickness: initial; text-decoration-style: initial; text-decoration-color: initial; display: inline !important; float: none;&quot;&gt;Potrawy&lt;/span&gt;" style="text;whiteSpace=wrap;html=1;" parent="1" vertex="1">
          <mxGeometry x="576" y="3246" width="59" height="36" as="geometry" />
        </mxCell>
        <mxCell id="XR5SNI3g1OD4vw3caPpb-55" value="" style="endArrow=none;html=1;rounded=0;" parent="1" edge="1">
          <mxGeometry width="50" height="50" relative="1" as="geometry">
            <mxPoint x="743" y="3360" as="sourcePoint" />
            <mxPoint x="839" y="3360" as="targetPoint" />
          </mxGeometry>
        </mxCell>
        <mxCell id="XR5SNI3g1OD4vw3caPpb-56" value="" style="endArrow=none;html=1;rounded=0;" parent="1" edge="1">
          <mxGeometry width="50" height="50" relative="1" as="geometry">
            <mxPoint x="743" y="3369.83" as="sourcePoint" />
            <mxPoint x="839" y="3370" as="targetPoint" />
          </mxGeometry>
        </mxCell>
        <mxCell id="XR5SNI3g1OD4vw3caPpb-57" value="" style="endArrow=none;html=1;rounded=0;" parent="1" edge="1">
          <mxGeometry width="50" height="50" relative="1" as="geometry">
            <mxPoint x="743" y="3399.7700000000004" as="sourcePoint" />
            <mxPoint x="839" y="3399.7700000000004" as="targetPoint" />
          </mxGeometry>
        </mxCell>
        <mxCell id="XR5SNI3g1OD4vw3caPpb-58" value="" style="endArrow=none;html=1;rounded=0;" parent="1" edge="1">
          <mxGeometry width="50" height="50" relative="1" as="geometry">
            <mxPoint x="743" y="3409.6000000000004" as="sourcePoint" />
            <mxPoint x="839" y="3409.7700000000004" as="targetPoint" />
          </mxGeometry>
        </mxCell>
        <mxCell id="XR5SNI3g1OD4vw3caPpb-59" value="&lt;span style=&quot;color: rgb(0, 0, 0); font-family: Helvetica; font-size: 12px; font-style: normal; font-variant-ligatures: normal; font-variant-caps: normal; font-weight: 400; letter-spacing: normal; orphans: 2; text-align: center; text-indent: 0px; text-transform: none; widows: 2; word-spacing: 0px; -webkit-text-stroke-width: 0px; white-space: normal; background-color: rgb(251, 251, 251); text-decoration-thickness: initial; text-decoration-style: initial; text-decoration-color: initial; display: inline !important; float: none;&quot;&gt;Koszyk&lt;/span&gt;" style="text;whiteSpace=wrap;html=1;" parent="1" vertex="1">
          <mxGeometry x="767" y="3373.63" width="36" height="26.37" as="geometry" />
        </mxCell>
        <mxCell id="XR5SNI3g1OD4vw3caPpb-64" value="" style="endArrow=none;html=1;rounded=0;" parent="1" edge="1">
          <mxGeometry width="50" height="50" relative="1" as="geometry">
            <mxPoint x="1056.5" y="3359.0300000000007" as="sourcePoint" />
            <mxPoint x="1152.5" y="3359.0300000000007" as="targetPoint" />
          </mxGeometry>
        </mxCell>
        <mxCell id="XR5SNI3g1OD4vw3caPpb-65" value="" style="endArrow=none;html=1;rounded=0;" parent="1" edge="1">
          <mxGeometry width="50" height="50" relative="1" as="geometry">
            <mxPoint x="1056.5" y="3368.8600000000006" as="sourcePoint" />
            <mxPoint x="1152.5" y="3369.0300000000007" as="targetPoint" />
          </mxGeometry>
        </mxCell>
        <mxCell id="XR5SNI3g1OD4vw3caPpb-66" value="" style="endArrow=none;html=1;rounded=0;" parent="1" edge="1">
          <mxGeometry width="50" height="50" relative="1" as="geometry">
            <mxPoint x="1056.5" y="3398.8" as="sourcePoint" />
            <mxPoint x="1152.5" y="3398.8" as="targetPoint" />
          </mxGeometry>
        </mxCell>
        <mxCell id="XR5SNI3g1OD4vw3caPpb-67" value="" style="endArrow=none;html=1;rounded=0;" parent="1" edge="1">
          <mxGeometry width="50" height="50" relative="1" as="geometry">
            <mxPoint x="1056.5" y="3408.63" as="sourcePoint" />
            <mxPoint x="1152.5" y="3408.8" as="targetPoint" />
          </mxGeometry>
        </mxCell>
        <mxCell id="XR5SNI3g1OD4vw3caPpb-68" value="&lt;span style=&quot;color: rgb(0, 0, 0); font-family: Helvetica; font-size: 12px; font-style: normal; font-variant-ligatures: normal; font-variant-caps: normal; font-weight: 400; letter-spacing: normal; orphans: 2; text-align: center; text-indent: 0px; text-transform: none; widows: 2; word-spacing: 0px; -webkit-text-stroke-width: 0px; white-space: normal; background-color: rgb(251, 251, 251); text-decoration-thickness: initial; text-decoration-style: initial; text-decoration-color: initial; display: inline !important; float: none;&quot;&gt;Zamówienia&amp;nbsp;&lt;/span&gt;" style="text;whiteSpace=wrap;html=1;" parent="1" vertex="1">
          <mxGeometry x="1067.5" y="3370.3" width="72.5" height="36" as="geometry" />
        </mxCell>
        <mxCell id="XR5SNI3g1OD4vw3caPpb-69" value="" style="endArrow=classic;html=1;rounded=0;exitX=0.5;exitY=1;exitDx=0;exitDy=0;" parent="1" source="XR5SNI3g1OD4vw3caPpb-38" edge="1">
          <mxGeometry width="50" height="50" relative="1" as="geometry">
            <mxPoint x="915" y="3360" as="sourcePoint" />
            <mxPoint x="1101" y="3360" as="targetPoint" />
          </mxGeometry>
        </mxCell>
        <mxCell id="XR5SNI3g1OD4vw3caPpb-70" value="" style="endArrow=classic;html=1;rounded=0;entryX=0;entryY=0.5;entryDx=0;entryDy=0;" parent="1" target="XR5SNI3g1OD4vw3caPpb-37" edge="1">
          <mxGeometry width="50" height="50" relative="1" as="geometry">
            <mxPoint x="655" y="3120" as="sourcePoint" />
            <mxPoint x="965" y="3310" as="targetPoint" />
            <Array as="points">
              <mxPoint x="695" y="3120" />
              <mxPoint x="695" y="3190" />
            </Array>
          </mxGeometry>
        </mxCell>
        <mxCell id="XR5SNI3g1OD4vw3caPpb-71" value="" style="endArrow=classic;html=1;rounded=0;entryX=0;entryY=0.5;entryDx=0;entryDy=0;" parent="1" target="XR5SNI3g1OD4vw3caPpb-37" edge="1">
          <mxGeometry width="50" height="50" relative="1" as="geometry">
            <mxPoint x="665" y="3260" as="sourcePoint" />
            <mxPoint x="965" y="3310" as="targetPoint" />
            <Array as="points">
              <mxPoint x="695" y="3260" />
              <mxPoint x="695" y="3190" />
            </Array>
          </mxGeometry>
        </mxCell>
        <mxCell id="XR5SNI3g1OD4vw3caPpb-72" value="" style="endArrow=classic;html=1;rounded=0;exitX=0;exitY=0.5;exitDx=0;exitDy=0;entryX=0.5;entryY=0;entryDx=0;entryDy=0;" parent="1" source="XR5SNI3g1OD4vw3caPpb-36" target="XR5SNI3g1OD4vw3caPpb-37" edge="1">
          <mxGeometry width="50" height="50" relative="1" as="geometry">
            <mxPoint x="915" y="3360" as="sourcePoint" />
            <mxPoint x="965" y="3310" as="targetPoint" />
            <Array as="points">
              <mxPoint x="789" y="3070" />
            </Array>
          </mxGeometry>
        </mxCell>
        <mxCell id="XR5SNI3g1OD4vw3caPpb-73" value="" style="endArrow=classic;startArrow=classic;html=1;rounded=0;exitX=1;exitY=0.5;exitDx=0;exitDy=0;entryX=0.5;entryY=0;entryDx=0;entryDy=0;" parent="1" source="XR5SNI3g1OD4vw3caPpb-36" target="XR5SNI3g1OD4vw3caPpb-38" edge="1">
          <mxGeometry width="50" height="50" relative="1" as="geometry">
            <mxPoint x="1045" y="3080" as="sourcePoint" />
            <mxPoint x="965" y="3310" as="targetPoint" />
            <Array as="points">
              <mxPoint x="1101" y="3070" />
            </Array>
          </mxGeometry>
        </mxCell>
        <mxCell id="XR5SNI3g1OD4vw3caPpb-74" value="" style="endArrow=classic;html=1;rounded=0;exitX=0.5;exitY=1;exitDx=0;exitDy=0;entryX=0.5;entryY=0;entryDx=0;entryDy=0;" parent="1" source="XR5SNI3g1OD4vw3caPpb-36" target="XR5SNI3g1OD4vw3caPpb-39" edge="1">
          <mxGeometry width="50" height="50" relative="1" as="geometry">
            <mxPoint x="915" y="3360" as="sourcePoint" />
            <mxPoint x="965" y="3140" as="targetPoint" />
          </mxGeometry>
        </mxCell>
        <mxCell id="XR5SNI3g1OD4vw3caPpb-75" value="" style="endArrow=classic;html=1;rounded=0;exitX=0.5;exitY=1;exitDx=0;exitDy=0;" parent="1" source="XR5SNI3g1OD4vw3caPpb-39" edge="1">
          <mxGeometry width="50" height="50" relative="1" as="geometry">
            <mxPoint x="915" y="3360" as="sourcePoint" />
            <mxPoint x="835" y="3390" as="targetPoint" />
            <Array as="points">
              <mxPoint x="941" y="3390" />
            </Array>
          </mxGeometry>
        </mxCell>
        <mxCell id="XR5SNI3g1OD4vw3caPpb-76" value="" style="endArrow=classic;html=1;rounded=0;entryX=0;entryY=0.5;entryDx=0;entryDy=0;" parent="1" target="XR5SNI3g1OD4vw3caPpb-38" edge="1">
          <mxGeometry width="50" height="50" relative="1" as="geometry">
            <mxPoint x="785" y="3410" as="sourcePoint" />
            <mxPoint x="965" y="3310" as="targetPoint" />
            <Array as="points">
              <mxPoint x="785" y="3450" />
              <mxPoint x="1015" y="3450" />
              <mxPoint x="1015" y="3190" />
            </Array>
          </mxGeometry>
        </mxCell>
        <mxCell id="XR5SNI3g1OD4vw3caPpb-77" value="" style="endArrow=classic;html=1;rounded=0;exitX=0.5;exitY=1;exitDx=0;exitDy=0;" parent="1" source="XR5SNI3g1OD4vw3caPpb-37" edge="1">
          <mxGeometry width="50" height="50" relative="1" as="geometry">
            <mxPoint x="915" y="3360" as="sourcePoint" />
            <mxPoint x="789" y="3360" as="targetPoint" />
          </mxGeometry>
        </mxCell>
        <mxCell id="XR5SNI3g1OD4vw3caPpb-78" value="id klienta/ odpowiedź" style="text;html=1;align=center;verticalAlign=middle;whiteSpace=wrap;rounded=0;" parent="1" vertex="1">
          <mxGeometry x="997.5" y="3043" width="140" height="30" as="geometry" />
        </mxCell>
        <mxCell id="XR5SNI3g1OD4vw3caPpb-79" value="Zamówienie" style="text;html=1;align=center;verticalAlign=middle;whiteSpace=wrap;rounded=0;" parent="1" vertex="1">
          <mxGeometry x="1112" y="3279" width="60" height="30" as="geometry" />
        </mxCell>
        <mxCell id="XR5SNI3g1OD4vw3caPpb-80" value="id_potrawy" style="text;html=1;align=center;verticalAlign=middle;whiteSpace=wrap;rounded=0;" parent="1" vertex="1">
          <mxGeometry x="878" y="3448" width="60" height="30" as="geometry" />
        </mxCell>
        <mxCell id="XR5SNI3g1OD4vw3caPpb-81" value="id_użytkownika, id_potrawy" style="text;html=1;align=center;verticalAlign=middle;whiteSpace=wrap;rounded=0;" parent="1" vertex="1">
          <mxGeometry x="864" y="3352" width="60" height="30" as="geometry" />
        </mxCell>
        <mxCell id="XR5SNI3g1OD4vw3caPpb-82" value="id_użytkownika, id_potrawy" style="text;html=1;align=center;verticalAlign=middle;whiteSpace=wrap;rounded=0;" parent="1" vertex="1">
          <mxGeometry x="806" y="3271" width="60" height="30" as="geometry" />
        </mxCell>
        <mxCell id="XR5SNI3g1OD4vw3caPpb-83" value="id_restauracji" style="text;html=1;align=center;verticalAlign=middle;whiteSpace=wrap;rounded=0;" parent="1" vertex="1">
          <mxGeometry x="707" y="3130" width="60" height="30" as="geometry" />
        </mxCell>
        <mxCell id="XR5SNI3g1OD4vw3caPpb-84" value="id_potrawy" style="text;html=1;align=center;verticalAlign=middle;whiteSpace=wrap;rounded=0;" parent="1" vertex="1">
          <mxGeometry x="700" y="3216" width="60" height="30" as="geometry" />
        </mxCell>
        <mxCell id="XR5SNI3g1OD4vw3caPpb-87" value="Klient" style="rounded=0;whiteSpace=wrap;html=1;" parent="1" vertex="1">
          <mxGeometry x="774" y="4140" width="120" height="60" as="geometry" />
        </mxCell>
        <mxCell id="XR5SNI3g1OD4vw3caPpb-88" value="6.2 Komentarz do potrawy" style="ellipse;whiteSpace=wrap;html=1;aspect=fixed;" parent="1" vertex="1">
          <mxGeometry x="987.75" y="4234.969999999999" width="80" height="80" as="geometry" />
        </mxCell>
        <mxCell id="XR5SNI3g1OD4vw3caPpb-89" value="6.1 Komentarz do restauracji" style="ellipse;whiteSpace=wrap;html=1;aspect=fixed;" parent="1" vertex="1">
          <mxGeometry x="560" y="4234.969999999999" width="80" height="80" as="geometry" />
        </mxCell>
        <mxCell id="XR5SNI3g1OD4vw3caPpb-95" value="" style="endArrow=none;html=1;rounded=0;" parent="1" edge="1">
          <mxGeometry width="50" height="50" relative="1" as="geometry">
            <mxPoint x="788.5" y="4248.7" as="sourcePoint" />
            <mxPoint x="884.5" y="4248.7" as="targetPoint" />
          </mxGeometry>
        </mxCell>
        <mxCell id="XR5SNI3g1OD4vw3caPpb-96" value="" style="endArrow=none;html=1;rounded=0;" parent="1" edge="1">
          <mxGeometry width="50" height="50" relative="1" as="geometry">
            <mxPoint x="788.5" y="4258.53" as="sourcePoint" />
            <mxPoint x="884.5" y="4258.7" as="targetPoint" />
          </mxGeometry>
        </mxCell>
        <mxCell id="XR5SNI3g1OD4vw3caPpb-97" value="" style="endArrow=none;html=1;rounded=0;" parent="1" edge="1">
          <mxGeometry width="50" height="50" relative="1" as="geometry">
            <mxPoint x="788.5" y="4288.47" as="sourcePoint" />
            <mxPoint x="884.5" y="4288.47" as="targetPoint" />
          </mxGeometry>
        </mxCell>
        <mxCell id="XR5SNI3g1OD4vw3caPpb-98" value="" style="endArrow=none;html=1;rounded=0;" parent="1" edge="1">
          <mxGeometry width="50" height="50" relative="1" as="geometry">
            <mxPoint x="788.5" y="4298.3" as="sourcePoint" />
            <mxPoint x="884.5" y="4298.47" as="targetPoint" />
          </mxGeometry>
        </mxCell>
        <mxCell id="XR5SNI3g1OD4vw3caPpb-99" value="&lt;span style=&quot;color: rgb(0, 0, 0); font-family: Helvetica; font-size: 12px; font-style: normal; font-variant-ligatures: normal; font-variant-caps: normal; font-weight: 400; letter-spacing: normal; orphans: 2; text-align: center; text-indent: 0px; text-transform: none; widows: 2; word-spacing: 0px; -webkit-text-stroke-width: 0px; white-space: normal; background-color: rgb(251, 251, 251); text-decoration-thickness: initial; text-decoration-style: initial; text-decoration-color: initial; display: inline !important; float: none;&quot;&gt;Restauracje&lt;/span&gt;" style="text;whiteSpace=wrap;html=1;" parent="1" vertex="1">
          <mxGeometry x="802" y="4260.97" width="66.25" height="36" as="geometry" />
        </mxCell>
        <mxCell id="XR5SNI3g1OD4vw3caPpb-100" value="" style="endArrow=none;html=1;rounded=0;" parent="1" edge="1">
          <mxGeometry width="50" height="50" relative="1" as="geometry">
            <mxPoint x="1187" y="4249.67" as="sourcePoint" />
            <mxPoint x="1283" y="4249.67" as="targetPoint" />
          </mxGeometry>
        </mxCell>
        <mxCell id="XR5SNI3g1OD4vw3caPpb-101" value="" style="endArrow=none;html=1;rounded=0;" parent="1" edge="1">
          <mxGeometry width="50" height="50" relative="1" as="geometry">
            <mxPoint x="1187" y="4259.5" as="sourcePoint" />
            <mxPoint x="1283" y="4259.67" as="targetPoint" />
          </mxGeometry>
        </mxCell>
        <mxCell id="XR5SNI3g1OD4vw3caPpb-102" value="" style="endArrow=none;html=1;rounded=0;" parent="1" edge="1">
          <mxGeometry width="50" height="50" relative="1" as="geometry">
            <mxPoint x="1187" y="4289.44" as="sourcePoint" />
            <mxPoint x="1283" y="4289.44" as="targetPoint" />
          </mxGeometry>
        </mxCell>
        <mxCell id="XR5SNI3g1OD4vw3caPpb-103" value="" style="endArrow=none;html=1;rounded=0;" parent="1" edge="1">
          <mxGeometry width="50" height="50" relative="1" as="geometry">
            <mxPoint x="1187" y="4299.27" as="sourcePoint" />
            <mxPoint x="1283" y="4299.44" as="targetPoint" />
          </mxGeometry>
        </mxCell>
        <mxCell id="XR5SNI3g1OD4vw3caPpb-104" value="&lt;span style=&quot;color: rgb(0, 0, 0); font-family: Helvetica; font-size: 12px; font-style: normal; font-variant-ligatures: normal; font-variant-caps: normal; font-weight: 400; letter-spacing: normal; orphans: 2; text-align: center; text-indent: 0px; text-transform: none; widows: 2; word-spacing: 0px; -webkit-text-stroke-width: 0px; white-space: normal; background-color: rgb(251, 251, 251); text-decoration-thickness: initial; text-decoration-style: initial; text-decoration-color: initial; display: inline !important; float: none;&quot;&gt;Potrawy&lt;/span&gt;" style="text;whiteSpace=wrap;html=1;" parent="1" vertex="1">
          <mxGeometry x="1199" y="4261.67" width="59" height="36" as="geometry" />
        </mxCell>
        <mxCell id="XR5SNI3g1OD4vw3caPpb-105" value="" style="endArrow=none;html=1;rounded=0;" parent="1" edge="1">
          <mxGeometry width="50" height="50" relative="1" as="geometry">
            <mxPoint x="792.5" y="4364" as="sourcePoint" />
            <mxPoint x="888.5" y="4364" as="targetPoint" />
          </mxGeometry>
        </mxCell>
        <mxCell id="XR5SNI3g1OD4vw3caPpb-106" value="" style="endArrow=none;html=1;rounded=0;" parent="1" edge="1">
          <mxGeometry width="50" height="50" relative="1" as="geometry">
            <mxPoint x="792.5" y="4373.83" as="sourcePoint" />
            <mxPoint x="888.5" y="4374" as="targetPoint" />
          </mxGeometry>
        </mxCell>
        <mxCell id="XR5SNI3g1OD4vw3caPpb-107" value="" style="endArrow=none;html=1;rounded=0;" parent="1" edge="1">
          <mxGeometry width="50" height="50" relative="1" as="geometry">
            <mxPoint x="792.5" y="4403.77" as="sourcePoint" />
            <mxPoint x="888.5" y="4403.77" as="targetPoint" />
          </mxGeometry>
        </mxCell>
        <mxCell id="XR5SNI3g1OD4vw3caPpb-108" value="" style="endArrow=none;html=1;rounded=0;" parent="1" edge="1">
          <mxGeometry width="50" height="50" relative="1" as="geometry">
            <mxPoint x="792.5" y="4413.6" as="sourcePoint" />
            <mxPoint x="888.5" y="4413.77" as="targetPoint" />
          </mxGeometry>
        </mxCell>
        <mxCell id="XR5SNI3g1OD4vw3caPpb-109" value="&lt;span style=&quot;color: rgb(0, 0, 0); font-family: Helvetica; font-size: 12px; font-style: normal; font-variant-ligatures: normal; font-variant-caps: normal; font-weight: 400; letter-spacing: normal; orphans: 2; text-align: center; text-indent: 0px; text-transform: none; widows: 2; word-spacing: 0px; -webkit-text-stroke-width: 0px; white-space: normal; background-color: rgb(251, 251, 251); text-decoration-thickness: initial; text-decoration-style: initial; text-decoration-color: initial; display: inline !important; float: none;&quot;&gt;Komentarze&lt;/span&gt;" style="text;whiteSpace=wrap;html=1;" parent="1" vertex="1">
          <mxGeometry x="804.5" y="4375.27" width="72" height="24" as="geometry" />
        </mxCell>
        <mxCell id="XR5SNI3g1OD4vw3caPpb-110" value="" style="endArrow=classic;html=1;rounded=0;entryX=1;entryY=0.5;entryDx=0;entryDy=0;" parent="1" target="XR5SNI3g1OD4vw3caPpb-88" edge="1">
          <mxGeometry width="50" height="50" relative="1" as="geometry">
            <mxPoint x="1187" y="4275" as="sourcePoint" />
            <mxPoint x="867" y="4370" as="targetPoint" />
          </mxGeometry>
        </mxCell>
        <mxCell id="XR5SNI3g1OD4vw3caPpb-111" value="" style="endArrow=classic;html=1;rounded=0;exitX=1;exitY=0.5;exitDx=0;exitDy=0;entryX=0.5;entryY=0;entryDx=0;entryDy=0;" parent="1" source="XR5SNI3g1OD4vw3caPpb-87" target="XR5SNI3g1OD4vw3caPpb-88" edge="1">
          <mxGeometry width="50" height="50" relative="1" as="geometry">
            <mxPoint x="817" y="4420" as="sourcePoint" />
            <mxPoint x="867" y="4370" as="targetPoint" />
            <Array as="points">
              <mxPoint x="1028" y="4170" />
            </Array>
          </mxGeometry>
        </mxCell>
        <mxCell id="XR5SNI3g1OD4vw3caPpb-112" value="" style="endArrow=classic;html=1;rounded=0;exitX=0.5;exitY=1;exitDx=0;exitDy=0;" parent="1" source="XR5SNI3g1OD4vw3caPpb-88" edge="1">
          <mxGeometry width="50" height="50" relative="1" as="geometry">
            <mxPoint x="817" y="4420" as="sourcePoint" />
            <mxPoint x="887" y="4390" as="targetPoint" />
            <Array as="points">
              <mxPoint x="1027" y="4390" />
            </Array>
          </mxGeometry>
        </mxCell>
        <mxCell id="XR5SNI3g1OD4vw3caPpb-113" value="" style="endArrow=classic;html=1;rounded=0;exitX=0.5;exitY=1;exitDx=0;exitDy=0;" parent="1" source="XR5SNI3g1OD4vw3caPpb-89" edge="1">
          <mxGeometry width="50" height="50" relative="1" as="geometry">
            <mxPoint x="817" y="4420" as="sourcePoint" />
            <mxPoint x="797" y="4390" as="targetPoint" />
            <Array as="points">
              <mxPoint x="600" y="4390" />
            </Array>
          </mxGeometry>
        </mxCell>
        <mxCell id="XR5SNI3g1OD4vw3caPpb-114" value="" style="endArrow=classic;html=1;rounded=0;entryX=1;entryY=0.5;entryDx=0;entryDy=0;" parent="1" target="XR5SNI3g1OD4vw3caPpb-89" edge="1">
          <mxGeometry width="50" height="50" relative="1" as="geometry">
            <mxPoint x="787" y="4275" as="sourcePoint" />
            <mxPoint x="867" y="4370" as="targetPoint" />
          </mxGeometry>
        </mxCell>
        <mxCell id="XR5SNI3g1OD4vw3caPpb-115" value="" style="endArrow=classic;html=1;rounded=0;entryX=0;entryY=0.5;entryDx=0;entryDy=0;" parent="1" target="XR5SNI3g1OD4vw3caPpb-88" edge="1">
          <mxGeometry width="50" height="50" relative="1" as="geometry">
            <mxPoint x="887" y="4275" as="sourcePoint" />
            <mxPoint x="867" y="4370" as="targetPoint" />
          </mxGeometry>
        </mxCell>
        <mxCell id="XR5SNI3g1OD4vw3caPpb-116" value="" style="endArrow=classic;html=1;rounded=0;exitX=0;exitY=0.5;exitDx=0;exitDy=0;entryX=0.5;entryY=0;entryDx=0;entryDy=0;" parent="1" source="XR5SNI3g1OD4vw3caPpb-87" target="XR5SNI3g1OD4vw3caPpb-89" edge="1">
          <mxGeometry width="50" height="50" relative="1" as="geometry">
            <mxPoint x="817" y="4420" as="sourcePoint" />
            <mxPoint x="867" y="4370" as="targetPoint" />
            <Array as="points">
              <mxPoint x="600" y="4170" />
            </Array>
          </mxGeometry>
        </mxCell>
        <mxCell id="XR5SNI3g1OD4vw3caPpb-117" value="Komentarz na temat restauracji" style="text;html=1;align=center;verticalAlign=middle;whiteSpace=wrap;rounded=0;" parent="1" vertex="1">
          <mxGeometry x="584.5" y="4142" width="190" height="30" as="geometry" />
        </mxCell>
        <mxCell id="XR5SNI3g1OD4vw3caPpb-118" value="Komentarz na temat potrawy" style="text;html=1;align=center;verticalAlign=middle;whiteSpace=wrap;rounded=0;" parent="1" vertex="1">
          <mxGeometry x="887.75" y="4142" width="180" height="30" as="geometry" />
        </mxCell>
        <mxCell id="XR5SNI3g1OD4vw3caPpb-119" value="id_restauracji" style="text;html=1;align=center;verticalAlign=middle;whiteSpace=wrap;rounded=0;" parent="1" vertex="1">
          <mxGeometry x="690" y="4250" width="60" height="30" as="geometry" />
        </mxCell>
        <mxCell id="XR5SNI3g1OD4vw3caPpb-120" value="id_restauracji" style="text;html=1;align=center;verticalAlign=middle;whiteSpace=wrap;rounded=0;" parent="1" vertex="1">
          <mxGeometry x="906.5" y="4250" width="60" height="30" as="geometry" />
        </mxCell>
        <mxCell id="XR5SNI3g1OD4vw3caPpb-121" value="id_potrawy" style="text;html=1;align=center;verticalAlign=middle;whiteSpace=wrap;rounded=0;" parent="1" vertex="1">
          <mxGeometry x="1094" y="4250" width="60" height="30" as="geometry" />
        </mxCell>
        <mxCell id="XR5SNI3g1OD4vw3caPpb-122" value="Komentarz" style="text;html=1;align=center;verticalAlign=middle;whiteSpace=wrap;rounded=0;" parent="1" vertex="1">
          <mxGeometry x="670" y="4367" width="60" height="30" as="geometry" />
        </mxCell>
        <mxCell id="XR5SNI3g1OD4vw3caPpb-123" value="Komentarz" style="text;html=1;align=center;verticalAlign=middle;whiteSpace=wrap;rounded=0;" parent="1" vertex="1">
          <mxGeometry x="927.75" y="4367" width="60" height="30" as="geometry" />
        </mxCell>
        <mxCell id="i5Oq2HYGZGMAB-nZkrD4-1" value="Dostawca" style="rounded=0;whiteSpace=wrap;html=1;" vertex="1" parent="1">
          <mxGeometry x="779" y="397" width="120" height="60" as="geometry" />
        </mxCell>
        <mxCell id="i5Oq2HYGZGMAB-nZkrD4-2" value="" style="endArrow=classic;startArrow=classic;html=1;rounded=0;exitX=0.5;exitY=1;exitDx=0;exitDy=0;entryX=0.5;entryY=0;entryDx=0;entryDy=0;" edge="1" parent="1" source="t8eUcsItaZwYu466m45F-16" target="i5Oq2HYGZGMAB-nZkrD4-1">
          <mxGeometry width="50" height="50" relative="1" as="geometry">
            <mxPoint x="836" y="307" as="sourcePoint" />
            <mxPoint x="834" y="391" as="targetPoint" />
          </mxGeometry>
        </mxCell>
        <mxCell id="i5Oq2HYGZGMAB-nZkrD4-4" value="&lt;font style=&quot;font-size: 14px;&quot;&gt;zamówione jedzenie&lt;/font&gt;" style="text;html=1;align=center;verticalAlign=middle;whiteSpace=wrap;rounded=0;" vertex="1" parent="1">
          <mxGeometry x="855" y="335" width="60" height="30" as="geometry" />
        </mxCell>
        <mxCell id="i5Oq2HYGZGMAB-nZkrD4-5" value="Dostawca" style="rounded=0;whiteSpace=wrap;html=1;" vertex="1" parent="1">
          <mxGeometry x="799" y="1020" width="120" height="60" as="geometry" />
        </mxCell>
        <mxCell id="i5Oq2HYGZGMAB-nZkrD4-6" value="" style="endArrow=classic;html=1;rounded=0;exitX=0;exitY=0.5;exitDx=0;exitDy=0;entryX=0.5;entryY=1;entryDx=0;entryDy=0;" edge="1" parent="1" source="i5Oq2HYGZGMAB-nZkrD4-5" target="t8eUcsItaZwYu466m45F-32">
          <mxGeometry width="50" height="50" relative="1" as="geometry">
            <mxPoint x="879" y="1000" as="sourcePoint" />
            <mxPoint x="929" y="950" as="targetPoint" />
            <Array as="points">
              <mxPoint x="544" y="1050" />
            </Array>
          </mxGeometry>
        </mxCell>
        <mxCell id="i5Oq2HYGZGMAB-nZkrD4-7" value="" style="endArrow=classic;html=1;rounded=0;exitX=0.5;exitY=1;exitDx=0;exitDy=0;entryX=0.5;entryY=0;entryDx=0;entryDy=0;" edge="1" parent="1" target="i5Oq2HYGZGMAB-nZkrD4-5">
          <mxGeometry width="50" height="50" relative="1" as="geometry">
            <mxPoint x="935" y="886.7699999999995" as="sourcePoint" />
            <mxPoint x="929" y="952" as="targetPoint" />
            <Array as="points">
              <mxPoint x="935" y="950" />
              <mxPoint x="859" y="950" />
            </Array>
          </mxGeometry>
        </mxCell>
        <mxCell id="i5Oq2HYGZGMAB-nZkrD4-8" value="" style="endArrow=classic;html=1;rounded=0;exitX=1;exitY=0.5;exitDx=0;exitDy=0;entryX=0;entryY=0.5;entryDx=0;entryDy=0;" edge="1" parent="1" source="i5Oq2HYGZGMAB-nZkrD4-5" target="t8eUcsItaZwYu466m45F-29">
          <mxGeometry width="50" height="50" relative="1" as="geometry">
            <mxPoint x="879" y="1000" as="sourcePoint" />
            <mxPoint x="929" y="950" as="targetPoint" />
            <Array as="points">
              <mxPoint x="979" y="1050" />
              <mxPoint x="979" y="980" />
            </Array>
          </mxGeometry>
        </mxCell>
        <mxCell id="i5Oq2HYGZGMAB-nZkrD4-10" value="Dane&lt;div&gt;restauracji&lt;/div&gt;" style="text;html=1;align=center;verticalAlign=middle;whiteSpace=wrap;rounded=0;" vertex="1" parent="1">
          <mxGeometry x="1256" y="1031" width="70" height="30" as="geometry" />
        </mxCell>
        <mxCell id="i5Oq2HYGZGMAB-nZkrD4-12" value="Zamówiona potrawa" style="text;html=1;align=center;verticalAlign=middle;whiteSpace=wrap;rounded=0;" vertex="1" parent="1">
          <mxGeometry x="644" y="1025" width="120" height="30" as="geometry" />
        </mxCell>
        <mxCell id="i5Oq2HYGZGMAB-nZkrD4-13" value="Dane&lt;div&gt;dostawcy&lt;/div&gt;" style="text;html=1;align=center;verticalAlign=middle;whiteSpace=wrap;rounded=0;" vertex="1" parent="1">
          <mxGeometry x="919" y="991" width="62" height="30" as="geometry" />
        </mxCell>
        <mxCell id="i5Oq2HYGZGMAB-nZkrD4-14" value="Zamówiona potrawa" style="text;html=1;align=center;verticalAlign=middle;whiteSpace=wrap;rounded=0;" vertex="1" parent="1">
          <mxGeometry x="849" y="915" width="85" height="30" as="geometry" />
        </mxCell>
        <mxCell id="i5Oq2HYGZGMAB-nZkrD4-15" value="Dostawca" style="rounded=0;whiteSpace=wrap;html=1;" vertex="1" parent="1">
          <mxGeometry x="877" y="3875" width="120" height="60" as="geometry" />
        </mxCell>
        <mxCell id="i5Oq2HYGZGMAB-nZkrD4-16" value="Klient" style="rounded=0;whiteSpace=wrap;html=1;" vertex="1" parent="1">
          <mxGeometry x="1100" y="3875" width="120" height="60" as="geometry" />
        </mxCell>
        <mxCell id="i5Oq2HYGZGMAB-nZkrD4-17" value="" style="endArrow=none;html=1;rounded=0;" edge="1" parent="1">
          <mxGeometry width="50" height="50" relative="1" as="geometry">
            <mxPoint x="806" y="3970" as="sourcePoint" />
            <mxPoint x="902" y="3970" as="targetPoint" />
          </mxGeometry>
        </mxCell>
        <mxCell id="i5Oq2HYGZGMAB-nZkrD4-18" value="" style="endArrow=none;html=1;rounded=0;" edge="1" parent="1">
          <mxGeometry width="50" height="50" relative="1" as="geometry">
            <mxPoint x="806" y="3979.83" as="sourcePoint" />
            <mxPoint x="902" y="3980" as="targetPoint" />
          </mxGeometry>
        </mxCell>
        <mxCell id="i5Oq2HYGZGMAB-nZkrD4-19" value="" style="endArrow=none;html=1;rounded=0;" edge="1" parent="1">
          <mxGeometry width="50" height="50" relative="1" as="geometry">
            <mxPoint x="806" y="4009.7700000000004" as="sourcePoint" />
            <mxPoint x="902" y="4009.7700000000004" as="targetPoint" />
          </mxGeometry>
        </mxCell>
        <mxCell id="i5Oq2HYGZGMAB-nZkrD4-20" value="" style="endArrow=none;html=1;rounded=0;" edge="1" parent="1">
          <mxGeometry width="50" height="50" relative="1" as="geometry">
            <mxPoint x="806" y="4019.6000000000004" as="sourcePoint" />
            <mxPoint x="902" y="4019.7700000000004" as="targetPoint" />
          </mxGeometry>
        </mxCell>
        <mxCell id="i5Oq2HYGZGMAB-nZkrD4-21" value="&lt;span style=&quot;color: rgb(0, 0, 0); font-family: Helvetica; font-size: 12px; font-style: normal; font-variant-ligatures: normal; font-variant-caps: normal; font-weight: 400; letter-spacing: normal; orphans: 2; text-align: center; text-indent: 0px; text-transform: none; widows: 2; word-spacing: 0px; -webkit-text-stroke-width: 0px; white-space: normal; background-color: rgb(251, 251, 251); text-decoration-thickness: initial; text-decoration-style: initial; text-decoration-color: initial; display: inline !important; float: none;&quot;&gt;Dostawcy&lt;/span&gt;" style="text;whiteSpace=wrap;html=1;" vertex="1" parent="1">
          <mxGeometry x="824" y="3981.2700000000004" width="67" height="36" as="geometry" />
        </mxCell>
        <mxCell id="i5Oq2HYGZGMAB-nZkrD4-23" value="" style="endArrow=classic;html=1;rounded=0;exitX=0;exitY=0.5;exitDx=0;exitDy=0;entryX=1;entryY=0.5;entryDx=0;entryDy=0;" edge="1" parent="1" source="oRTvZJj7xICdUWiJBsy2-2" target="i5Oq2HYGZGMAB-nZkrD4-15">
          <mxGeometry width="50" height="50" relative="1" as="geometry">
            <mxPoint x="760" y="3865" as="sourcePoint" />
            <mxPoint x="810" y="3815" as="targetPoint" />
            <Array as="points">
              <mxPoint x="1030" y="3785" />
              <mxPoint x="1030" y="3905" />
            </Array>
          </mxGeometry>
        </mxCell>
        <mxCell id="i5Oq2HYGZGMAB-nZkrD4-24" value="" style="endArrow=classic;html=1;rounded=0;exitX=1;exitY=0.5;exitDx=0;exitDy=0;entryX=0.5;entryY=0;entryDx=0;entryDy=0;" edge="1" parent="1" source="oRTvZJj7xICdUWiJBsy2-3" target="i5Oq2HYGZGMAB-nZkrD4-15">
          <mxGeometry width="50" height="50" relative="1" as="geometry">
            <mxPoint x="760" y="3865" as="sourcePoint" />
            <mxPoint x="810" y="3815" as="targetPoint" />
            <Array as="points">
              <mxPoint x="937" y="3785" />
            </Array>
          </mxGeometry>
        </mxCell>
        <mxCell id="i5Oq2HYGZGMAB-nZkrD4-25" value="Szczegóły zamówienia" style="text;html=1;align=center;verticalAlign=middle;whiteSpace=wrap;rounded=0;" vertex="1" parent="1">
          <mxGeometry x="943" y="3813" width="60" height="30" as="geometry" />
        </mxCell>
        <mxCell id="i5Oq2HYGZGMAB-nZkrD4-26" value="" style="endArrow=classic;html=1;rounded=0;exitX=1;exitY=0.5;exitDx=0;exitDy=0;entryX=0.5;entryY=0;entryDx=0;entryDy=0;" edge="1" parent="1" source="oRTvZJj7xICdUWiJBsy2-2" target="i5Oq2HYGZGMAB-nZkrD4-16">
          <mxGeometry width="50" height="50" relative="1" as="geometry">
            <mxPoint x="760" y="3865" as="sourcePoint" />
            <mxPoint x="810" y="3815" as="targetPoint" />
            <Array as="points">
              <mxPoint x="1160" y="3785" />
            </Array>
          </mxGeometry>
        </mxCell>
        <mxCell id="i5Oq2HYGZGMAB-nZkrD4-27" value="" style="endArrow=classic;html=1;rounded=0;entryX=0.5;entryY=1;entryDx=0;entryDy=0;" edge="1" parent="1" target="oRTvZJj7xICdUWiJBsy2-3">
          <mxGeometry width="50" height="50" relative="1" as="geometry">
            <mxPoint x="855" y="3968" as="sourcePoint" />
            <mxPoint x="855" y="3833" as="targetPoint" />
          </mxGeometry>
        </mxCell>
        <mxCell id="i5Oq2HYGZGMAB-nZkrD4-28" value="" style="endArrow=classic;html=1;rounded=0;exitX=0.5;exitY=1;exitDx=0;exitDy=0;" edge="1" parent="1" source="i5Oq2HYGZGMAB-nZkrD4-15">
          <mxGeometry width="50" height="50" relative="1" as="geometry">
            <mxPoint x="760" y="3865" as="sourcePoint" />
            <mxPoint x="900" y="3995" as="targetPoint" />
            <Array as="points">
              <mxPoint x="937" y="3995" />
            </Array>
          </mxGeometry>
        </mxCell>
        <mxCell id="i5Oq2HYGZGMAB-nZkrD4-29" value="Dane dostawcy" style="text;html=1;align=center;verticalAlign=middle;whiteSpace=wrap;rounded=0;" vertex="1" parent="1">
          <mxGeometry x="797" y="3885" width="60" height="30" as="geometry" />
        </mxCell>
        <mxCell id="i5Oq2HYGZGMAB-nZkrD4-30" value="Dane dostawcy" style="text;html=1;align=center;verticalAlign=middle;whiteSpace=wrap;rounded=0;" vertex="1" parent="1">
          <mxGeometry x="940" y="3949" width="60" height="30" as="geometry" />
        </mxCell>
        <mxCell id="i5Oq2HYGZGMAB-nZkrD4-31" value="Zamówienie" style="text;html=1;align=center;verticalAlign=middle;whiteSpace=wrap;rounded=0;" vertex="1" parent="1">
          <mxGeometry x="1170" y="3818" width="60" height="30" as="geometry" />
        </mxCell>
        <mxCell id="i5Oq2HYGZGMAB-nZkrD4-32" value="Diagram 0 DFD" style="text;html=1;align=center;verticalAlign=middle;resizable=0;points=[];autosize=1;strokeColor=none;fillColor=none;fontSize=22;" vertex="1" parent="1">
          <mxGeometry x="759.5" y="505" width="180" height="40" as="geometry" />
        </mxCell>
        <mxCell id="i5Oq2HYGZGMAB-nZkrD4-33" value="Poziom 1&lt;div&gt;Logowanie&lt;/div&gt;" style="text;html=1;align=center;verticalAlign=middle;resizable=0;points=[];autosize=1;strokeColor=none;fillColor=none;fontSize=22;" vertex="1" parent="1">
          <mxGeometry x="785" y="1336" width="130" height="70" as="geometry" />
        </mxCell>
        <mxCell id="i5Oq2HYGZGMAB-nZkrD4-34" value="Poziom 2&lt;div&gt;&amp;nbsp;Zarządzanie kontami użytkowników&amp;nbsp;&amp;nbsp;&lt;/div&gt;" style="text;html=1;align=center;verticalAlign=middle;resizable=0;points=[];autosize=1;strokeColor=none;fillColor=none;fontSize=22;" vertex="1" parent="1">
          <mxGeometry x="665" y="1891" width="390" height="70" as="geometry" />
        </mxCell>
        <mxCell id="i5Oq2HYGZGMAB-nZkrD4-35" value="Poziom 3&lt;div&gt;Zarządzanie restauracją  &lt;/div&gt;" style="text;html=1;align=center;verticalAlign=middle;resizable=0;points=[];autosize=1;strokeColor=none;fillColor=none;fontSize=22;" vertex="1" parent="1">
          <mxGeometry x="735" y="2380" width="260" height="70" as="geometry" />
        </mxCell>
        <mxCell id="i5Oq2HYGZGMAB-nZkrD4-37" value="Poziom 4&lt;div&gt;Składanie zamówień &amp;nbsp;&lt;/div&gt;" style="text;html=1;align=center;verticalAlign=middle;resizable=0;points=[];autosize=1;strokeColor=none;fillColor=none;fontSize=22;" vertex="1" parent="1">
          <mxGeometry x="735" y="2930" width="240" height="70" as="geometry" />
        </mxCell>
        <mxCell id="i5Oq2HYGZGMAB-nZkrD4-39" value="Poziom 5&lt;div&gt;Obsługa zamówień&amp;nbsp;&lt;/div&gt;" style="text;html=1;align=center;verticalAlign=middle;resizable=0;points=[];autosize=1;strokeColor=none;fillColor=none;fontSize=22;" vertex="1" parent="1">
          <mxGeometry x="740" y="3490" width="220" height="70" as="geometry" />
        </mxCell>
        <mxCell id="i5Oq2HYGZGMAB-nZkrD4-40" value="Poziom 6&lt;div&gt;Dodawanie komentarzy&amp;nbsp;&lt;/div&gt;" style="text;html=1;align=center;verticalAlign=middle;resizable=0;points=[];autosize=1;strokeColor=none;fillColor=none;fontSize=22;" vertex="1" parent="1">
          <mxGeometry x="720" y="4030" width="260" height="70" as="geometry" />
        </mxCell>
        <mxCell id="i5Oq2HYGZGMAB-nZkrD4-41" value="&lt;font style=&quot;font-size: 24px;&quot;&gt;&lt;b&gt;Uber Eats&lt;/b&gt;&lt;/font&gt;" style="text;html=1;align=center;verticalAlign=middle;resizable=0;points=[];autosize=1;strokeColor=none;fillColor=none;fontSize=22;" vertex="1" parent="1">
          <mxGeometry x="790" width="140" height="40" as="geometry" />
        </mxCell>
        <mxCell id="i5Oq2HYGZGMAB-nZkrD4-42" value="Bezczynność" style="rounded=0;whiteSpace=wrap;html=1;" vertex="1" parent="1">
          <mxGeometry x="1912" y="190" width="120" height="60" as="geometry" />
        </mxCell>
        <mxCell id="i5Oq2HYGZGMAB-nZkrD4-43" value="" style="endArrow=classic;html=1;rounded=0;entryX=0.5;entryY=0;entryDx=0;entryDy=0;" edge="1" parent="1" target="i5Oq2HYGZGMAB-nZkrD4-42">
          <mxGeometry width="50" height="50" relative="1" as="geometry">
            <mxPoint x="1972" y="130" as="sourcePoint" />
            <mxPoint x="2070" y="298" as="targetPoint" />
          </mxGeometry>
        </mxCell>
        <mxCell id="i5Oq2HYGZGMAB-nZkrD4-44" value="Oczekiwanie na wybór" style="rounded=0;whiteSpace=wrap;html=1;" vertex="1" parent="1">
          <mxGeometry x="1912" y="315" width="120" height="60" as="geometry" />
        </mxCell>
        <mxCell id="i5Oq2HYGZGMAB-nZkrD4-45" value="" style="endArrow=classic;html=1;rounded=0;exitX=0.5;exitY=1;exitDx=0;exitDy=0;entryX=0.5;entryY=0;entryDx=0;entryDy=0;" edge="1" parent="1" source="i5Oq2HYGZGMAB-nZkrD4-42" target="i5Oq2HYGZGMAB-nZkrD4-44">
          <mxGeometry width="50" height="50" relative="1" as="geometry">
            <mxPoint x="2020" y="348" as="sourcePoint" />
            <mxPoint x="2070" y="298" as="targetPoint" />
          </mxGeometry>
        </mxCell>
        <mxCell id="i5Oq2HYGZGMAB-nZkrD4-46" value="Przeglądanie oferty" style="rounded=0;whiteSpace=wrap;html=1;" vertex="1" parent="1">
          <mxGeometry x="2103" y="411" width="120" height="60" as="geometry" />
        </mxCell>
        <mxCell id="i5Oq2HYGZGMAB-nZkrD4-47" value="Rejestracja klienta" style="rounded=0;whiteSpace=wrap;html=1;" vertex="1" parent="1">
          <mxGeometry x="1684" y="411" width="120" height="60" as="geometry" />
        </mxCell>
        <mxCell id="i5Oq2HYGZGMAB-nZkrD4-48" value="Logowanie" style="rounded=0;whiteSpace=wrap;html=1;" vertex="1" parent="1">
          <mxGeometry x="1912" y="601" width="120" height="60" as="geometry" />
        </mxCell>
        <mxCell id="i5Oq2HYGZGMAB-nZkrD4-49" value="Czekanie na wybór funkcji uzytkownika" style="rounded=0;whiteSpace=wrap;html=1;" vertex="1" parent="1">
          <mxGeometry x="1912" y="778" width="120" height="60" as="geometry" />
        </mxCell>
        <mxCell id="i5Oq2HYGZGMAB-nZkrD4-50" value="Wylogowanie" style="rounded=0;whiteSpace=wrap;html=1;" vertex="1" parent="1">
          <mxGeometry x="1600" y="778" width="120" height="60" as="geometry" />
        </mxCell>
        <mxCell id="i5Oq2HYGZGMAB-nZkrD4-51" value="Składanie zamówienia" style="rounded=0;whiteSpace=wrap;html=1;" vertex="1" parent="1">
          <mxGeometry x="1720" y="946" width="120" height="60" as="geometry" />
        </mxCell>
        <mxCell id="i5Oq2HYGZGMAB-nZkrD4-52" value="Dodawanie komentarza" style="rounded=0;whiteSpace=wrap;html=1;" vertex="1" parent="1">
          <mxGeometry x="1912" y="946" width="120" height="60" as="geometry" />
        </mxCell>
        <mxCell id="i5Oq2HYGZGMAB-nZkrD4-53" value="Obsługa zamówienia" style="rounded=0;whiteSpace=wrap;html=1;" vertex="1" parent="1">
          <mxGeometry x="2103" y="946" width="120" height="60" as="geometry" />
        </mxCell>
        <mxCell id="i5Oq2HYGZGMAB-nZkrD4-54" value="Zarządzanie restauracją" style="rounded=0;whiteSpace=wrap;html=1;" vertex="1" parent="1">
          <mxGeometry x="2344" y="946" width="120" height="60" as="geometry" />
        </mxCell>
        <mxCell id="i5Oq2HYGZGMAB-nZkrD4-55" value="" style="endArrow=classic;html=1;rounded=0;exitX=0.5;exitY=0;exitDx=0;exitDy=0;entryX=0;entryY=0.75;entryDx=0;entryDy=0;" edge="1" parent="1" source="i5Oq2HYGZGMAB-nZkrD4-47" target="i5Oq2HYGZGMAB-nZkrD4-44">
          <mxGeometry width="50" height="50" relative="1" as="geometry">
            <mxPoint x="2008" y="564" as="sourcePoint" />
            <mxPoint x="1744" y="346" as="targetPoint" />
            <Array as="points">
              <mxPoint x="1744" y="358" />
            </Array>
          </mxGeometry>
        </mxCell>
        <mxCell id="i5Oq2HYGZGMAB-nZkrD4-56" value="" style="endArrow=classic;html=1;rounded=0;exitX=0.25;exitY=1;exitDx=0;exitDy=0;entryX=1;entryY=0.5;entryDx=0;entryDy=0;" edge="1" parent="1" source="i5Oq2HYGZGMAB-nZkrD4-44" target="i5Oq2HYGZGMAB-nZkrD4-47">
          <mxGeometry width="50" height="50" relative="1" as="geometry">
            <mxPoint x="2020" y="456" as="sourcePoint" />
            <mxPoint x="2070" y="406" as="targetPoint" />
            <Array as="points">
              <mxPoint x="1942" y="442" />
            </Array>
          </mxGeometry>
        </mxCell>
        <mxCell id="i5Oq2HYGZGMAB-nZkrD4-57" value="" style="endArrow=classic;html=1;rounded=0;exitX=0.5;exitY=0;exitDx=0;exitDy=0;entryX=1;entryY=0.5;entryDx=0;entryDy=0;" edge="1" parent="1" source="i5Oq2HYGZGMAB-nZkrD4-46" target="i5Oq2HYGZGMAB-nZkrD4-44">
          <mxGeometry width="50" height="50" relative="1" as="geometry">
            <mxPoint x="2020" y="456" as="sourcePoint" />
            <mxPoint x="2070" y="406" as="targetPoint" />
            <Array as="points">
              <mxPoint x="2164" y="346" />
            </Array>
          </mxGeometry>
        </mxCell>
        <mxCell id="i5Oq2HYGZGMAB-nZkrD4-58" value="" style="endArrow=classic;html=1;rounded=0;exitX=0.5;exitY=1;exitDx=0;exitDy=0;entryX=0.5;entryY=0;entryDx=0;entryDy=0;" edge="1" parent="1" source="i5Oq2HYGZGMAB-nZkrD4-44" target="i5Oq2HYGZGMAB-nZkrD4-48">
          <mxGeometry width="50" height="50" relative="1" as="geometry">
            <mxPoint x="2020" y="456" as="sourcePoint" />
            <mxPoint x="2070" y="406" as="targetPoint" />
          </mxGeometry>
        </mxCell>
        <mxCell id="i5Oq2HYGZGMAB-nZkrD4-59" value="" style="endArrow=classic;html=1;rounded=0;exitX=0.5;exitY=1;exitDx=0;exitDy=0;entryX=0.75;entryY=0;entryDx=0;entryDy=0;" edge="1" parent="1" source="i5Oq2HYGZGMAB-nZkrD4-46" target="i5Oq2HYGZGMAB-nZkrD4-48">
          <mxGeometry width="50" height="50" relative="1" as="geometry">
            <mxPoint x="2020" y="456" as="sourcePoint" />
            <mxPoint x="2070" y="406" as="targetPoint" />
            <Array as="points">
              <mxPoint x="2164" y="538" />
              <mxPoint x="2002" y="538" />
            </Array>
          </mxGeometry>
        </mxCell>
        <mxCell id="i5Oq2HYGZGMAB-nZkrD4-60" value="" style="endArrow=classic;html=1;rounded=0;exitX=0;exitY=0.5;exitDx=0;exitDy=0;entryX=0;entryY=0.5;entryDx=0;entryDy=0;" edge="1" parent="1" source="i5Oq2HYGZGMAB-nZkrD4-48" target="i5Oq2HYGZGMAB-nZkrD4-44">
          <mxGeometry width="50" height="50" relative="1" as="geometry">
            <mxPoint x="2020" y="456" as="sourcePoint" />
            <mxPoint x="1600" y="634" as="targetPoint" />
            <Array as="points">
              <mxPoint x="1636" y="634" />
              <mxPoint x="1636" y="345" />
            </Array>
          </mxGeometry>
        </mxCell>
        <mxCell id="i5Oq2HYGZGMAB-nZkrD4-61" value="" style="endArrow=classic;html=1;rounded=0;exitX=0.5;exitY=1;exitDx=0;exitDy=0;entryX=0.5;entryY=0;entryDx=0;entryDy=0;" edge="1" parent="1" source="i5Oq2HYGZGMAB-nZkrD4-48" target="i5Oq2HYGZGMAB-nZkrD4-49">
          <mxGeometry width="50" height="50" relative="1" as="geometry">
            <mxPoint x="2092" y="708" as="sourcePoint" />
            <mxPoint x="2142" y="658" as="targetPoint" />
          </mxGeometry>
        </mxCell>
        <mxCell id="i5Oq2HYGZGMAB-nZkrD4-62" value="" style="endArrow=none;html=1;rounded=0;strokeWidth=3;" edge="1" parent="1">
          <mxGeometry width="50" height="50" relative="1" as="geometry">
            <mxPoint x="2018" y="411" as="sourcePoint" />
            <mxPoint x="2080" y="411" as="targetPoint" />
          </mxGeometry>
        </mxCell>
        <mxCell id="i5Oq2HYGZGMAB-nZkrD4-63" value="" style="endArrow=classic;html=1;rounded=0;exitX=0.75;exitY=1;exitDx=0;exitDy=0;entryX=0;entryY=0.5;entryDx=0;entryDy=0;" edge="1" parent="1" source="i5Oq2HYGZGMAB-nZkrD4-44" target="i5Oq2HYGZGMAB-nZkrD4-46">
          <mxGeometry width="50" height="50" relative="1" as="geometry">
            <mxPoint x="2020" y="564" as="sourcePoint" />
            <mxPoint x="2070" y="514" as="targetPoint" />
            <Array as="points">
              <mxPoint x="2002" y="441" />
            </Array>
          </mxGeometry>
        </mxCell>
        <mxCell id="i5Oq2HYGZGMAB-nZkrD4-64" value="Restauracja" style="text;html=1;align=center;verticalAlign=middle;whiteSpace=wrap;rounded=0;" vertex="1" parent="1">
          <mxGeometry x="2020" y="381" width="60" height="30" as="geometry" />
        </mxCell>
        <mxCell id="i5Oq2HYGZGMAB-nZkrD4-65" value="Pokaż menu" style="text;html=1;align=center;verticalAlign=middle;whiteSpace=wrap;rounded=0;" vertex="1" parent="1">
          <mxGeometry x="2014" y="411" width="72" height="30" as="geometry" />
        </mxCell>
        <mxCell id="i5Oq2HYGZGMAB-nZkrD4-66" value="Strona główna" style="text;html=1;align=center;verticalAlign=middle;whiteSpace=wrap;rounded=0;" vertex="1" parent="1">
          <mxGeometry x="2190" y="334" width="102" height="30" as="geometry" />
        </mxCell>
        <mxCell id="i5Oq2HYGZGMAB-nZkrD4-67" value="Powrót do strony głównej" style="text;html=1;align=center;verticalAlign=middle;whiteSpace=wrap;rounded=0;" vertex="1" parent="1">
          <mxGeometry x="2163" y="364" width="156" height="30" as="geometry" />
        </mxCell>
        <mxCell id="i5Oq2HYGZGMAB-nZkrD4-68" value="" style="endArrow=none;html=1;rounded=0;strokeWidth=3;" edge="1" parent="1">
          <mxGeometry width="50" height="50" relative="1" as="geometry">
            <mxPoint x="2292" y="362.81999999999994" as="sourcePoint" />
            <mxPoint x="2196" y="362.81999999999994" as="targetPoint" />
          </mxGeometry>
        </mxCell>
        <mxCell id="i5Oq2HYGZGMAB-nZkrD4-69" value="Dane klienta" style="text;html=1;align=center;verticalAlign=middle;whiteSpace=wrap;rounded=0;" vertex="1" parent="1">
          <mxGeometry x="2014" y="471" width="77" height="30" as="geometry" />
        </mxCell>
        <mxCell id="i5Oq2HYGZGMAB-nZkrD4-70" value="Załóż konto" style="text;html=1;align=center;verticalAlign=middle;whiteSpace=wrap;rounded=0;" vertex="1" parent="1">
          <mxGeometry x="2019" y="501" width="72" height="30" as="geometry" />
        </mxCell>
        <mxCell id="i5Oq2HYGZGMAB-nZkrD4-71" value="" style="endArrow=none;html=1;rounded=0;strokeWidth=3;" edge="1" parent="1">
          <mxGeometry width="50" height="50" relative="1" as="geometry">
            <mxPoint x="2103" y="499.81999999999994" as="sourcePoint" />
            <mxPoint x="2007" y="499.81999999999994" as="targetPoint" />
          </mxGeometry>
        </mxCell>
        <mxCell id="i5Oq2HYGZGMAB-nZkrD4-72" value="Dane klienta" style="text;html=1;align=center;verticalAlign=middle;whiteSpace=wrap;rounded=0;" vertex="1" parent="1">
          <mxGeometry x="1825" y="366" width="78" height="30" as="geometry" />
        </mxCell>
        <mxCell id="i5Oq2HYGZGMAB-nZkrD4-73" value="Zaloz konto" style="text;html=1;align=center;verticalAlign=middle;whiteSpace=wrap;rounded=0;" vertex="1" parent="1">
          <mxGeometry x="1828" y="396" width="72" height="30" as="geometry" />
        </mxCell>
        <mxCell id="i5Oq2HYGZGMAB-nZkrD4-74" value="" style="endArrow=none;html=1;rounded=0;strokeWidth=3;" edge="1" parent="1">
          <mxGeometry width="50" height="50" relative="1" as="geometry">
            <mxPoint x="1912" y="394.81999999999994" as="sourcePoint" />
            <mxPoint x="1816" y="394.81999999999994" as="targetPoint" />
          </mxGeometry>
        </mxCell>
        <mxCell id="i5Oq2HYGZGMAB-nZkrD4-75" value="Błędne logowanie" style="text;html=1;align=center;verticalAlign=middle;whiteSpace=wrap;rounded=0;" vertex="1" parent="1">
          <mxGeometry x="1768" y="567" width="102" height="30" as="geometry" />
        </mxCell>
        <mxCell id="i5Oq2HYGZGMAB-nZkrD4-76" value="" style="endArrow=none;html=1;rounded=0;strokeWidth=3;" edge="1" parent="1">
          <mxGeometry width="50" height="50" relative="1" as="geometry">
            <mxPoint x="1870" y="595.8199999999999" as="sourcePoint" />
            <mxPoint x="1774" y="595.8199999999999" as="targetPoint" />
          </mxGeometry>
        </mxCell>
        <mxCell id="i5Oq2HYGZGMAB-nZkrD4-77" value="Powrót do strony głównej" style="text;html=1;align=center;verticalAlign=middle;whiteSpace=wrap;rounded=0;" vertex="1" parent="1">
          <mxGeometry x="1756" y="597" width="141" height="30" as="geometry" />
        </mxCell>
        <mxCell id="i5Oq2HYGZGMAB-nZkrD4-78" value="Dane uzytkownika" style="text;html=1;align=center;verticalAlign=middle;whiteSpace=wrap;rounded=0;" vertex="1" parent="1">
          <mxGeometry x="1849" y="467" width="102" height="30" as="geometry" />
        </mxCell>
        <mxCell id="i5Oq2HYGZGMAB-nZkrD4-79" value="Loguj do systemu" style="text;html=1;align=center;verticalAlign=middle;whiteSpace=wrap;rounded=0;" vertex="1" parent="1">
          <mxGeometry x="1840" y="502" width="120" height="30" as="geometry" />
        </mxCell>
        <mxCell id="i5Oq2HYGZGMAB-nZkrD4-80" value="" style="endArrow=none;html=1;rounded=0;strokeWidth=3;" edge="1" parent="1">
          <mxGeometry width="50" height="50" relative="1" as="geometry">
            <mxPoint x="1948" y="499.81999999999994" as="sourcePoint" />
            <mxPoint x="1852" y="499.81999999999994" as="targetPoint" />
          </mxGeometry>
        </mxCell>
        <mxCell id="i5Oq2HYGZGMAB-nZkrD4-81" value="" style="endArrow=classic;html=1;rounded=0;exitX=0;exitY=0.5;exitDx=0;exitDy=0;entryX=1;entryY=0.5;entryDx=0;entryDy=0;" edge="1" parent="1" source="i5Oq2HYGZGMAB-nZkrD4-49" target="i5Oq2HYGZGMAB-nZkrD4-50">
          <mxGeometry width="50" height="50" relative="1" as="geometry">
            <mxPoint x="2020" y="804" as="sourcePoint" />
            <mxPoint x="2070" y="754" as="targetPoint" />
          </mxGeometry>
        </mxCell>
        <mxCell id="i5Oq2HYGZGMAB-nZkrD4-82" value="Kliknięto &#39;wyloguj&#39;" style="text;html=1;align=center;verticalAlign=middle;whiteSpace=wrap;rounded=0;" vertex="1" parent="1">
          <mxGeometry x="1768.75" y="728" width="115.5" height="30" as="geometry" />
        </mxCell>
        <mxCell id="i5Oq2HYGZGMAB-nZkrD4-83" value="wyloguj" style="text;html=1;align=center;verticalAlign=middle;whiteSpace=wrap;rounded=0;" vertex="1" parent="1">
          <mxGeometry x="1790.5" y="758" width="72" height="30" as="geometry" />
        </mxCell>
        <mxCell id="i5Oq2HYGZGMAB-nZkrD4-84" value="" style="endArrow=none;html=1;rounded=0;strokeWidth=3;" edge="1" parent="1">
          <mxGeometry width="50" height="50" relative="1" as="geometry">
            <mxPoint x="1874.5" y="756.8199999999999" as="sourcePoint" />
            <mxPoint x="1778.5" y="756.8199999999999" as="targetPoint" />
          </mxGeometry>
        </mxCell>
        <mxCell id="i5Oq2HYGZGMAB-nZkrD4-85" value="" style="endArrow=classic;html=1;rounded=0;exitX=0;exitY=0.5;exitDx=0;exitDy=0;entryX=0;entryY=0.25;entryDx=0;entryDy=0;" edge="1" parent="1">
          <mxGeometry width="50" height="50" relative="1" as="geometry">
            <mxPoint x="1600" y="807" as="sourcePoint" />
            <mxPoint x="1912" y="329" as="targetPoint" />
            <Array as="points">
              <mxPoint x="1540" y="807" />
              <mxPoint x="1540" y="329" />
            </Array>
          </mxGeometry>
        </mxCell>
        <mxCell id="i5Oq2HYGZGMAB-nZkrD4-86" value="" style="endArrow=classic;html=1;rounded=0;exitX=1;exitY=0.25;exitDx=0;exitDy=0;entryX=0.5;entryY=0;entryDx=0;entryDy=0;" edge="1" parent="1" source="i5Oq2HYGZGMAB-nZkrD4-49" target="i5Oq2HYGZGMAB-nZkrD4-54">
          <mxGeometry width="50" height="50" relative="1" as="geometry">
            <mxPoint x="1720" y="828" as="sourcePoint" />
            <mxPoint x="1770" y="778" as="targetPoint" />
            <Array as="points">
              <mxPoint x="2404" y="793" />
            </Array>
          </mxGeometry>
        </mxCell>
        <mxCell id="i5Oq2HYGZGMAB-nZkrD4-87" value="Zarządzanie resutauracja" style="text;html=1;align=center;verticalAlign=middle;whiteSpace=wrap;rounded=0;" vertex="1" parent="1">
          <mxGeometry x="2240" y="828" width="152" height="30" as="geometry" />
        </mxCell>
        <mxCell id="i5Oq2HYGZGMAB-nZkrD4-88" value="Przejdź do panelu zarządzania" style="text;html=1;align=center;verticalAlign=middle;whiteSpace=wrap;rounded=0;" vertex="1" parent="1">
          <mxGeometry x="2223" y="847" width="186" height="30" as="geometry" />
        </mxCell>
        <mxCell id="i5Oq2HYGZGMAB-nZkrD4-89" value="" style="endArrow=none;html=1;rounded=0;strokeWidth=3;entryX=-0.009;entryY=0.819;entryDx=0;entryDy=0;entryPerimeter=0;" edge="1" parent="1" target="i5Oq2HYGZGMAB-nZkrD4-87">
          <mxGeometry width="50" height="50" relative="1" as="geometry">
            <mxPoint x="2400.37" y="852" as="sourcePoint" />
            <mxPoint x="2256.37" y="857.9300000000001" as="targetPoint" />
          </mxGeometry>
        </mxCell>
        <mxCell id="i5Oq2HYGZGMAB-nZkrD4-90" value="" style="endArrow=classic;html=1;rounded=0;exitX=1;exitY=0.75;exitDx=0;exitDy=0;entryX=0.5;entryY=0;entryDx=0;entryDy=0;" edge="1" parent="1" source="i5Oq2HYGZGMAB-nZkrD4-49" target="i5Oq2HYGZGMAB-nZkrD4-53">
          <mxGeometry width="50" height="50" relative="1" as="geometry">
            <mxPoint x="2116" y="864" as="sourcePoint" />
            <mxPoint x="2166" y="814" as="targetPoint" />
            <Array as="points">
              <mxPoint x="2164" y="823" />
            </Array>
          </mxGeometry>
        </mxCell>
        <mxCell id="i5Oq2HYGZGMAB-nZkrD4-91" value="Obsługa zamówień" style="text;html=1;align=center;verticalAlign=middle;whiteSpace=wrap;rounded=0;" vertex="1" parent="1">
          <mxGeometry x="2038" y="847" width="114" height="30" as="geometry" />
        </mxCell>
        <mxCell id="i5Oq2HYGZGMAB-nZkrD4-92" value="Przejdź do panelu zamówień" style="text;html=1;align=center;verticalAlign=middle;whiteSpace=wrap;rounded=0;" vertex="1" parent="1">
          <mxGeometry x="2020" y="888" width="143" height="30" as="geometry" />
        </mxCell>
        <mxCell id="i5Oq2HYGZGMAB-nZkrD4-93" value="" style="endArrow=none;html=1;rounded=0;strokeWidth=3;" edge="1" parent="1">
          <mxGeometry width="50" height="50" relative="1" as="geometry">
            <mxPoint x="2145" y="877" as="sourcePoint" />
            <mxPoint x="2049" y="877" as="targetPoint" />
          </mxGeometry>
        </mxCell>
        <mxCell id="i5Oq2HYGZGMAB-nZkrD4-94" value="" style="endArrow=classic;html=1;rounded=0;exitX=0.5;exitY=0;exitDx=0;exitDy=0;entryX=0.5;entryY=1;entryDx=0;entryDy=0;" edge="1" parent="1" source="i5Oq2HYGZGMAB-nZkrD4-52" target="i5Oq2HYGZGMAB-nZkrD4-49">
          <mxGeometry width="50" height="50" relative="1" as="geometry">
            <mxPoint x="2128" y="888" as="sourcePoint" />
            <mxPoint x="2178" y="838" as="targetPoint" />
          </mxGeometry>
        </mxCell>
        <mxCell id="i5Oq2HYGZGMAB-nZkrD4-95" value="" style="endArrow=classic;html=1;rounded=0;exitX=0.25;exitY=1;exitDx=0;exitDy=0;entryX=0.25;entryY=0;entryDx=0;entryDy=0;" edge="1" parent="1" source="i5Oq2HYGZGMAB-nZkrD4-49" target="i5Oq2HYGZGMAB-nZkrD4-52">
          <mxGeometry width="50" height="50" relative="1" as="geometry">
            <mxPoint x="2128" y="888" as="sourcePoint" />
            <mxPoint x="2178" y="838" as="targetPoint" />
          </mxGeometry>
        </mxCell>
        <mxCell id="i5Oq2HYGZGMAB-nZkrD4-96" value="Komentarz" style="text;html=1;align=center;verticalAlign=middle;whiteSpace=wrap;rounded=0;" vertex="1" parent="1">
          <mxGeometry x="1846" y="858" width="60" height="30" as="geometry" />
        </mxCell>
        <mxCell id="i5Oq2HYGZGMAB-nZkrD4-97" value="Dodaj komentarz" style="text;html=1;align=center;verticalAlign=middle;whiteSpace=wrap;rounded=0;" vertex="1" parent="1">
          <mxGeometry x="1822" y="888" width="108" height="30" as="geometry" />
        </mxCell>
        <mxCell id="i5Oq2HYGZGMAB-nZkrD4-98" value="" style="endArrow=none;html=1;rounded=0;strokeWidth=3;" edge="1" parent="1">
          <mxGeometry width="50" height="50" relative="1" as="geometry">
            <mxPoint x="1924" y="886.8199999999999" as="sourcePoint" />
            <mxPoint x="1828" y="886.8199999999999" as="targetPoint" />
          </mxGeometry>
        </mxCell>
        <mxCell id="i5Oq2HYGZGMAB-nZkrD4-99" value="" style="endArrow=classic;html=1;rounded=0;exitX=0;exitY=0.75;exitDx=0;exitDy=0;entryX=0.5;entryY=0;entryDx=0;entryDy=0;" edge="1" parent="1" source="i5Oq2HYGZGMAB-nZkrD4-49" target="i5Oq2HYGZGMAB-nZkrD4-51">
          <mxGeometry width="50" height="50" relative="1" as="geometry">
            <mxPoint x="2128" y="888" as="sourcePoint" />
            <mxPoint x="2178" y="838" as="targetPoint" />
            <Array as="points">
              <mxPoint x="1780" y="826" />
            </Array>
          </mxGeometry>
        </mxCell>
        <mxCell id="i5Oq2HYGZGMAB-nZkrD4-100" value="Wybranie potrawy" style="text;html=1;align=center;verticalAlign=middle;whiteSpace=wrap;rounded=0;" vertex="1" parent="1">
          <mxGeometry x="1615" y="858" width="114" height="30" as="geometry" />
        </mxCell>
        <mxCell id="i5Oq2HYGZGMAB-nZkrD4-101" value="Uaktywnij składanie zamówienia" style="text;html=1;align=center;verticalAlign=middle;whiteSpace=wrap;rounded=0;" vertex="1" parent="1">
          <mxGeometry x="1576" y="888" width="180" height="30" as="geometry" />
        </mxCell>
        <mxCell id="i5Oq2HYGZGMAB-nZkrD4-102" value="" style="endArrow=none;html=1;rounded=0;strokeWidth=3;" edge="1" parent="1">
          <mxGeometry width="50" height="50" relative="1" as="geometry">
            <mxPoint x="1720" y="886.8199999999999" as="sourcePoint" />
            <mxPoint x="1624" y="886.8199999999999" as="targetPoint" />
          </mxGeometry>
        </mxCell>
        <mxCell id="i5Oq2HYGZGMAB-nZkrD4-103" value="Diagram ogólny STD" style="text;html=1;align=center;verticalAlign=middle;resizable=0;points=[];autosize=1;strokeColor=none;fillColor=none;fontSize=22;" vertex="1" parent="1">
          <mxGeometry x="1855" y="70" width="230" height="40" as="geometry" />
        </mxCell>
        <mxCell id="i5Oq2HYGZGMAB-nZkrD4-104" value="Składanie zamówień" style="text;html=1;align=center;verticalAlign=middle;resizable=0;points=[];autosize=1;strokeColor=none;fillColor=none;fontSize=22;" vertex="1" parent="1">
          <mxGeometry x="1865" y="1080" width="230" height="40" as="geometry" />
        </mxCell>
        <mxCell id="i5Oq2HYGZGMAB-nZkrD4-105" value="Oczekiwanie na wybór potrawy" style="rounded=0;whiteSpace=wrap;html=1;" vertex="1" parent="1">
          <mxGeometry x="1882.75" y="1256" width="120" height="60" as="geometry" />
        </mxCell>
        <mxCell id="i5Oq2HYGZGMAB-nZkrD4-106" value="" style="endArrow=classic;html=1;rounded=0;entryX=0.5;entryY=0;entryDx=0;entryDy=0;" edge="1" parent="1" target="i5Oq2HYGZGMAB-nZkrD4-105">
          <mxGeometry width="50" height="50" relative="1" as="geometry">
            <mxPoint x="1942.75" y="1150" as="sourcePoint" />
            <mxPoint x="2286.75" y="1100" as="targetPoint" />
          </mxGeometry>
        </mxCell>
        <mxCell id="i5Oq2HYGZGMAB-nZkrD4-107" value="Usuwanie potrawy z koszyka" style="rounded=0;whiteSpace=wrap;html=1;" vertex="1" parent="1">
          <mxGeometry x="2133.75" y="1402" width="120" height="60" as="geometry" />
        </mxCell>
        <mxCell id="i5Oq2HYGZGMAB-nZkrD4-108" value="Dodanie potrawy do koszyka" style="rounded=0;whiteSpace=wrap;html=1;" vertex="1" parent="1">
          <mxGeometry x="1882.75" y="1402" width="120" height="60" as="geometry" />
        </mxCell>
        <mxCell id="i5Oq2HYGZGMAB-nZkrD4-109" value="Wysłanie zamówienia do restauracji" style="rounded=0;whiteSpace=wrap;html=1;" vertex="1" parent="1">
          <mxGeometry x="1882.75" y="1594" width="120" height="60" as="geometry" />
        </mxCell>
        <mxCell id="i5Oq2HYGZGMAB-nZkrD4-110" value="" style="endArrow=classic;html=1;rounded=0;exitX=0.5;exitY=1;exitDx=0;exitDy=0;entryX=0.5;entryY=0;entryDx=0;entryDy=0;" edge="1" parent="1" source="i5Oq2HYGZGMAB-nZkrD4-105" target="i5Oq2HYGZGMAB-nZkrD4-108">
          <mxGeometry width="50" height="50" relative="1" as="geometry">
            <mxPoint x="2170.75" y="1404" as="sourcePoint" />
            <mxPoint x="2220.75" y="1354" as="targetPoint" />
          </mxGeometry>
        </mxCell>
        <mxCell id="i5Oq2HYGZGMAB-nZkrD4-111" value="" style="endArrow=classic;html=1;rounded=0;exitX=0.5;exitY=0;exitDx=0;exitDy=0;entryX=1;entryY=0.5;entryDx=0;entryDy=0;" edge="1" parent="1" source="i5Oq2HYGZGMAB-nZkrD4-107" target="i5Oq2HYGZGMAB-nZkrD4-105">
          <mxGeometry width="50" height="50" relative="1" as="geometry">
            <mxPoint x="2170.75" y="1404" as="sourcePoint" />
            <mxPoint x="2220.75" y="1354" as="targetPoint" />
            <Array as="points">
              <mxPoint x="2193.75" y="1286" />
            </Array>
          </mxGeometry>
        </mxCell>
        <mxCell id="i5Oq2HYGZGMAB-nZkrD4-112" value="" style="endArrow=classic;html=1;rounded=0;exitX=1;exitY=0.75;exitDx=0;exitDy=0;entryX=0;entryY=0.5;entryDx=0;entryDy=0;" edge="1" parent="1" source="i5Oq2HYGZGMAB-nZkrD4-105" target="i5Oq2HYGZGMAB-nZkrD4-107">
          <mxGeometry width="50" height="50" relative="1" as="geometry">
            <mxPoint x="2170.75" y="1404" as="sourcePoint" />
            <mxPoint x="2220.75" y="1354" as="targetPoint" />
            <Array as="points">
              <mxPoint x="2062.75" y="1301" />
              <mxPoint x="2062.75" y="1432" />
            </Array>
          </mxGeometry>
        </mxCell>
        <mxCell id="i5Oq2HYGZGMAB-nZkrD4-113" value="" style="endArrow=classic;html=1;rounded=0;exitX=0.5;exitY=1;exitDx=0;exitDy=0;entryX=0.5;entryY=0;entryDx=0;entryDy=0;" edge="1" parent="1" source="i5Oq2HYGZGMAB-nZkrD4-108" target="i5Oq2HYGZGMAB-nZkrD4-109">
          <mxGeometry width="50" height="50" relative="1" as="geometry">
            <mxPoint x="2050.75" y="1500" as="sourcePoint" />
            <mxPoint x="2100.75" y="1450" as="targetPoint" />
          </mxGeometry>
        </mxCell>
        <mxCell id="i5Oq2HYGZGMAB-nZkrD4-114" value="" style="endArrow=classic;html=1;rounded=0;exitX=0;exitY=0.5;exitDx=0;exitDy=0;entryX=0;entryY=0.5;entryDx=0;entryDy=0;" edge="1" parent="1" source="i5Oq2HYGZGMAB-nZkrD4-108" target="i5Oq2HYGZGMAB-nZkrD4-105">
          <mxGeometry width="50" height="50" relative="1" as="geometry">
            <mxPoint x="2098.75" y="1500" as="sourcePoint" />
            <mxPoint x="2148.75" y="1450" as="targetPoint" />
            <Array as="points">
              <mxPoint x="1786.75" y="1432" />
              <mxPoint x="1786.75" y="1354" />
              <mxPoint x="1786.75" y="1286" />
            </Array>
          </mxGeometry>
        </mxCell>
        <mxCell id="i5Oq2HYGZGMAB-nZkrD4-115" value="Potrawa" style="text;html=1;align=center;verticalAlign=middle;whiteSpace=wrap;rounded=0;" vertex="1" parent="1">
          <mxGeometry x="2073.75" y="1316" width="102" height="30" as="geometry" />
        </mxCell>
        <mxCell id="i5Oq2HYGZGMAB-nZkrD4-116" value="" style="endArrow=none;html=1;rounded=0;strokeWidth=3;" edge="1" parent="1">
          <mxGeometry width="50" height="50" relative="1" as="geometry">
            <mxPoint x="2172.75" y="1351" as="sourcePoint" />
            <mxPoint x="2076.75" y="1351" as="targetPoint" />
          </mxGeometry>
        </mxCell>
        <mxCell id="i5Oq2HYGZGMAB-nZkrD4-117" value="Usuń potrawę" style="text;html=1;align=center;verticalAlign=middle;whiteSpace=wrap;rounded=0;" vertex="1" parent="1">
          <mxGeometry x="2080.75" y="1354" width="88" height="30" as="geometry" />
        </mxCell>
        <mxCell id="i5Oq2HYGZGMAB-nZkrD4-118" value="Potrawa" style="text;html=1;align=center;verticalAlign=middle;whiteSpace=wrap;rounded=0;" vertex="1" parent="1">
          <mxGeometry x="1828.75" y="1319" width="102" height="30" as="geometry" />
        </mxCell>
        <mxCell id="i5Oq2HYGZGMAB-nZkrD4-119" value="" style="endArrow=none;html=1;rounded=0;strokeWidth=3;" edge="1" parent="1">
          <mxGeometry width="50" height="50" relative="1" as="geometry">
            <mxPoint x="1927.75" y="1354" as="sourcePoint" />
            <mxPoint x="1831.75" y="1354" as="targetPoint" />
          </mxGeometry>
        </mxCell>
        <mxCell id="i5Oq2HYGZGMAB-nZkrD4-120" value="Dodaj Potrawę" style="text;html=1;align=center;verticalAlign=middle;whiteSpace=wrap;rounded=0;" vertex="1" parent="1">
          <mxGeometry x="1836.25" y="1354" width="87" height="30" as="geometry" />
        </mxCell>
        <mxCell id="i5Oq2HYGZGMAB-nZkrD4-121" value="Akceptacja zamówienia" style="text;html=1;align=center;verticalAlign=middle;whiteSpace=wrap;rounded=0;" vertex="1" parent="1">
          <mxGeometry x="1750" y="1510" width="142.5" height="30" as="geometry" />
        </mxCell>
        <mxCell id="i5Oq2HYGZGMAB-nZkrD4-122" value="" style="endArrow=none;html=1;rounded=0;strokeWidth=3;" edge="1" parent="1">
          <mxGeometry width="50" height="50" relative="1" as="geometry">
            <mxPoint x="1866.25" y="1540" as="sourcePoint" />
            <mxPoint x="1770.25" y="1540" as="targetPoint" />
          </mxGeometry>
        </mxCell>
        <mxCell id="i5Oq2HYGZGMAB-nZkrD4-123" value="Wyślij zamówienie" style="text;html=1;align=center;verticalAlign=middle;whiteSpace=wrap;rounded=0;" vertex="1" parent="1">
          <mxGeometry x="1761.25" y="1540" width="120" height="30" as="geometry" />
        </mxCell>
        <mxCell id="i5Oq2HYGZGMAB-nZkrD4-124" value="Powrót do &quot;oczekiwania na wybór funkcji uzytkownika&quot;" style="text;html=1;align=center;verticalAlign=middle;whiteSpace=wrap;rounded=0;" vertex="1" parent="1">
          <mxGeometry x="1855" y="1690" width="180" height="30" as="geometry" />
        </mxCell>
        <mxCell id="i5Oq2HYGZGMAB-nZkrD4-125" value="" style="endArrow=none;html=1;rounded=0;strokeWidth=3;" edge="1" parent="1">
          <mxGeometry width="50" height="50" relative="1" as="geometry">
            <mxPoint x="2014.75" y="1726" as="sourcePoint" />
            <mxPoint x="1858.75" y="1726" as="targetPoint" />
          </mxGeometry>
        </mxCell>
        <mxCell id="i5Oq2HYGZGMAB-nZkrD4-126" value="Oczekiwanie na zamówienie" style="rounded=0;whiteSpace=wrap;html=1;" vertex="1" parent="1">
          <mxGeometry x="1964" y="1956" width="120" height="60" as="geometry" />
        </mxCell>
        <mxCell id="i5Oq2HYGZGMAB-nZkrD4-127" value="" style="endArrow=classic;html=1;rounded=0;entryX=0.5;entryY=0;entryDx=0;entryDy=0;" edge="1" parent="1" target="i5Oq2HYGZGMAB-nZkrD4-126">
          <mxGeometry width="50" height="50" relative="1" as="geometry">
            <mxPoint x="2024" y="1850" as="sourcePoint" />
            <mxPoint x="2368" y="1800" as="targetPoint" />
          </mxGeometry>
        </mxCell>
        <mxCell id="i5Oq2HYGZGMAB-nZkrD4-128" value="Lista zamówień" style="rounded=0;whiteSpace=wrap;html=1;" vertex="1" parent="1">
          <mxGeometry x="1964" y="2102" width="120" height="60" as="geometry" />
        </mxCell>
        <mxCell id="i5Oq2HYGZGMAB-nZkrD4-129" value="Realizacja zamówienia" style="rounded=0;whiteSpace=wrap;html=1;" vertex="1" parent="1">
          <mxGeometry x="1964" y="2294" width="120" height="60" as="geometry" />
        </mxCell>
        <mxCell id="i5Oq2HYGZGMAB-nZkrD4-130" value="" style="endArrow=classic;html=1;rounded=0;exitX=0.5;exitY=1;exitDx=0;exitDy=0;entryX=0.5;entryY=0;entryDx=0;entryDy=0;" edge="1" parent="1" source="i5Oq2HYGZGMAB-nZkrD4-126" target="i5Oq2HYGZGMAB-nZkrD4-128">
          <mxGeometry width="50" height="50" relative="1" as="geometry">
            <mxPoint x="2252" y="2104" as="sourcePoint" />
            <mxPoint x="2302" y="2054" as="targetPoint" />
          </mxGeometry>
        </mxCell>
        <mxCell id="i5Oq2HYGZGMAB-nZkrD4-131" value="" style="endArrow=classic;html=1;rounded=0;exitX=0.5;exitY=1;exitDx=0;exitDy=0;entryX=0.5;entryY=0;entryDx=0;entryDy=0;" edge="1" parent="1" source="i5Oq2HYGZGMAB-nZkrD4-128" target="i5Oq2HYGZGMAB-nZkrD4-129">
          <mxGeometry width="50" height="50" relative="1" as="geometry">
            <mxPoint x="2132" y="2200" as="sourcePoint" />
            <mxPoint x="2182" y="2150" as="targetPoint" />
          </mxGeometry>
        </mxCell>
        <mxCell id="i5Oq2HYGZGMAB-nZkrD4-132" value="Odrzucenie zamówienia" style="text;html=1;align=center;verticalAlign=middle;whiteSpace=wrap;rounded=0;" vertex="1" parent="1">
          <mxGeometry x="2120" y="2019" width="137" height="30" as="geometry" />
        </mxCell>
        <mxCell id="i5Oq2HYGZGMAB-nZkrD4-133" value="" style="endArrow=none;html=1;rounded=0;strokeWidth=3;" edge="1" parent="1">
          <mxGeometry width="50" height="50" relative="1" as="geometry">
            <mxPoint x="2228" y="2049" as="sourcePoint" />
            <mxPoint x="2132" y="2049" as="targetPoint" />
          </mxGeometry>
        </mxCell>
        <mxCell id="i5Oq2HYGZGMAB-nZkrD4-134" value="Usuń zamówienie" style="text;html=1;align=center;verticalAlign=middle;whiteSpace=wrap;rounded=0;" vertex="1" parent="1">
          <mxGeometry x="2132" y="2051" width="106" height="30" as="geometry" />
        </mxCell>
        <mxCell id="i5Oq2HYGZGMAB-nZkrD4-135" value="Zamówienie" style="text;html=1;align=center;verticalAlign=middle;whiteSpace=wrap;rounded=0;" vertex="1" parent="1">
          <mxGeometry x="1910" y="2019" width="102" height="30" as="geometry" />
        </mxCell>
        <mxCell id="i5Oq2HYGZGMAB-nZkrD4-136" value="" style="endArrow=none;html=1;rounded=0;strokeWidth=3;" edge="1" parent="1">
          <mxGeometry width="50" height="50" relative="1" as="geometry">
            <mxPoint x="2009" y="2054" as="sourcePoint" />
            <mxPoint x="1913" y="2054" as="targetPoint" />
          </mxGeometry>
        </mxCell>
        <mxCell id="i5Oq2HYGZGMAB-nZkrD4-137" value="Dodaj zamówienie do listy" style="text;html=1;align=center;verticalAlign=middle;whiteSpace=wrap;rounded=0;" vertex="1" parent="1">
          <mxGeometry x="1911.5" y="2060" width="100.5" height="30" as="geometry" />
        </mxCell>
        <mxCell id="i5Oq2HYGZGMAB-nZkrD4-138" value="Akceptacja zamówienia" style="text;html=1;align=center;verticalAlign=middle;whiteSpace=wrap;rounded=0;" vertex="1" parent="1">
          <mxGeometry x="1869.5" y="2210" width="142.5" height="30" as="geometry" />
        </mxCell>
        <mxCell id="i5Oq2HYGZGMAB-nZkrD4-139" value="" style="endArrow=none;html=1;rounded=0;strokeWidth=3;" edge="1" parent="1">
          <mxGeometry width="50" height="50" relative="1" as="geometry">
            <mxPoint x="1994" y="2240" as="sourcePoint" />
            <mxPoint x="1898" y="2240" as="targetPoint" />
          </mxGeometry>
        </mxCell>
        <mxCell id="i5Oq2HYGZGMAB-nZkrD4-140" value="Wyślij zamówienie" style="text;html=1;align=center;verticalAlign=middle;whiteSpace=wrap;rounded=0;" vertex="1" parent="1">
          <mxGeometry x="1880.75" y="2240" width="120" height="30" as="geometry" />
        </mxCell>
        <mxCell id="i5Oq2HYGZGMAB-nZkrD4-141" value="" style="endArrow=classic;html=1;rounded=0;exitX=1;exitY=0.5;exitDx=0;exitDy=0;entryX=1;entryY=0.5;entryDx=0;entryDy=0;" edge="1" parent="1" source="i5Oq2HYGZGMAB-nZkrD4-128" target="i5Oq2HYGZGMAB-nZkrD4-126">
          <mxGeometry width="50" height="50" relative="1" as="geometry">
            <mxPoint x="2276" y="2200" as="sourcePoint" />
            <mxPoint x="2326" y="2150" as="targetPoint" />
            <Array as="points">
              <mxPoint x="2264" y="2132" />
              <mxPoint x="2264" y="1986" />
            </Array>
          </mxGeometry>
        </mxCell>
        <mxCell id="i5Oq2HYGZGMAB-nZkrD4-142" value="" style="endArrow=classic;html=1;rounded=0;exitX=0;exitY=0.5;exitDx=0;exitDy=0;entryX=0;entryY=0.5;entryDx=0;entryDy=0;" edge="1" parent="1" source="i5Oq2HYGZGMAB-nZkrD4-129" target="i5Oq2HYGZGMAB-nZkrD4-126">
          <mxGeometry width="50" height="50" relative="1" as="geometry">
            <mxPoint x="1940" y="2188" as="sourcePoint" />
            <mxPoint x="1772" y="2318" as="targetPoint" />
            <Array as="points">
              <mxPoint x="1784" y="2324" />
              <mxPoint x="1784" y="1986" />
            </Array>
          </mxGeometry>
        </mxCell>
        <mxCell id="i5Oq2HYGZGMAB-nZkrD4-143" value="Zamówienie zrealizowane" style="text;html=1;align=center;verticalAlign=middle;whiteSpace=wrap;rounded=0;" vertex="1" parent="1">
          <mxGeometry x="1610" y="2126" width="156" height="30" as="geometry" />
        </mxCell>
        <mxCell id="i5Oq2HYGZGMAB-nZkrD4-144" value="" style="endArrow=none;html=1;rounded=0;strokeWidth=3;entryX=0.009;entryY=-0.031;entryDx=0;entryDy=0;entryPerimeter=0;exitX=0.969;exitY=-0.031;exitDx=0;exitDy=0;exitPerimeter=0;" edge="1" parent="1" source="i5Oq2HYGZGMAB-nZkrD4-145" target="i5Oq2HYGZGMAB-nZkrD4-145">
          <mxGeometry width="50" height="50" relative="1" as="geometry">
            <mxPoint x="1733" y="2161" as="sourcePoint" />
            <mxPoint x="1637" y="2161" as="targetPoint" />
          </mxGeometry>
        </mxCell>
        <mxCell id="i5Oq2HYGZGMAB-nZkrD4-145" value="Oczekuj na zamówienie" style="text;html=1;align=center;verticalAlign=middle;whiteSpace=wrap;rounded=0;" vertex="1" parent="1">
          <mxGeometry x="1616" y="2162" width="144" height="30" as="geometry" />
        </mxCell>
        <mxCell id="i5Oq2HYGZGMAB-nZkrD4-146" value="Obsługa zamówień" style="text;html=1;align=center;verticalAlign=middle;resizable=0;points=[];autosize=1;strokeColor=none;fillColor=none;fontSize=22;" vertex="1" parent="1">
          <mxGeometry x="1885" y="1770" width="210" height="40" as="geometry" />
        </mxCell>
        <mxCell id="i5Oq2HYGZGMAB-nZkrD4-147" value="Zarządzanie restauracją" style="text;html=1;align=center;verticalAlign=middle;resizable=0;points=[];autosize=1;strokeColor=none;fillColor=none;fontSize=22;" vertex="1" parent="1">
          <mxGeometry x="1885" y="2440" width="260" height="40" as="geometry" />
        </mxCell>
        <mxCell id="i5Oq2HYGZGMAB-nZkrD4-148" value="Oczekiwanie na akcje" style="rounded=0;whiteSpace=wrap;html=1;" vertex="1" parent="1">
          <mxGeometry x="1921" y="2626" width="144" height="60" as="geometry" />
        </mxCell>
        <mxCell id="i5Oq2HYGZGMAB-nZkrD4-149" value="Wyświetlanie danych" style="rounded=0;whiteSpace=wrap;html=1;" vertex="1" parent="1">
          <mxGeometry x="2212.75" y="2746" width="120" height="60" as="geometry" />
        </mxCell>
        <mxCell id="i5Oq2HYGZGMAB-nZkrD4-150" value="Edycja danych" style="rounded=0;whiteSpace=wrap;html=1;" vertex="1" parent="1">
          <mxGeometry x="2212.75" y="2896" width="120" height="60" as="geometry" />
        </mxCell>
        <mxCell id="i5Oq2HYGZGMAB-nZkrD4-151" value="Zapisywanie danych" style="rounded=0;whiteSpace=wrap;html=1;" vertex="1" parent="1">
          <mxGeometry x="2212.75" y="3034" width="120" height="60" as="geometry" />
        </mxCell>
        <mxCell id="i5Oq2HYGZGMAB-nZkrD4-152" value="Wyświetlanie menu" style="rounded=0;whiteSpace=wrap;html=1;" vertex="1" parent="1">
          <mxGeometry x="1712" y="2770" width="120" height="60" as="geometry" />
        </mxCell>
        <mxCell id="i5Oq2HYGZGMAB-nZkrD4-153" value="Dodawanie potrawy" style="rounded=0;whiteSpace=wrap;html=1;" vertex="1" parent="1">
          <mxGeometry x="1545" y="2986" width="120" height="60" as="geometry" />
        </mxCell>
        <mxCell id="i5Oq2HYGZGMAB-nZkrD4-154" value="Edycja potrawy" style="rounded=0;whiteSpace=wrap;html=1;" vertex="1" parent="1">
          <mxGeometry x="1712" y="2985" width="120" height="60" as="geometry" />
        </mxCell>
        <mxCell id="i5Oq2HYGZGMAB-nZkrD4-155" value="Usuwanie potrawy" style="rounded=0;whiteSpace=wrap;html=1;" vertex="1" parent="1">
          <mxGeometry x="1904" y="2986" width="120" height="60" as="geometry" />
        </mxCell>
        <mxCell id="i5Oq2HYGZGMAB-nZkrD4-156" value="Zapis informacji o potrawie" style="rounded=0;whiteSpace=wrap;html=1;" vertex="1" parent="1">
          <mxGeometry x="1623" y="3142" width="120" height="60" as="geometry" />
        </mxCell>
        <mxCell id="i5Oq2HYGZGMAB-nZkrD4-157" value="" style="endArrow=classic;html=1;rounded=0;entryX=0.5;entryY=0;entryDx=0;entryDy=0;" edge="1" parent="1" target="i5Oq2HYGZGMAB-nZkrD4-148">
          <mxGeometry width="50" height="50" relative="1" as="geometry">
            <mxPoint x="1993" y="2530" as="sourcePoint" />
            <mxPoint x="2194" y="2950" as="targetPoint" />
          </mxGeometry>
        </mxCell>
        <mxCell id="i5Oq2HYGZGMAB-nZkrD4-158" value="" style="endArrow=classic;html=1;rounded=0;exitX=1;exitY=0.5;exitDx=0;exitDy=0;entryX=0.5;entryY=0;entryDx=0;entryDy=0;" edge="1" parent="1" source="i5Oq2HYGZGMAB-nZkrD4-148" target="i5Oq2HYGZGMAB-nZkrD4-149">
          <mxGeometry width="50" height="50" relative="1" as="geometry">
            <mxPoint x="2144" y="3000" as="sourcePoint" />
            <mxPoint x="2194" y="2950" as="targetPoint" />
            <Array as="points">
              <mxPoint x="2273" y="2656" />
            </Array>
          </mxGeometry>
        </mxCell>
        <mxCell id="i5Oq2HYGZGMAB-nZkrD4-159" value="" style="endArrow=classic;html=1;rounded=0;exitX=0.5;exitY=1;exitDx=0;exitDy=0;entryX=0.5;entryY=0;entryDx=0;entryDy=0;" edge="1" parent="1" source="i5Oq2HYGZGMAB-nZkrD4-149" target="i5Oq2HYGZGMAB-nZkrD4-150">
          <mxGeometry width="50" height="50" relative="1" as="geometry">
            <mxPoint x="2096" y="2892" as="sourcePoint" />
            <mxPoint x="2146" y="2842" as="targetPoint" />
          </mxGeometry>
        </mxCell>
        <mxCell id="i5Oq2HYGZGMAB-nZkrD4-160" value="" style="endArrow=classic;html=1;rounded=0;entryX=0.5;entryY=0;entryDx=0;entryDy=0;exitX=0.5;exitY=1;exitDx=0;exitDy=0;" edge="1" parent="1" source="i5Oq2HYGZGMAB-nZkrD4-150" target="i5Oq2HYGZGMAB-nZkrD4-151">
          <mxGeometry width="50" height="50" relative="1" as="geometry">
            <mxPoint x="2096" y="2892" as="sourcePoint" />
            <mxPoint x="2146" y="2842" as="targetPoint" />
          </mxGeometry>
        </mxCell>
        <mxCell id="i5Oq2HYGZGMAB-nZkrD4-161" value="Akceptacja zmian" style="text;html=1;align=center;verticalAlign=middle;whiteSpace=wrap;rounded=0;" vertex="1" parent="1">
          <mxGeometry x="2282" y="2964" width="102" height="30" as="geometry" />
        </mxCell>
        <mxCell id="i5Oq2HYGZGMAB-nZkrD4-162" value="" style="endArrow=none;html=1;rounded=0;strokeWidth=3;" edge="1" parent="1">
          <mxGeometry width="50" height="50" relative="1" as="geometry">
            <mxPoint x="2381" y="2999" as="sourcePoint" />
            <mxPoint x="2285" y="2999" as="targetPoint" />
          </mxGeometry>
        </mxCell>
        <mxCell id="i5Oq2HYGZGMAB-nZkrD4-163" value="Zapisz zmiany" style="text;html=1;align=center;verticalAlign=middle;whiteSpace=wrap;rounded=0;" vertex="1" parent="1">
          <mxGeometry x="2276" y="2999" width="120" height="30" as="geometry" />
        </mxCell>
        <mxCell id="i5Oq2HYGZGMAB-nZkrD4-164" value="Edytuj dane" style="text;html=1;align=center;verticalAlign=middle;whiteSpace=wrap;rounded=0;" vertex="1" parent="1">
          <mxGeometry x="2288" y="2816" width="102" height="30" as="geometry" />
        </mxCell>
        <mxCell id="i5Oq2HYGZGMAB-nZkrD4-165" value="" style="endArrow=none;html=1;rounded=0;strokeWidth=3;" edge="1" parent="1">
          <mxGeometry width="50" height="50" relative="1" as="geometry">
            <mxPoint x="2387" y="2851" as="sourcePoint" />
            <mxPoint x="2291" y="2851" as="targetPoint" />
          </mxGeometry>
        </mxCell>
        <mxCell id="i5Oq2HYGZGMAB-nZkrD4-166" value="Wyświetl okno edycji" style="text;html=1;align=center;verticalAlign=middle;whiteSpace=wrap;rounded=0;" vertex="1" parent="1">
          <mxGeometry x="2282" y="2851" width="120" height="30" as="geometry" />
        </mxCell>
        <mxCell id="i5Oq2HYGZGMAB-nZkrD4-167" value="" style="endArrow=classic;html=1;rounded=0;exitX=1;exitY=0.5;exitDx=0;exitDy=0;entryX=1;entryY=0.5;entryDx=0;entryDy=0;" edge="1" parent="1" source="i5Oq2HYGZGMAB-nZkrD4-151" target="i5Oq2HYGZGMAB-nZkrD4-149">
          <mxGeometry width="50" height="50" relative="1" as="geometry">
            <mxPoint x="2420" y="3000" as="sourcePoint" />
            <mxPoint x="2468" y="2758" as="targetPoint" />
            <Array as="points">
              <mxPoint x="2468" y="3064" />
              <mxPoint x="2468" y="2776" />
            </Array>
          </mxGeometry>
        </mxCell>
        <mxCell id="i5Oq2HYGZGMAB-nZkrD4-168" value="" style="endArrow=classic;html=1;rounded=0;exitX=1;exitY=0.25;exitDx=0;exitDy=0;entryX=1;entryY=0.25;entryDx=0;entryDy=0;" edge="1" parent="1" source="i5Oq2HYGZGMAB-nZkrD4-149" target="i5Oq2HYGZGMAB-nZkrD4-148">
          <mxGeometry width="50" height="50" relative="1" as="geometry">
            <mxPoint x="2636" y="2844" as="sourcePoint" />
            <mxPoint x="2456" y="2614" as="targetPoint" />
            <Array as="points">
              <mxPoint x="2384" y="2761" />
              <mxPoint x="2384" y="2641" />
            </Array>
          </mxGeometry>
        </mxCell>
        <mxCell id="i5Oq2HYGZGMAB-nZkrD4-169" value="Naciśnięto &quot;powrót&quot;" style="text;html=1;align=center;verticalAlign=middle;whiteSpace=wrap;rounded=0;" vertex="1" parent="1">
          <mxGeometry x="2246" y="2561" width="114" height="30" as="geometry" />
        </mxCell>
        <mxCell id="i5Oq2HYGZGMAB-nZkrD4-170" value="" style="endArrow=none;html=1;rounded=0;strokeWidth=3;" edge="1" parent="1">
          <mxGeometry width="50" height="50" relative="1" as="geometry">
            <mxPoint x="2345" y="2596" as="sourcePoint" />
            <mxPoint x="2249" y="2596" as="targetPoint" />
          </mxGeometry>
        </mxCell>
        <mxCell id="i5Oq2HYGZGMAB-nZkrD4-171" value="Powrót do interfejsu restauracji" style="text;html=1;align=center;verticalAlign=middle;whiteSpace=wrap;rounded=0;" vertex="1" parent="1">
          <mxGeometry x="2240" y="2601" width="120" height="30" as="geometry" />
        </mxCell>
        <mxCell id="i5Oq2HYGZGMAB-nZkrD4-172" value="" style="endArrow=classic;html=1;rounded=0;exitX=0;exitY=0.75;exitDx=0;exitDy=0;entryX=0.5;entryY=0;entryDx=0;entryDy=0;" edge="1" parent="1" source="i5Oq2HYGZGMAB-nZkrD4-148" target="i5Oq2HYGZGMAB-nZkrD4-152">
          <mxGeometry width="50" height="50" relative="1" as="geometry">
            <mxPoint x="2084" y="2976" as="sourcePoint" />
            <mxPoint x="2134" y="2926" as="targetPoint" />
            <Array as="points">
              <mxPoint x="1772" y="2671" />
            </Array>
          </mxGeometry>
        </mxCell>
        <mxCell id="i5Oq2HYGZGMAB-nZkrD4-173" value="" style="endArrow=classic;html=1;rounded=0;exitX=0;exitY=0.25;exitDx=0;exitDy=0;entryX=0;entryY=0.25;entryDx=0;entryDy=0;" edge="1" parent="1" source="i5Oq2HYGZGMAB-nZkrD4-152" target="i5Oq2HYGZGMAB-nZkrD4-148">
          <mxGeometry width="50" height="50" relative="1" as="geometry">
            <mxPoint x="2084" y="2868" as="sourcePoint" />
            <mxPoint x="1652" y="2782" as="targetPoint" />
            <Array as="points">
              <mxPoint x="1676" y="2785" />
              <mxPoint x="1676" y="2641" />
            </Array>
          </mxGeometry>
        </mxCell>
        <mxCell id="i5Oq2HYGZGMAB-nZkrD4-174" value="Menu restauracji" style="text;html=1;align=center;verticalAlign=middle;whiteSpace=wrap;rounded=0;" vertex="1" parent="1">
          <mxGeometry x="1790" y="2681" width="102" height="30" as="geometry" />
        </mxCell>
        <mxCell id="i5Oq2HYGZGMAB-nZkrD4-175" value="" style="endArrow=none;html=1;rounded=0;strokeWidth=3;" edge="1" parent="1">
          <mxGeometry width="50" height="50" relative="1" as="geometry">
            <mxPoint x="1889" y="2716" as="sourcePoint" />
            <mxPoint x="1793" y="2716" as="targetPoint" />
          </mxGeometry>
        </mxCell>
        <mxCell id="i5Oq2HYGZGMAB-nZkrD4-176" value="Pokaż menu restauracji" style="text;html=1;align=center;verticalAlign=middle;whiteSpace=wrap;rounded=0;" vertex="1" parent="1">
          <mxGeometry x="1784" y="2716" width="120" height="30" as="geometry" />
        </mxCell>
        <mxCell id="i5Oq2HYGZGMAB-nZkrD4-177" value="Naciśnięto &quot;powrót&quot;" style="text;html=1;align=center;verticalAlign=middle;whiteSpace=wrap;rounded=0;" vertex="1" parent="1">
          <mxGeometry x="1526" y="2674" width="102" height="30" as="geometry" />
        </mxCell>
        <mxCell id="i5Oq2HYGZGMAB-nZkrD4-178" value="" style="endArrow=none;html=1;rounded=0;strokeWidth=3;" edge="1" parent="1">
          <mxGeometry width="50" height="50" relative="1" as="geometry">
            <mxPoint x="1625" y="2709" as="sourcePoint" />
            <mxPoint x="1529" y="2709" as="targetPoint" />
          </mxGeometry>
        </mxCell>
        <mxCell id="i5Oq2HYGZGMAB-nZkrD4-179" value="Powrót do interfejsu restauracji" style="text;html=1;align=center;verticalAlign=middle;whiteSpace=wrap;rounded=0;" vertex="1" parent="1">
          <mxGeometry x="1520" y="2716" width="120" height="30" as="geometry" />
        </mxCell>
        <mxCell id="i5Oq2HYGZGMAB-nZkrD4-180" value="" style="endArrow=classic;html=1;rounded=0;exitX=0.5;exitY=1;exitDx=0;exitDy=0;entryX=0.5;entryY=0;entryDx=0;entryDy=0;" edge="1" parent="1" source="i5Oq2HYGZGMAB-nZkrD4-152" target="i5Oq2HYGZGMAB-nZkrD4-154">
          <mxGeometry width="50" height="50" relative="1" as="geometry">
            <mxPoint x="1856" y="3036" as="sourcePoint" />
            <mxPoint x="1906" y="2986" as="targetPoint" />
          </mxGeometry>
        </mxCell>
        <mxCell id="i5Oq2HYGZGMAB-nZkrD4-181" value="" style="endArrow=classic;html=1;rounded=0;exitX=0.75;exitY=1;exitDx=0;exitDy=0;entryX=0.5;entryY=0;entryDx=0;entryDy=0;" edge="1" parent="1" source="i5Oq2HYGZGMAB-nZkrD4-152" target="i5Oq2HYGZGMAB-nZkrD4-155">
          <mxGeometry width="50" height="50" relative="1" as="geometry">
            <mxPoint x="1856" y="3036" as="sourcePoint" />
            <mxPoint x="1906" y="2986" as="targetPoint" />
            <Array as="points">
              <mxPoint x="1802" y="2902" />
              <mxPoint x="1964" y="2902" />
            </Array>
          </mxGeometry>
        </mxCell>
        <mxCell id="i5Oq2HYGZGMAB-nZkrD4-182" value="" style="endArrow=classic;html=1;rounded=0;exitX=0.5;exitY=1;exitDx=0;exitDy=0;entryX=1;entryY=0.5;entryDx=0;entryDy=0;" edge="1" parent="1" source="i5Oq2HYGZGMAB-nZkrD4-155" target="i5Oq2HYGZGMAB-nZkrD4-152">
          <mxGeometry width="50" height="50" relative="1" as="geometry">
            <mxPoint x="1856" y="3036" as="sourcePoint" />
            <mxPoint x="1964" y="3082" as="targetPoint" />
            <Array as="points">
              <mxPoint x="1964" y="3082" />
              <mxPoint x="2108" y="3082" />
              <mxPoint x="2108" y="2800" />
            </Array>
          </mxGeometry>
        </mxCell>
        <mxCell id="i5Oq2HYGZGMAB-nZkrD4-183" value="Usuń potrawe" style="text;html=1;align=center;verticalAlign=middle;whiteSpace=wrap;rounded=0;" vertex="1" parent="1">
          <mxGeometry x="1850" y="2902" width="102" height="30" as="geometry" />
        </mxCell>
        <mxCell id="i5Oq2HYGZGMAB-nZkrD4-184" value="" style="endArrow=none;html=1;rounded=0;strokeWidth=3;" edge="1" parent="1">
          <mxGeometry width="50" height="50" relative="1" as="geometry">
            <mxPoint x="1949" y="2937" as="sourcePoint" />
            <mxPoint x="1853" y="2937" as="targetPoint" />
          </mxGeometry>
        </mxCell>
        <mxCell id="i5Oq2HYGZGMAB-nZkrD4-185" value="Wyświetl okno usuwania" style="text;html=1;align=center;verticalAlign=middle;whiteSpace=wrap;rounded=0;" vertex="1" parent="1">
          <mxGeometry x="1844" y="2942" width="120" height="30" as="geometry" />
        </mxCell>
        <mxCell id="i5Oq2HYGZGMAB-nZkrD4-186" value="Akceptacja" style="text;html=1;align=center;verticalAlign=middle;whiteSpace=wrap;rounded=0;" vertex="1" parent="1">
          <mxGeometry x="1994" y="2816" width="102" height="30" as="geometry" />
        </mxCell>
        <mxCell id="i5Oq2HYGZGMAB-nZkrD4-187" value="" style="endArrow=none;html=1;rounded=0;strokeWidth=3;" edge="1" parent="1">
          <mxGeometry width="50" height="50" relative="1" as="geometry">
            <mxPoint x="2093" y="2851" as="sourcePoint" />
            <mxPoint x="1997" y="2851" as="targetPoint" />
          </mxGeometry>
        </mxCell>
        <mxCell id="i5Oq2HYGZGMAB-nZkrD4-188" value="Usuń potrawe" style="text;html=1;align=center;verticalAlign=middle;whiteSpace=wrap;rounded=0;" vertex="1" parent="1">
          <mxGeometry x="1988" y="2851" width="120" height="30" as="geometry" />
        </mxCell>
        <mxCell id="i5Oq2HYGZGMAB-nZkrD4-189" value="" style="endArrow=classic;html=1;rounded=0;exitX=0.5;exitY=1;exitDx=0;exitDy=0;entryX=0.75;entryY=0;entryDx=0;entryDy=0;" edge="1" parent="1" source="i5Oq2HYGZGMAB-nZkrD4-154" target="i5Oq2HYGZGMAB-nZkrD4-156">
          <mxGeometry width="50" height="50" relative="1" as="geometry">
            <mxPoint x="1988" y="3012" as="sourcePoint" />
            <mxPoint x="2038" y="2962" as="targetPoint" />
            <Array as="points">
              <mxPoint x="1772" y="3106" />
              <mxPoint x="1712" y="3106" />
            </Array>
          </mxGeometry>
        </mxCell>
        <mxCell id="i5Oq2HYGZGMAB-nZkrD4-190" value="" style="endArrow=classic;html=1;rounded=0;exitX=0.5;exitY=1;exitDx=0;exitDy=0;entryX=0.25;entryY=0;entryDx=0;entryDy=0;" edge="1" parent="1" source="i5Oq2HYGZGMAB-nZkrD4-153" target="i5Oq2HYGZGMAB-nZkrD4-156">
          <mxGeometry width="50" height="50" relative="1" as="geometry">
            <mxPoint x="1736" y="3072" as="sourcePoint" />
            <mxPoint x="1786" y="3022" as="targetPoint" />
            <Array as="points">
              <mxPoint x="1604" y="3106" />
              <mxPoint x="1652" y="3106" />
            </Array>
          </mxGeometry>
        </mxCell>
        <mxCell id="i5Oq2HYGZGMAB-nZkrD4-191" value="Akceptacja" style="text;html=1;align=center;verticalAlign=middle;whiteSpace=wrap;rounded=0;" vertex="1" parent="1">
          <mxGeometry x="1778" y="3094" width="102" height="30" as="geometry" />
        </mxCell>
        <mxCell id="i5Oq2HYGZGMAB-nZkrD4-192" value="" style="endArrow=none;html=1;rounded=0;strokeWidth=3;" edge="1" parent="1">
          <mxGeometry width="50" height="50" relative="1" as="geometry">
            <mxPoint x="1877" y="3129" as="sourcePoint" />
            <mxPoint x="1781" y="3129" as="targetPoint" />
          </mxGeometry>
        </mxCell>
        <mxCell id="i5Oq2HYGZGMAB-nZkrD4-193" value="Zapisz potrawe" style="text;html=1;align=center;verticalAlign=middle;whiteSpace=wrap;rounded=0;" vertex="1" parent="1">
          <mxGeometry x="1772" y="3129" width="120" height="30" as="geometry" />
        </mxCell>
        <mxCell id="i5Oq2HYGZGMAB-nZkrD4-194" value="Akceptacja" style="text;html=1;align=center;verticalAlign=middle;whiteSpace=wrap;rounded=0;" vertex="1" parent="1">
          <mxGeometry x="1489.5" y="3097.5" width="102" height="30" as="geometry" />
        </mxCell>
        <mxCell id="i5Oq2HYGZGMAB-nZkrD4-195" value="" style="endArrow=none;html=1;rounded=0;strokeWidth=3;" edge="1" parent="1">
          <mxGeometry width="50" height="50" relative="1" as="geometry">
            <mxPoint x="1588.5" y="3132.5" as="sourcePoint" />
            <mxPoint x="1492.5" y="3132.5" as="targetPoint" />
          </mxGeometry>
        </mxCell>
        <mxCell id="i5Oq2HYGZGMAB-nZkrD4-196" value="Zapisz potrawe" style="text;html=1;align=center;verticalAlign=middle;whiteSpace=wrap;rounded=0;" vertex="1" parent="1">
          <mxGeometry x="1483.5" y="3132.5" width="120" height="30" as="geometry" />
        </mxCell>
        <mxCell id="i5Oq2HYGZGMAB-nZkrD4-197" value="" style="endArrow=classic;html=1;rounded=0;exitX=0.25;exitY=1;exitDx=0;exitDy=0;entryX=0.5;entryY=0;entryDx=0;entryDy=0;" edge="1" parent="1" source="i5Oq2HYGZGMAB-nZkrD4-152" target="i5Oq2HYGZGMAB-nZkrD4-153">
          <mxGeometry width="50" height="50" relative="1" as="geometry">
            <mxPoint x="2036" y="3072" as="sourcePoint" />
            <mxPoint x="2086" y="3022" as="targetPoint" />
            <Array as="points">
              <mxPoint x="1742" y="2902" />
              <mxPoint x="1605" y="2902" />
            </Array>
          </mxGeometry>
        </mxCell>
        <mxCell id="i5Oq2HYGZGMAB-nZkrD4-198" value="Edytuj potrawe" style="text;html=1;align=center;verticalAlign=middle;whiteSpace=wrap;rounded=0;" vertex="1" parent="1">
          <mxGeometry x="1657" y="2906" width="102" height="30" as="geometry" />
        </mxCell>
        <mxCell id="i5Oq2HYGZGMAB-nZkrD4-199" value="" style="endArrow=none;html=1;rounded=0;strokeWidth=3;" edge="1" parent="1">
          <mxGeometry width="50" height="50" relative="1" as="geometry">
            <mxPoint x="1751" y="2942" as="sourcePoint" />
            <mxPoint x="1655" y="2942" as="targetPoint" />
          </mxGeometry>
        </mxCell>
        <mxCell id="i5Oq2HYGZGMAB-nZkrD4-200" value="Wyswietl edycje potrawy" style="text;html=1;align=center;verticalAlign=middle;whiteSpace=wrap;rounded=0;" vertex="1" parent="1">
          <mxGeometry x="1648" y="2942" width="120" height="30" as="geometry" />
        </mxCell>
        <mxCell id="i5Oq2HYGZGMAB-nZkrD4-201" value="" style="endArrow=classic;html=1;rounded=0;exitX=0.5;exitY=1;exitDx=0;exitDy=0;entryX=0;entryY=0.5;entryDx=0;entryDy=0;" edge="1" parent="1" source="i5Oq2HYGZGMAB-nZkrD4-156" target="i5Oq2HYGZGMAB-nZkrD4-152">
          <mxGeometry width="50" height="50" relative="1" as="geometry">
            <mxPoint x="2036" y="3072" as="sourcePoint" />
            <mxPoint x="1688" y="3310" as="targetPoint" />
            <Array as="points">
              <mxPoint x="1683" y="3250" />
              <mxPoint x="1480" y="3250" />
              <mxPoint x="1480" y="2800" />
            </Array>
          </mxGeometry>
        </mxCell>
        <mxCell id="i5Oq2HYGZGMAB-nZkrD4-202" value="Nowa potrawa" style="text;html=1;align=center;verticalAlign=middle;whiteSpace=wrap;rounded=0;" vertex="1" parent="1">
          <mxGeometry x="1543" y="2846" width="102" height="30" as="geometry" />
        </mxCell>
        <mxCell id="i5Oq2HYGZGMAB-nZkrD4-203" value="" style="endArrow=none;html=1;rounded=0;strokeWidth=3;" edge="1" parent="1">
          <mxGeometry width="50" height="50" relative="1" as="geometry">
            <mxPoint x="1642" y="2881" as="sourcePoint" />
            <mxPoint x="1546" y="2881" as="targetPoint" />
          </mxGeometry>
        </mxCell>
        <mxCell id="i5Oq2HYGZGMAB-nZkrD4-204" value="Wyswietl dodawanie potrawy" style="text;html=1;align=center;verticalAlign=middle;whiteSpace=wrap;rounded=0;" vertex="1" parent="1">
          <mxGeometry x="1507.5" y="2876" width="173" height="30" as="geometry" />
        </mxCell>
      </root>
    </mxGraphModel>
  </diagram>
</mxfile>
